<?xml version="1.0" encoding="UTF-8"?><svg version="1.1" xmlns="http://www.w3.org/2000/svg" xmlns:xlink="http://www.w3.org/1999/xlink" viewBox="0 0 1600 1200" width="1600" height="1200" x="0px" y="0px">
              
              <!-- ITEM 0 -->
<g transform="translate(-132.0 -144.0) scale(2.2925 2.2933333333333334) rotate(0.0 400.0 300.0)">
<g transform="translate(-0.0 -0.0)">

<path style="fill:#E0EBFE;" d="M797.707,600l2.128-80.876v-39.235c-2.099-1.563-7.028-5.118-10.339-6.568  c-33.672-14.747-75.668-10.778-111.338,0.526c-35.67,11.303-67.472,29.215-102.005,42.611c-3.287,1.276-7.065,2.53-10.47,1.472  c-5.792-1.799-5.703-8.811-2.038-12.843c3.665-4.032,9.483-6.491,13.359-10.394c8.818-8.88,4.57-22.875-5.693-30.685  s-24.698-10.818-38.602-12.834c-44.911-6.513-91.004-5.655-136.454-2.345c-131.098,9.551-261.7,36.724-377.009,87.807  C8.543,541.378,1.615,544.65,0,545.419V600H797.707z"/>
<path style="fill:#D9E021;" d="M799.835,600v-45.939c-46.528,12.225-106.192,26.678-155.839,34.346  c-50.022,7.726-102.349,9.253-150.12-7.475c-62.626-21.93-113.336-73.685-178.529-86.053c-33.575-6.369-68.206-1.617-101.808,4.605  C137.798,513.509,71.42,533.542,0,562v38C0,600,799.835,600,799.835,600z"/>
<path style="fill:#AFCCFC;" d="M800,392.369l-26.45,40.993c-0.19,0.233-0.403,0.478-0.575,0.737l-52.592,79.151  c-2.865,4.323-2.06,10.855,2.265,13.141h0.002c3.414,3.048,9.779,1.619,11.875-1.348l4.244-6.207  c2.865-4.322,8.518-5.399,12.843-2.351h0.002c4.326,2.286,5.87,8.532,3.005,12.855l-10.239,14.95  c-1.933,3.228-0.29,8.771,3.053,11.057h0.002c3.478,2.286,9.742,1.422,11.932-1.9l9.858-14.138c2.865-4.323,8.61-5.298,12.937-2.25  h0.001c4.326,2.286,5.77,8.303,2.905,12.625l-21.021,31.653l-0.426,0.579c-2.28,3.578-0.525,9.245,2.953,11.531h0.002  c4.326,3.048,10.206,1.685,13.07-2.637L800,560.257V392.369z"/>
<g>
	<path style="fill:#D9E021;" d="M62.81,598.538c-0.112,0-0.225-0.006-0.339-0.019c-1.011-0.107-1.676-0.821-1.694-1.82   c-0.019-1.097,0.795-2.489,1.873-2.642c0.541-0.073,1.265,0.162,1.586,1.057c0.314-0.626,0.497-1.29,0.556-1.522   c19.706-77.738,83.817-189.062,106.005-220.259l1.74,1.237C150.415,405.672,86.498,516.65,66.862,594.115   C66.151,596.914,64.652,598.538,62.81,598.538z M63.174,596.089c-0.062,0.051-0.135,0.169-0.188,0.289   c0.464-0.099,0.837-0.528,1.122-1.026l-1.87,0.504c0.048,0.085,0.189,0.238,0.421,0.297   C62.909,596.219,63.113,596.138,63.174,596.089z"/>
</g>
<g>
	<path style="fill:#D9E021;" d="M96.105,598.878l-2.103-0.363c14.622-84.796,14.671-170.792,0.144-255.599l2.104-0.36   C110.818,427.603,110.769,513.843,96.105,598.878z"/>
</g>
<g>
	<path style="fill:#D9E021;" d="M670.327,599.23c-22.992-41.132-46.863-82.533-70.951-123.052   c-5.691-9.573-13.125-18.075-22.726-25.991l2.036-2.47c9.891,8.154,17.559,16.928,23.441,26.824   c22.783,38.322,45.372,77.431,67.205,116.358l0.428-0.206l3.407,7.061L670.327,599.23z"/>
</g>
<g>
	<path style="fill:#D9E021;" d="M694.538,590.954c-0.459,0-0.925-0.138-1.35-0.416c-0.881-0.573-1.629-1.808-1.282-2.966   c0.213-0.709,0.785-1.211,1.516-1.363c-13.375-29.873-34.104-56.285-54.152-81.827c-2.135-2.72-4.269-5.439-6.392-8.159l2.524-1.97   c2.121,2.718,4.253,5.434,6.386,8.152c20.219,25.761,41.127,52.399,54.66,82.728c1.309,2.934,0.488,4.485-0.431,5.27   C695.588,590.768,695.068,590.954,694.538,590.954z M693.903,587.57l-0.008,1.791c0.329,0.027,0.737-0.196,0.976-0.632   c0.223-0.405,0.144-0.774,0.091-0.856c-0.119-0.123-0.649-0.228-1.023,0.091c-0.001,0.002-0.002,0.003-0.002,0.003   C693.929,587.969,693.953,587.85,693.903,587.57z"/>
</g>
<g>
	<path style="fill:#D9E021;" d="M759.381,587.349c-16.736-23.948-42.005-43.366-64.298-60.498   c-4.923-3.783-9.572-7.356-14.135-10.968l1.987-2.509c4.546,3.597,9.187,7.163,14.1,10.939   c22.477,17.273,47.952,36.851,64.971,61.202L759.381,587.349z"/>
</g>
<g style="opacity:0.27;">
	<polygon style="fill:none;" points="485.556,500.86 477.525,492.829 477.525,597.444 485.556,597.444  "/>
	<polygon style="fill:none;" points="574.293,597.444 574.293,589.596 564.72,580.023 564.72,597.444  "/>
	<polygon style="fill:none;" points="538.798,597.444 538.798,554.101 529.225,544.529 529.225,597.444  "/>
	<polygon style="fill:none;" points="556.546,597.444 556.546,571.849 546.972,562.275 546.972,597.444  "/>
	<polygon style="fill:none;" points="503.303,597.444 503.303,518.607 493.73,509.033 493.73,597.444  "/>
	<polygon style="fill:none;" points="521.051,597.444 521.051,536.355 511.477,526.781 511.477,597.444  "/>
	<polygon style="fill:#D9E021;" points="582.14,597.444 574.293,589.596 574.293,597.444  "/>
	<polygon style="fill:#D9E021;" points="564.72,597.444 564.72,580.023 556.546,571.849 556.546,597.444  "/>
	<polygon style="fill:#D9E021;" points="546.972,597.444 546.972,562.275 538.798,554.101 538.798,597.444  "/>
	<polygon style="fill:#D9E021;" points="529.225,597.444 529.225,544.529 521.051,536.355 521.051,597.444  "/>
	<polygon style="fill:#D9E021;" points="511.477,597.444 511.477,526.781 503.303,518.607 503.303,597.444  "/>
	<polygon style="fill:#D9E021;" points="493.73,597.444 493.73,509.033 485.556,500.86 485.556,597.444  "/>
</g>
<path id="texture-2_12_-i0" style="fill:#A1C3FC;" d="M285.141,440.51c-0.151-0.628-0.792-1.009-1.418-0.857  c-0.628,0.151-1.009,0.792-0.856,1.42c0.151,0.628,0.792,1.009,1.418,0.857l0,0C284.913,441.777,285.3,441.144,285.141,440.51  L285.141,440.51z M212.497,344.798c0.346-0.566,0.166-1.305-0.4-1.649l0,0c-0.507-0.331-1.187-0.188-1.517,0.318  c-0.029,0.039-0.056,0.088-0.073,0.136c-0.344,0.536-0.192,1.244,0.341,1.595C211.412,345.53,212.152,345.361,212.497,344.798  L212.497,344.798L212.497,344.798z M246.171,395.638c0.496-0.431,0.594-1.164,0.229-1.71c-0.402-0.535-1.171-0.64-1.71-0.229  c-0.535,0.402-0.64,1.171-0.229,1.71C244.897,395.9,245.624,396.003,246.171,395.638z M395.392,348.6  c1.026-0.696,1.308-2.086,0.632-3.129c-0.616-1.027-1.945-1.362-2.968-0.753c-0.037,0.023-0.07,0.039-0.1,0.065  c-1.026,0.696-1.308,2.086-0.632,3.129C392.977,348.947,394.354,349.259,395.392,348.6L395.392,348.6z M349.841,378.238  c1.033-0.704,1.293-2.107,0.586-3.135c-0.689-1.011-2.061-1.29-3.086-0.622c-1.039,0.658-1.346,2.029-0.687,3.068l0,0  C347.384,378.576,348.77,378.872,349.841,378.238z M304.186,407.881c1.033-0.663,1.333-2.026,0.671-3.059  c-0.014-0.02-0.029-0.041-0.043-0.062c-0.616-1.027-1.945-1.362-2.968-0.753c-0.037,0.023-0.07,0.039-0.1,0.065  c-1.025,0.719-1.324,2.106-0.688,3.188C301.755,408.276,303.146,408.557,304.186,407.881z M415.224,463.142  c-0.263-1.205-1.45-1.968-2.659-1.699c-1.204,0.261-1.967,1.451-1.699,2.659c0.259,1.18,1.411,1.939,2.598,1.713  C414.673,465.547,415.454,464.362,415.224,463.142L415.224,463.142z M361.737,473.087c-0.263-1.205-1.45-1.968-2.659-1.699  c-1.204,0.261-1.967,1.451-1.699,2.659c0.259,1.18,1.411,1.939,2.598,1.713C361.182,475.498,361.967,474.306,361.737,473.087  L361.737,473.087z M302.904,289.376c0.68-1.039,0.409-2.432-0.626-3.129c-0.994-0.698-2.361-0.448-3.059,0.546  c-0.005,0.006-0.009,0.012-0.014,0.018c-0.735,0.938-0.567,2.291,0.37,3.027c0.045,0.034,0.089,0.067,0.142,0.107  C300.769,290.608,302.148,290.367,302.904,289.376z M272.073,334.229c0.668-1.048,0.421-2.432-0.564-3.184  c-1.039-0.68-2.435-0.402-3.129,0.626c-0.696,1.018-0.436,2.412,0.582,3.105c0.012,0.009,0.026,0.02,0.033,0.024  c0.994,0.698,2.361,0.448,3.054-0.54C272.064,334.241,272.068,334.235,272.073,334.229z M241.301,379.017  c0.697-0.965,0.49-2.311-0.475-3.005c-0.026-0.02-0.057-0.043-0.088-0.056c-0.989-0.735-2.388-0.519-3.122,0.47  c-0.024,0.033-0.044,0.059-0.067,0.089c-0.699,1.035-0.424,2.439,0.602,3.133c1.035,0.699,2.439,0.424,3.133-0.602  C241.292,379.03,241.296,379.023,241.301,379.017z M423.578,515.827c-0.102-1.094-1.063-1.906-2.16-1.826  c-1.096,0.091-1.914,1.058-1.826,2.16c0.087,1.102,1.058,1.914,2.16,1.826l0,0C422.846,517.882,423.659,516.924,423.578,515.827z   M328.566,336.171c0.69-0.892,0.568-2.16-0.283-2.902c-0.816-0.694-2.038-0.596-2.733,0.219c-0.02,0.026-0.034,0.045-0.053,0.071  c-0.728,0.832-0.64,2.096,0.197,2.815c0.012,0.009,0.018,0.014,0.033,0.024C326.579,337.072,327.819,336.979,328.566,336.171  L328.566,336.171z M297.399,373.282c0.69-0.85,0.56-2.096-0.28-2.788c-0.816-0.694-2.038-0.596-2.733,0.219  c-0.02,0.026-0.034,0.045-0.053,0.071c-0.728,0.832-0.64,2.096,0.19,2.822c0.012,0.009,0.018,0.014,0.033,0.024  C295.439,374.293,296.699,374.145,297.399,373.282L297.399,373.282z M266.181,410.565c0.728-0.832,0.64-2.096-0.19-2.822  c-0.012-0.009-0.018-0.014-0.033-0.024c-0.772-0.702-1.969-0.636-2.67,0.136c-0.044,0.046-0.084,0.098-0.122,0.149  c-0.728,0.832-0.64,2.096,0.19,2.822c0.012,0.009,0.018,0.014,0.033,0.024C264.246,411.506,265.475,411.385,266.181,410.565  L266.181,410.565z M373.618,432.6c0.962-0.544,1.321-1.756,0.797-2.732c-0.506-0.975-1.697-1.356-2.671-0.853  c-0.972,0.527-1.376,1.723-0.914,2.726C371.368,432.738,372.604,433.115,373.618,432.6L373.618,432.6z M330.522,455.014  c0.959-0.458,1.371-1.606,0.913-2.565c-0.017-0.032-0.037-0.069-0.05-0.107c-0.506-0.975-1.697-1.356-2.671-0.853  c-0.972,0.527-1.376,1.723-0.914,2.726C328.332,455.179,329.544,455.537,330.522,455.014L330.522,455.014z M233.134,310.909  c0.336-0.996-0.194-2.07-1.186-2.412c-0.042-0.012-0.078-0.03-0.114-0.035c-1.039-0.359-2.18,0.194-2.542,1.237  c-0.008,0.023-0.017,0.048-0.02,0.065c-0.286,1.063,0.312,2.167,1.365,2.508c1.035,0.336,2.144-0.239,2.48-1.275  C233.121,310.97,233.122,310.939,233.134,310.909L233.134,310.909z M218.567,357.257c0.327-1.064-0.248-2.201-1.305-2.562  c-1.077-0.309-2.208,0.312-2.515,1.391c-0.298,1.025,0.258,2.107,1.263,2.47c1.023,0.367,2.16-0.167,2.527-1.191  C218.548,357.335,218.561,357.293,218.567,357.257L218.567,357.257z M465.312,485.56c1.103-0.651,1.51-2.045,0.917-3.187  c-0.602-1.127-1.996-1.563-3.125-0.972c-1.117,0.64-1.526,2.053-0.917,3.187C462.789,485.715,464.183,486.151,465.312,485.56  L465.312,485.56z M415.843,511.948c1.133-0.597,1.563-1.996,0.972-3.125c-0.591-1.129-1.996-1.563-3.125-0.972  c-1.133,0.597-1.563,1.996-0.972,3.125C413.316,512.11,414.715,512.539,415.843,511.948L415.843,511.948z M284.023,334.471  c0.34-1.254-0.355-2.553-1.591-2.958c-1.248-0.335-2.534,0.41-2.863,1.663c-0.323,1.206,0.363,2.448,1.548,2.827  C282.339,336.346,283.619,335.676,284.023,334.471L284.023,334.471z M267.743,388.099c0.344-1.221-0.325-2.5-1.531-2.903  c-1.225-0.379-2.525,0.306-2.903,1.531c-0.379,1.225,0.306,2.525,1.531,2.903C266.061,389.986,267.349,389.303,267.743,388.099  L267.743,388.099z M376.028,414.85c0.757-1.02,0.607-2.453-0.334-3.302c-1.012-0.771-2.451-0.595-3.247,0.395  c-0.819,0.954-0.714,2.393,0.248,3.216c0.012,0.009,0.026,0.02,0.039,0.029C373.728,416.009,375.2,415.858,376.028,414.85  C376.023,414.856,376.028,414.85,376.028,414.85L376.028,414.85z M340.42,458.212c0.818-1.006,0.668-2.479-0.328-3.298  c0,0,0,0-0.006-0.005c-0.968-0.789-2.4-0.639-3.181,0.334l0,0c-0.809,0.981-0.674,2.433,0.303,3.238  C338.164,459.296,339.6,459.166,340.42,458.212L340.42,458.212z M410.877,431.105c0.816-0.966,0.692-2.419-0.28-3.24  c-0.972-0.824-2.419-0.692-3.242,0.279c-0.792,0.946-0.702,2.352,0.213,3.181C408.553,432.175,410.026,432.076,410.877,431.105  L410.877,431.105z M373.682,472.762c0.845-0.975,0.746-2.449-0.225-3.3c-0.952-0.808-2.38-0.732-3.245,0.165  c-0.836,0.992-0.761,2.457,0.164,3.356C371.364,473.807,372.815,473.699,373.682,472.762L373.682,472.762z M299.02,397.579  c0.395-1.222-0.261-2.542-1.476-2.963c-1.195-0.406-2.496,0.226-2.902,1.42c-0.457,1.157,0.107,2.467,1.263,2.925  c0.031,0.014,0.06,0.026,0.097,0.032c1.196,0.458,2.537-0.145,2.987-1.347C299.005,397.628,299.012,397.605,299.02,397.579  L299.02,397.579z"/>
<path id="texture-2_11_-i0" style="fill:#A1C3FC;" d="M23.763,351.41c-0.151-0.628-0.792-1.009-1.418-0.857  c-0.628,0.151-1.009,0.792-0.856,1.42c0.151,0.628,0.792,1.009,1.418,0.857l0,0C23.533,352.678,23.92,352.044,23.763,351.41  L23.763,351.41z M134.013,259.5c1.026-0.696,1.308-2.086,0.632-3.129c-0.616-1.027-1.945-1.362-2.968-0.753  c-0.037,0.023-0.07,0.039-0.1,0.065c-1.026,0.696-1.308,2.086-0.632,3.129C131.598,259.848,132.976,260.16,134.013,259.5  L134.013,259.5z M88.462,289.139c1.033-0.704,1.293-2.107,0.586-3.135c-0.689-1.011-2.061-1.29-3.086-0.622  c-1.039,0.658-1.346,2.029-0.687,3.068l0,0C86.005,289.476,87.391,289.773,88.462,289.139z M42.807,318.781  c1.032-0.663,1.333-2.026,0.671-3.059c-0.014-0.02-0.029-0.041-0.043-0.062c-0.616-1.027-1.945-1.362-2.968-0.753  c-0.037,0.023-0.07,0.039-0.1,0.065c-1.025,0.719-1.324,2.106-0.688,3.188C40.376,319.177,41.767,319.457,42.807,318.781z   M153.845,374.044c-0.263-1.205-1.45-1.968-2.659-1.699c-1.204,0.261-1.967,1.451-1.699,2.659c0.259,1.18,1.411,1.939,2.598,1.713  C153.294,376.448,154.075,375.263,153.845,374.044L153.845,374.044z M100.358,383.988c-0.263-1.205-1.45-1.968-2.659-1.699  c-1.204,0.261-1.966,1.451-1.699,2.659c0.259,1.18,1.411,1.939,2.598,1.713C99.803,386.398,100.588,385.207,100.358,383.988  L100.358,383.988z M41.526,200.276c0.68-1.039,0.409-2.432-0.626-3.129c-0.994-0.698-2.361-0.448-3.059,0.546  c-0.005,0.006-0.009,0.012-0.014,0.018c-0.735,0.938-0.567,2.291,0.37,3.027c0.045,0.034,0.089,0.067,0.142,0.107  C39.39,201.508,40.769,201.268,41.526,200.276z M10.695,245.13c0.668-1.048,0.421-2.432-0.564-3.184  c-1.039-0.68-2.435-0.402-3.129,0.626c-0.696,1.018-0.436,2.412,0.582,3.105c0.012,0.009,0.026,0.02,0.033,0.024  c0.994,0.698,2.361,0.448,3.054-0.54C10.685,245.142,10.69,245.136,10.695,245.13z M162.2,426.728  c-0.102-1.094-1.063-1.906-2.16-1.826c-1.096,0.091-1.914,1.058-1.827,2.16c0.087,1.102,1.058,1.914,2.16,1.826l0,0  C161.467,428.783,162.28,427.824,162.2,426.728z M67.187,247.072c0.69-0.892,0.568-2.16-0.283-2.902  c-0.816-0.694-2.038-0.596-2.733,0.219c-0.02,0.026-0.034,0.045-0.053,0.071c-0.728,0.832-0.64,2.096,0.197,2.815  c0.012,0.009,0.018,0.014,0.033,0.024C65.2,247.973,66.44,247.879,67.187,247.072L67.187,247.072z M36.019,284.183  c0.69-0.85,0.56-2.096-0.28-2.788c-0.816-0.694-2.038-0.596-2.733,0.219c-0.02,0.026-0.034,0.045-0.053,0.071  c-0.728,0.832-0.64,2.096,0.19,2.822c0.012,0.009,0.018,0.014,0.033,0.024C34.06,285.195,35.32,285.045,36.019,284.183  L36.019,284.183z M4.802,321.466c0.728-0.832,0.64-2.096-0.19-2.822c-0.012-0.009-0.018-0.014-0.033-0.024  c-0.772-0.702-1.969-0.636-2.67,0.136c-0.044,0.047-0.084,0.098-0.122,0.149c-0.728,0.832-0.64,2.096,0.19,2.822  c0.012,0.009,0.018,0.014,0.033,0.024C2.867,322.406,4.096,322.285,4.802,321.466L4.802,321.466z M112.238,343.501  c0.962-0.544,1.321-1.756,0.797-2.732c-0.506-0.975-1.697-1.356-2.671-0.853c-0.972,0.527-1.376,1.723-0.914,2.726  C109.989,343.639,111.225,344.016,112.238,343.501L112.238,343.501z M69.143,365.915c0.959-0.458,1.371-1.606,0.913-2.565  c-0.017-0.032-0.037-0.069-0.05-0.107c-0.506-0.975-1.697-1.356-2.671-0.853c-0.972,0.527-1.376,1.723-0.914,2.726  C66.954,366.079,68.165,366.438,69.143,365.915L69.143,365.915z M203.933,396.461c1.103-0.651,1.51-2.045,0.917-3.187  c-0.602-1.127-1.996-1.563-3.125-0.972c-1.117,0.64-1.526,2.053-0.917,3.187C201.41,396.615,202.804,397.051,203.933,396.461  L203.933,396.461z M154.464,422.848c1.133-0.597,1.563-1.996,0.972-3.125c-0.591-1.129-1.996-1.563-3.125-0.972  c-1.133,0.597-1.563,1.996-0.972,3.125C151.937,423.01,153.336,423.44,154.464,422.848L154.464,422.848z M22.645,245.371  c0.34-1.254-0.355-2.553-1.591-2.958c-1.248-0.335-2.534,0.41-2.863,1.663c-0.323,1.206,0.363,2.448,1.548,2.827  C20.96,247.247,22.24,246.577,22.645,245.371L22.645,245.371z M6.364,299c0.344-1.221-0.325-2.5-1.531-2.903  c-1.225-0.379-2.525,0.306-2.903,1.531c-0.379,1.225,0.306,2.525,1.531,2.903C4.682,300.886,5.97,300.203,6.364,299L6.364,299z   M114.649,325.751c0.757-1.02,0.607-2.453-0.334-3.302c-1.012-0.771-2.451-0.595-3.247,0.396c-0.819,0.954-0.714,2.393,0.248,3.216  c0.012,0.009,0.026,0.02,0.039,0.029C112.35,326.91,113.821,326.758,114.649,325.751  C114.645,325.757,114.649,325.751,114.649,325.751L114.649,325.751z M79.041,369.113c0.818-1.006,0.668-2.48-0.328-3.298  c0,0,0,0-0.006-0.005c-0.968-0.789-2.4-0.639-3.181,0.334l0,0c-0.808,0.981-0.674,2.433,0.303,3.238  C76.785,370.197,78.222,370.067,79.041,369.113L79.041,369.113z M149.498,342.006c0.816-0.966,0.692-2.419-0.28-3.24  c-0.972-0.824-2.419-0.692-3.242,0.279c-0.792,0.946-0.702,2.352,0.213,3.181C147.173,343.076,148.646,342.977,149.498,342.006  L149.498,342.006z M112.303,383.663c0.845-0.975,0.746-2.449-0.225-3.3c-0.952-0.808-2.38-0.732-3.245,0.165  c-0.836,0.992-0.761,2.457,0.164,3.356C109.986,384.707,111.436,384.6,112.303,383.663L112.303,383.663z M37.641,308.479  c0.395-1.222-0.261-2.543-1.476-2.963c-1.195-0.406-2.496,0.226-2.902,1.42c-0.457,1.157,0.107,2.467,1.263,2.925  c0.031,0.014,0.06,0.026,0.097,0.032c1.196,0.458,2.537-0.145,2.987-1.347C37.626,308.529,37.634,308.505,37.641,308.479  L37.641,308.479z"/>
<g style="opacity:0.26;">
	<polygon style="fill:none;" points="211.716,598.511 211.716,464.99 195.502,448.775 195.502,598.511  "/>
	<polygon style="fill:none;" points="241.774,598.511 241.774,495.047 225.559,478.833 225.559,598.511  "/>
	<polygon style="fill:none;" points="301.889,598.511 301.889,555.163 285.675,538.948 285.675,598.511  "/>
	<polygon style="fill:none;" points="181.658,434.932 168.057,421.331 168.057,598.511 181.658,598.511  "/>
	<polygon style="fill:none;" points="331.947,598.511 331.947,585.22 315.733,569.007 315.733,598.511  "/>
	<polygon style="fill:none;" points="271.831,598.511 271.831,525.105 255.617,508.891 255.617,598.511  "/>
	<polygon style="fill:#FFFFFF;" points="345.238,598.511 331.947,585.22 331.947,598.511  "/>
	<polygon style="fill:#FFFFFF;" points="315.733,598.511 315.733,569.007 301.889,555.163 301.889,598.511  "/>
	<polygon style="fill:#FFFFFF;" points="285.675,598.511 285.675,538.948 271.831,525.105 271.831,598.511  "/>
	<polygon style="fill:#FFFFFF;" points="255.617,598.511 255.617,508.891 241.774,495.047 241.774,598.511  "/>
	<polygon style="fill:#FFFFFF;" points="225.559,598.511 225.559,478.833 211.716,464.99 211.716,598.511  "/>
	<polygon style="fill:#FFFFFF;" points="195.502,598.511 195.502,448.775 181.658,434.932 181.658,598.511  "/>
</g>
<g style="opacity:0.26;">
	<polygon style="fill:none;" points="321.211,526.942 381.241,586.972 387.742,580.472 334.212,526.942  "/>
	<polygon style="fill:none;" points="393.513,526.942 417.392,550.821 423.893,544.32 406.514,526.942  "/>
	<polygon style="fill:none;" points="369.413,526.942 405.342,562.871 411.843,556.371 382.413,526.942  "/>
	<polygon style="fill:none;" points="299.206,526.942 370.239,597.975 375.692,592.523 310.111,526.942  "/>
	<polygon style="fill:none;" points="417.614,526.942 429.443,538.771 435.943,532.27 430.615,526.942  "/>
	<polygon style="fill:none;" points="345.312,526.942 393.291,574.922 399.792,568.422 358.313,526.942  "/>
	<polygon style="fill:#FFFFFF;" points="435.943,532.27 441.272,526.942 430.615,526.942  "/>
	<polygon style="fill:#FFFFFF;" points="406.514,526.942 423.893,544.32 429.443,538.771 417.614,526.942  "/>
	<polygon style="fill:#FFFFFF;" points="382.413,526.942 411.843,556.371 417.392,550.821 393.513,526.942  "/>
	<polygon style="fill:#FFFFFF;" points="358.313,526.942 399.792,568.422 405.342,562.871 369.413,526.942  "/>
	<polygon style="fill:#FFFFFF;" points="334.212,526.942 387.742,580.472 393.291,574.922 345.312,526.942  "/>
	<polygon style="fill:#FFFFFF;" points="310.111,526.942 375.692,592.523 381.241,586.972 321.211,526.942  "/>
</g>
<g>
	<path style="opacity:0.45;fill:#D9E021;enable-background:new    ;" d="M66.916,375.481l-14.734-10.134   C55.113,369.315,60.254,372.801,66.916,375.481z"/>
	<path style="opacity:0.45;fill:#D9E021;enable-background:new    ;" d="M49.648,359.818l27.36,18.82   c1.293,0.306,2.618,0.586,3.972,0.84l-31.54-21.696C49.447,358.468,49.518,359.147,49.648,359.818z"/>
	<path style="opacity:0.45;fill:#D9E021;enable-background:new    ;" d="M49.942,354.341l38.052,26.175   c1.052,0.117,2.115,0.217,3.191,0.302l-40.68-27.983C50.283,353.332,50.096,353.834,49.942,354.341z"/>
	<path style="opacity:0.45;fill:#D9E021;enable-background:new    ;" d="M52.08,350.133l45.048,30.987   c0.817,0.018,1.638,0.028,2.465,0.028c0.109,0,0.216-0.002,0.325-0.002l-46.866-32.238   C52.705,349.312,52.379,349.719,52.08,350.133z"/>
	<path style="opacity:0.45;fill:#D9E021;enable-background:new    ;" d="M55.289,346.661l49.922,34.34   c0.846-0.044,1.685-0.098,2.517-0.162l-51.191-35.213C56.102,345.966,55.686,346.311,55.289,346.661z"/>
	<path style="opacity:0.45;fill:#D9E021;enable-background:new    ;" d="M59.261,343.715l53.27,36.643   c0.773-0.096,1.538-0.201,2.296-0.314l-54.098-37.213C60.226,343.121,59.736,343.415,59.261,343.715z"/>
	<path style="opacity:0.45;fill:#D9E021;enable-background:new    ;" d="M63.859,341.199l55.363,38.082   c0.709-0.142,1.411-0.29,2.104-0.446l-55.808-38.389C64.953,340.692,64.4,340.943,63.859,341.199z"/>
	<path style="opacity:0.45;fill:#D9E021;enable-background:new    ;" d="M69.011,339.064l56.339,38.754   c0.652-0.183,1.293-0.373,1.925-0.569l-56.43-38.817C70.223,338.638,69.612,338.848,69.011,339.064z"/>
	<path style="opacity:0.45;fill:#D9E021;enable-background:new    ;" d="M74.687,337.29l56.265,38.703   c0.595-0.223,1.179-0.453,1.751-0.688l-56.006-38.526C76.017,336.942,75.347,337.113,74.687,337.29z"/>
	<path style="opacity:0.45;fill:#D9E021;enable-background:new    ;" d="M80.895,335.882l55.131,37.923   c0.536-0.265,1.06-0.536,1.57-0.813l-54.508-37.495C82.349,335.618,81.618,335.746,80.895,335.882z"/>
	<path style="opacity:0.45;fill:#D9E021;enable-background:new    ;" d="M87.671,334.864l52.869,36.368   c0.472-0.312,0.928-0.629,1.368-0.952l-51.841-35.66C89.262,334.692,88.463,334.774,87.671,334.864z"/>
	<path style="opacity:0.45;fill:#D9E021;enable-background:new    ;" d="M95.092,334.29l49.321,33.926   c0.395-0.367,0.77-0.741,1.125-1.119l-47.807-32.885C96.845,334.228,95.966,334.254,95.092,334.29z"/>
	<path style="opacity:0.45;fill:#D9E021;enable-background:new    ;" d="M103.302,334.259l44.189,30.397   c0.294-0.443,0.558-0.892,0.796-1.345l-42.026-28.908C105.284,334.341,104.298,334.293,103.302,334.259z"/>
	<path style="opacity:0.45;fill:#D9E021;enable-background:new    ;" d="M112.632,334.998l36.798,25.313   c0.134-0.562,0.226-1.131,0.274-1.705L116.114,335.5C114.972,335.314,113.81,335.146,112.632,334.998z"/>
	<path style="opacity:0.45;fill:#D9E021;enable-background:new    ;" d="M128.908,338.622c-1.555-0.526-3.178-1.01-4.861-1.45   l25.255,17.373c-0.255-0.896-0.616-1.775-1.081-2.637L128.908,338.622z"/>
</g>
<g>
	<path style="opacity:0.45;fill:#FFFFFF;enable-background:new    ;" d="M512.03,498.682l-22.935-15.776   C493.659,489.082,501.66,494.508,512.03,498.682z"/>
	<path style="opacity:0.45;fill:#FFFFFF;enable-background:new    ;" d="M485.151,474.299l42.591,29.297   c2.013,0.476,4.076,0.913,6.184,1.307l-49.098-33.773C484.839,472.197,484.949,473.254,485.151,474.299z"/>
	<path style="opacity:0.45;fill:#FFFFFF;enable-background:new    ;" d="M485.609,465.774l59.234,40.746   c1.636,0.181,3.293,0.338,4.967,0.47l-63.325-43.56C486.139,464.202,485.848,464.984,485.609,465.774z"/>
	<path style="opacity:0.45;fill:#FFFFFF;enable-background:new    ;" d="M488.936,459.223l70.124,48.236   c1.272,0.029,2.55,0.044,3.837,0.044c0.169,0,0.338-0.002,0.507-0.003l-72.955-50.184   C489.91,457.943,489.402,458.579,488.936,459.223z"/>
	<path style="opacity:0.45;fill:#FFFFFF;enable-background:new    ;" d="M493.931,453.818l77.712,53.456   c1.316-0.069,2.622-0.152,3.918-0.251l-79.687-54.815C495.197,452.736,494.55,453.273,493.931,453.818z"/>
	<path style="opacity:0.45;fill:#FFFFFF;enable-background:new    ;" d="M500.115,449.232l82.923,57.041   c1.203-0.15,2.394-0.312,3.574-0.488L502.4,447.858C501.616,448.307,500.854,448.765,500.115,449.232z"/>
	<path style="opacity:0.45;fill:#FFFFFF;enable-background:new    ;" d="M507.273,445.316l86.181,59.281   c1.105-0.22,2.197-0.451,3.274-0.694l-86.874-59.758C508.975,444.526,508.114,444.917,507.273,445.316z"/>
	<path style="opacity:0.45;fill:#FFFFFF;enable-background:new    ;" d="M515.292,441.993l87.701,60.327   c1.014-0.285,2.012-0.58,2.996-0.885l-87.842-60.424C517.179,441.327,516.227,441.656,515.292,441.993z"/>
	<path style="opacity:0.45;fill:#FFFFFF;enable-background:new    ;" d="M524.127,439.23l87.585,60.248   c0.926-0.347,1.835-0.705,2.726-1.071l-87.183-59.971C526.198,438.689,525.156,438.955,524.127,439.23z"/>
	<path style="opacity:0.45;fill:#FFFFFF;enable-background:new    ;" d="M533.792,437.039l85.82,59.033   c0.835-0.413,1.651-0.834,2.444-1.266l-84.851-58.366C536.055,436.627,534.918,436.827,533.792,437.039z"/>
	<path style="opacity:0.45;fill:#FFFFFF;enable-background:new    ;" d="M544.34,435.454l82.299,56.611   c0.735-0.485,1.445-0.98,2.129-1.482l-80.697-55.51C546.815,435.187,545.572,435.313,544.34,435.454z"/>
	<path style="opacity:0.45;fill:#FFFFFF;enable-background:new    ;" d="M555.891,434.56l76.775,52.812   c0.616-0.572,1.199-1.153,1.751-1.742l-74.418-51.191C558.622,434.463,557.252,434.504,555.891,434.56z"/>
	<path style="opacity:0.45;fill:#FFFFFF;enable-background:new    ;" d="M568.672,434.512l68.787,47.317   c0.458-0.689,0.868-1.388,1.24-2.094l-65.42-45.001C571.757,434.64,570.221,434.565,568.672,434.512z"/>
	<path style="opacity:0.45;fill:#FFFFFF;enable-background:new    ;" d="M583.196,435.663l57.283,39.403   c0.21-0.876,0.352-1.76,0.427-2.653l-52.289-35.968C586.837,436.154,585.03,435.893,583.196,435.663z"/>
	<path style="opacity:0.45;fill:#FFFFFF;enable-background:new    ;" d="M608.533,441.305c-2.422-0.818-4.948-1.572-7.566-2.258   l39.314,27.043c-0.396-1.394-0.96-2.764-1.682-4.104L608.533,441.305z"/>
</g>
<g>
	<path style="fill:none;" d="M112.829,444.819l27.624,19.002c0.764-0.114,1.513-0.244,2.244-0.389l-28.27-19.446   C113.867,444.251,113.333,444.529,112.829,444.819z"/>
	<path style="fill:none;" d="M107.063,452.397c0,0.019,0.002,0.037,0.002,0.056l16.105,11.079c1.154,0.216,2.351,0.394,3.581,0.53   l-19.431-13.366C107.152,451.252,107.063,451.819,107.063,452.397z"/>
	<path style="fill:none;" d="M115.273,443.601l28.498,19.603c0.704-0.159,1.389-0.332,2.055-0.52l-28.769-19.79   C116.44,443.118,115.845,443.354,115.273,443.601z"/>
	<path style="fill:none;" d="M108.464,456.316l7.523,5.175c1.565,0.629,3.294,1.172,5.154,1.612l-13.971-9.61   C107.36,454.473,107.801,455.418,108.464,456.316z"/>
	<path style="fill:none;" d="M107.608,449.927l20.773,14.289c0.994,0.078,2.006,0.131,3.034,0.154l-23.003-15.824   C108.087,448.995,107.819,449.456,107.608,449.927z"/>
	<path style="fill:none;" d="M110.688,446.246l26.14,17.981c0.832-0.063,1.65-0.146,2.453-0.246l-27.202-18.711   C111.582,445.584,111.118,445.909,110.688,446.246z"/>
	<path style="fill:none;" d="M108.908,447.922l23.932,16.462c0.913-0.003,1.814-0.028,2.702-0.074l-25.492-17.536   C109.629,447.146,109.247,447.528,108.908,447.922z"/>
	<path style="fill:none;" d="M120.981,441.728l28.599,19.672c0.591-0.243,1.157-0.498,1.697-0.766l-28.152-19.365   C122.394,441.407,121.679,441.561,120.981,441.728z"/>
	<path style="fill:none;" d="M124.246,441.074l27.834,19.146c0.53-0.288,1.033-0.588,1.503-0.899l-26.997-18.57   C125.791,440.841,125.01,440.949,124.246,441.074z"/>
	<path style="fill:none;" d="M141.11,441.075l17.152,11.799c0.013-0.159,0.022-0.317,0.022-0.477c0-0.542-0.078-1.074-0.227-1.597   l-12.897-8.871C143.875,441.592,142.521,441.305,141.11,441.075z"/>
	<path style="fill:none;" d="M127.81,440.626l26.472,18.209c0.463-0.34,0.89-0.691,1.279-1.053l-25.185-17.324   C129.507,440.493,128.651,440.549,127.81,440.626z"/>
	<path style="fill:none;" d="M132.673,440.408c-0.319,0-0.635,0.004-0.95,0.009l24.412,16.792c0.379-0.405,0.714-0.821,0.997-1.247   l-22.565-15.522C133.943,440.42,133.311,440.408,132.673,440.408z"/>
	<path style="fill:none;" d="M147.644,442.669l9.862,6.784C156.012,446.682,152.455,444.295,147.644,442.669z"/>
	<path style="fill:none;" d="M117.994,442.573l28.815,19.822c0.647-0.201,1.273-0.415,1.878-0.642l-28.731-19.763   C119.282,442.169,118.628,442.365,117.994,442.573z"/>
	<path style="fill:none;" d="M136.08,440.514l21.46,14.762c0.263-0.499,0.459-1.01,0.584-1.532l-18.791-12.926   C138.273,440.686,137.188,440.583,136.08,440.514z"/>
	<path style="opacity:0.45;fill:#A1C3FC;enable-background:new    ;" d="M115.987,461.491l-7.523-5.175   C109.961,458.342,112.586,460.122,115.987,461.491z"/>
	<path style="opacity:0.45;fill:#A1C3FC;enable-background:new    ;" d="M107.17,453.493l13.971,9.61   c0.661,0.156,1.337,0.299,2.028,0.429l-16.105-11.079C107.067,452.803,107.104,453.15,107.17,453.493z"/>
	<path style="opacity:0.45;fill:#A1C3FC;enable-background:new    ;" d="M107.32,450.696l19.431,13.366   c0.536,0.059,1.081,0.111,1.629,0.154l-20.773-14.289C107.494,450.18,107.399,450.437,107.32,450.696z"/>
	<path style="opacity:0.45;fill:#A1C3FC;enable-background:new    ;" d="M108.412,448.547l23.003,15.965   c0.417,0.009,0.837,0.156,1.259,0.156c0.056,0,0.11,0,0.166,0l-23.932-16.605C108.731,448.27,108.565,448.335,108.412,448.547z"/>
	<path style="opacity:0.45;fill:#A1C3FC;enable-background:new    ;" d="M110.05,446.774l25.492,17.536   c0.432-0.023,0.86-0.05,1.285-0.082l-26.14-17.981C110.466,446.419,110.253,446.595,110.05,446.774z"/>
	<path style="opacity:0.45;fill:#A1C3FC;enable-background:new    ;" d="M112.079,445.27l27.202,18.712   c0.395-0.05,0.786-0.103,1.172-0.16l-27.624-19.002C112.571,444.967,112.321,445.117,112.079,445.27z"/>
	<path style="opacity:0.45;fill:#A1C3FC;enable-background:new    ;" d="M114.427,443.985l28.27,19.446   c0.362-0.072,0.721-0.148,1.074-0.228L115.273,443.6C114.985,443.726,114.703,443.854,114.427,443.985z"/>
	<path style="opacity:0.45;fill:#A1C3FC;enable-background:new    ;" d="M117.058,442.895l28.769,19.79   c0.333-0.094,0.66-0.19,0.983-0.29l-28.815-19.822C117.677,442.677,117.364,442.784,117.058,442.895z"/>
	<path style="opacity:0.45;fill:#A1C3FC;enable-background:new    ;" d="M119.956,441.989l28.731,19.763   c0.304-0.114,0.602-0.231,0.895-0.351l-28.599-19.672C120.636,441.811,120.293,441.898,119.956,441.989z"/>
	<path style="opacity:0.45;fill:#A1C3FC;enable-background:new    ;" d="M123.126,441.27l28.152,19.365   c0.274-0.136,0.541-0.274,0.802-0.415l-27.834-19.146C123.869,441.135,123.495,441.2,123.126,441.27z"/>
	<path style="opacity:0.45;fill:#A1C3FC;enable-background:new    ;" d="M126.586,440.75l26.997,18.57   c0.241-0.159,0.474-0.322,0.699-0.486l-26.472-18.209C127.398,440.662,126.991,440.704,126.586,440.75z"/>
	<path style="opacity:0.45;fill:#A1C3FC;enable-background:new    ;" d="M130.375,440.457l25.185,17.324   c0.202-0.187,0.393-0.378,0.575-0.572l-24.412-16.792C131.271,440.425,130.822,440.438,130.375,440.457z"/>
	<path style="opacity:0.45;fill:#A1C3FC;enable-background:new    ;" d="M134.568,440.441l22.565,15.522   c0.15-0.226,0.285-0.455,0.407-0.687l-21.46-14.762C135.58,440.483,135.076,440.459,134.568,440.441z"/>
	<path style="opacity:0.45;fill:#A1C3FC;enable-background:new    ;" d="M139.333,440.818l18.791,12.926   c0.069-0.287,0.116-0.578,0.14-0.87l-17.152-11.799C140.527,440.98,139.934,440.894,139.333,440.818z"/>
	<path style="opacity:0.45;fill:#A1C3FC;enable-background:new    ;" d="M147.644,442.669c-0.794-0.268-1.623-0.516-2.482-0.741   l12.897,8.871c-0.13-0.457-0.315-0.907-0.552-1.346L147.644,442.669z"/>
</g>
<g>
	<g>
		<path style="fill:#FFFFFF;" d="M635.42,536.669c-4.276,0-7.755-3.478-7.755-7.755c0-4.277,3.479-7.756,7.755-7.756    c4.277,0,7.756,3.479,7.756,7.756C643.174,533.191,639.696,536.669,635.42,536.669z M635.42,522.227c-3.687,0-6.687,3-6.687,6.688    c0,3.687,3,6.687,6.687,6.687c3.688,0,6.688-3,6.688-6.687S639.108,522.227,635.42,522.227z"/>
	</g>
	<g>
		<path style="fill:#FFFFFF;" d="M635.42,541.21c-6.779,0-12.295-5.516-12.295-12.295c0-6.78,5.516-12.296,12.295-12.296    c6.78,0,12.296,5.516,12.296,12.296C647.715,535.694,642.199,541.21,635.42,541.21z M635.42,517.686    c-6.191,0-11.228,5.038-11.228,11.229c0,6.191,5.037,11.228,11.228,11.228c6.191,0,11.229-5.037,11.229-11.228    C646.648,522.723,641.611,517.686,635.42,517.686z"/>
	</g>
	<g>
		<path style="fill:#FFFFFF;" d="M635.42,546.318c-9.596,0-17.403-7.807-17.403-17.403c0-9.597,7.807-17.405,17.403-17.405    c9.596,0,17.405,7.807,17.405,17.405C652.824,538.511,645.016,546.318,635.42,546.318z M635.42,512.577    c-9.008,0-16.336,7.329-16.336,16.337s7.328,16.336,16.336,16.336s16.337-7.328,16.337-16.336S644.427,512.577,635.42,512.577z"/>
	</g>
	<g>
		<path style="fill:#FFFFFF;" d="M635.42,551.994c-12.726,0-23.08-10.353-23.08-23.078c0-12.726,10.353-23.08,23.08-23.08    s23.08,10.353,23.08,23.08C658.499,541.641,648.146,551.994,635.42,551.994z M635.42,506.902    c-12.138,0-22.012,9.875-22.012,22.012c0,12.138,9.875,22.012,22.012,22.012c12.137,0,22.012-9.874,22.012-22.012    C657.432,516.778,647.557,506.902,635.42,506.902z"/>
	</g>
	<g>
		<path style="fill:#FFFFFF;" d="M635.42,557.102c-15.542,0-28.188-12.645-28.188-28.188c0-15.543,12.645-28.188,28.188-28.188    c15.543,0,28.188,12.645,28.188,28.188C663.607,544.457,650.963,557.102,635.42,557.102z M635.42,501.794    c-14.954,0-27.12,12.167-27.12,27.121s12.166,27.12,27.12,27.12s27.121-12.166,27.121-27.12S650.374,501.794,635.42,501.794z"/>
	</g>
</g>
<g style="opacity:0.31;">
	<polygon style="fill:none;" points="764.666,440.493 799.835,440.493 799.835,430.919 774.24,430.919  "/>
	<polygon style="fill:none;" points="729.172,475.987 799.835,475.987 799.835,466.414 738.745,466.414  "/>
	<polygon style="fill:none;" points="782.414,422.745 799.835,422.745 799.835,413.172 791.988,413.172  "/>
	<polygon style="fill:none;" points="695.22,509.939 799.835,509.939 799.835,501.909 703.251,501.909  "/>
	<polygon style="fill:none;" points="711.425,493.735 799.835,493.735 799.835,484.161 720.998,484.161  "/>
	<polygon style="fill:none;" points="746.919,458.24 799.835,458.24 799.835,448.667 756.493,448.667  "/>
	<polygon style="fill:#428DFC;" points="799.835,413.172 799.835,405.324 791.988,413.172  "/>
	<polygon style="fill:#428DFC;" points="774.24,430.919 799.835,430.919 799.835,422.745 782.414,422.745  "/>
	<polygon style="fill:#428DFC;" points="756.493,448.667 799.835,448.667 799.835,440.493 764.666,440.493  "/>
	<polygon style="fill:#428DFC;" points="738.745,466.414 799.835,466.414 799.835,458.24 746.919,458.24  "/>
	<polygon style="fill:#428DFC;" points="720.998,484.161 799.835,484.161 799.835,475.987 729.172,475.987  "/>
	<polygon style="fill:#428DFC;" points="703.251,501.909 799.835,501.909 799.835,493.735 711.425,493.735  "/>
</g>
<path id="texture-2_15_-i0" style="fill:#FFFFFF;" d="M117.632,574.156c-0.168-0.093-0.379-0.029-0.472,0.138  c-0.093,0.168-0.029,0.38,0.139,0.472c0.168,0.093,0.379,0.029,0.472-0.138l0,0C117.864,574.46,117.803,574.248,117.632,574.156  L117.632,574.156z M82.134,570.843c-0.054-0.189-0.252-0.298-0.44-0.243l0,0c-0.174,0.044-0.279,0.222-0.235,0.395  c0.002,0.014,0.008,0.03,0.015,0.043c0.049,0.183,0.233,0.292,0.417,0.245C82.076,571.227,82.188,571.032,82.134,570.843  L82.134,570.843L82.134,570.843z M100.005,573.678c0.005-0.195-0.136-0.363-0.328-0.393c-0.197-0.019-0.375,0.128-0.393,0.328  c-0.019,0.197,0.128,0.375,0.328,0.393C99.806,574.008,99.975,573.87,100.005,573.678z M119.649,531.614  c0.053-0.364-0.194-0.705-0.558-0.766c-0.348-0.071-0.688,0.152-0.76,0.498c-0.002,0.013-0.005,0.023-0.006,0.035  c-0.053,0.364,0.194,0.705,0.558,0.766C119.241,532.212,119.585,531.973,119.649,531.614L119.649,531.614z M116.993,547.519  c0.053-0.367-0.201-0.706-0.568-0.757c-0.359-0.052-0.696,0.192-0.755,0.55c-0.065,0.359,0.174,0.701,0.533,0.766l0,0  C116.574,548.124,116.917,547.881,116.993,547.519z M114.318,563.447c0.062-0.359-0.175-0.698-0.534-0.76  c-0.007-0.001-0.015-0.002-0.022-0.003c-0.348-0.071-0.688,0.152-0.76,0.498c-0.002,0.013-0.005,0.023-0.006,0.035  c-0.048,0.368,0.195,0.712,0.559,0.79C113.917,564.058,114.257,563.811,114.318,563.447z M148.672,550.252  c-0.316-0.184-0.721-0.078-0.905,0.241c-0.184,0.315-0.077,0.721,0.241,0.905c0.31,0.18,0.707,0.08,0.895-0.225  C149.088,550.855,148.985,550.446,148.672,550.252L148.672,550.252z M140.119,563.942c-0.316-0.184-0.721-0.078-0.905,0.241  c-0.184,0.315-0.077,0.721,0.241,0.905c0.31,0.18,0.707,0.08,0.895-0.224C140.535,564.547,140.432,564.136,140.119,563.942  L140.119,563.942z M88.149,539.959c-0.091-0.357-0.45-0.577-0.81-0.491c-0.352,0.078-0.571,0.427-0.494,0.779  c0.001,0.002,0.001,0.005,0.002,0.007c0.058,0.349,0.387,0.584,0.736,0.527c0.016-0.003,0.033-0.006,0.052-0.01  C87.989,540.673,88.214,540.323,88.149,539.959z M91.772,555.697c-0.095-0.357-0.447-0.58-0.809-0.515  c-0.357,0.091-0.576,0.452-0.491,0.81c0.083,0.357,0.44,0.579,0.796,0.495c0.005-0.001,0.01-0.002,0.012-0.002  c0.352-0.078,0.571-0.427,0.495-0.776C91.773,555.701,91.773,555.699,91.772,555.697z M95.394,571.409  c-0.071-0.346-0.407-0.571-0.753-0.499c-0.01,0.002-0.021,0.004-0.03,0.008c-0.359,0.069-0.592,0.418-0.523,0.777  c0.002,0.012,0.004,0.021,0.006,0.033c0.086,0.36,0.448,0.582,0.805,0.497c0.36-0.086,0.582-0.448,0.497-0.805  C95.395,571.413,95.394,571.411,95.394,571.409z M161.868,558.992c-0.26-0.197-0.63-0.15-0.833,0.106  c-0.2,0.258-0.152,0.631,0.106,0.833c0.258,0.202,0.631,0.152,0.833-0.106l0,0C162.171,559.564,162.124,559.195,161.868,558.992z   M103.528,543.734c-0.056-0.33-0.359-0.558-0.691-0.52c-0.315,0.04-0.539,0.326-0.5,0.642c0.002,0.01,0.003,0.016,0.005,0.026  c0.036,0.326,0.33,0.56,0.655,0.522c0.005-0.001,0.007-0.002,0.012-0.002C103.326,544.349,103.555,544.059,103.528,543.734  L103.528,543.734z M105.391,557.992c-0.047-0.322-0.346-0.543-0.666-0.498c-0.315,0.04-0.539,0.326-0.5,0.642  c0.002,0.01,0.003,0.016,0.005,0.026c0.036,0.326,0.33,0.56,0.655,0.524c0.005-0.001,0.007-0.002,0.012-0.002  C105.22,558.623,105.439,558.318,105.391,557.992L105.391,557.992z M107.282,572.296c-0.036-0.326-0.33-0.56-0.655-0.524  c-0.005,0.001-0.007,0.002-0.012,0.002c-0.309,0.028-0.534,0.303-0.506,0.611c0.002,0.019,0.005,0.038,0.008,0.056  c0.036,0.326,0.33,0.56,0.655,0.524c0.005-0.001,0.007-0.002,0.012-0.002C107.099,572.908,107.32,572.615,107.282,572.296  L107.282,572.296z M133.649,553.224c0.074-0.319-0.119-0.641-0.437-0.722c-0.315-0.085-0.637,0.099-0.722,0.413  c-0.079,0.319,0.101,0.647,0.413,0.747C133.228,553.743,133.558,553.548,133.649,553.224L133.649,553.224z M129.907,567.143  c0.092-0.302-0.076-0.622-0.378-0.714c-0.011-0.003-0.023-0.005-0.034-0.011c-0.315-0.085-0.637,0.099-0.722,0.413  c-0.079,0.319,0.101,0.647,0.413,0.747C129.504,567.654,129.824,567.461,129.907,567.143L129.907,567.143z M78.863,559.534  c-0.15-0.274-0.491-0.373-0.765-0.225c-0.011,0.007-0.022,0.011-0.03,0.018c-0.287,0.155-0.395,0.515-0.239,0.804  c0.004,0.006,0.007,0.013,0.01,0.018c0.175,0.276,0.536,0.367,0.822,0.205c0.281-0.159,0.378-0.517,0.219-0.798  C78.874,559.549,78.867,559.543,78.863,559.534L78.863,559.534z M86.075,572.015c-0.167-0.285-0.531-0.387-0.822-0.229  c-0.283,0.174-0.375,0.546-0.2,0.829c0.165,0.271,0.513,0.367,0.793,0.219c0.286-0.15,0.397-0.506,0.246-0.792  C86.089,572.035,86.082,572.024,86.075,572.015L86.075,572.015z M163.62,543.796c0.079-0.372-0.144-0.741-0.513-0.84  c-0.367-0.094-0.742,0.123-0.839,0.488c-0.084,0.373,0.143,0.745,0.513,0.84C163.149,544.378,163.523,544.161,163.62,543.796  L163.62,543.796z M159.469,559.906c0.097-0.367-0.123-0.742-0.488-0.839c-0.365-0.097-0.742,0.123-0.839,0.488  c-0.097,0.367,0.123,0.742,0.488,0.839C158.996,560.491,159.371,560.271,159.469,559.906L159.469,559.906z M94.222,553.132  c-0.206-0.326-0.629-0.434-0.966-0.245c-0.324,0.206-0.418,0.636-0.21,0.959c0.199,0.312,0.608,0.411,0.928,0.229  C94.294,553.877,94.405,553.462,94.222,553.132L94.222,553.132z M102.683,567.448c-0.198-0.32-0.612-0.431-0.942-0.248  c-0.328,0.192-0.44,0.613-0.248,0.942c0.192,0.328,0.613,0.44,0.942,0.248C102.758,568.194,102.867,567.776,102.683,567.448  L102.683,567.448z M130.251,549.136c-0.071-0.37-0.415-0.625-0.789-0.589c-0.372,0.066-0.622,0.417-0.565,0.789  c0.044,0.37,0.38,0.636,0.753,0.591c0.005-0.001,0.01-0.002,0.014-0.002C130.043,549.872,130.305,549.52,130.251,549.136  C130.252,549.139,130.251,549.136,130.251,549.136L130.251,549.136z M132.591,565.62c-0.056-0.38-0.408-0.643-0.787-0.59  c0,0,0,0-0.002,0.001c-0.367,0.053-0.621,0.396-0.565,0.763l0,0c0.053,0.373,0.397,0.635,0.769,0.583  C132.376,566.331,132.635,565.99,132.591,565.62L132.591,565.62z M140.796,544.777c-0.047-0.372-0.39-0.636-0.764-0.589  c-0.375,0.047-0.636,0.39-0.589,0.765c0.048,0.363,0.373,0.625,0.738,0.591C140.563,545.499,140.837,545.157,140.796,544.777  L140.796,544.777z M142.444,561.265c-0.043-0.38-0.386-0.655-0.767-0.613c-0.368,0.046-0.637,0.373-0.615,0.743  c0.05,0.382,0.385,0.659,0.767,0.637C142.207,561.981,142.475,561.642,142.444,561.265L142.444,561.265z M111.029,562.511  c-0.188-0.331-0.608-0.453-0.944-0.272c-0.328,0.18-0.451,0.591-0.271,0.92c0.162,0.332,0.561,0.472,0.893,0.31  c0.009-0.004,0.018-0.008,0.027-0.014c0.34-0.17,0.477-0.584,0.305-0.924C111.037,562.524,111.034,562.518,111.029,562.511  L111.029,562.511z"/>
<path id="texture-2_16_-i0" style="fill:#FFFFFF;" d="M749.891,593.519c0.168-0.093,0.379-0.029,0.472,0.138  c0.093,0.168,0.029,0.379-0.139,0.472c-0.168,0.093-0.379,0.029-0.472-0.138l0,0C749.661,593.823,749.721,593.612,749.891,593.519  L749.891,593.519z M785.39,590.206c0.054-0.189,0.252-0.298,0.44-0.243l0,0c0.174,0.044,0.279,0.222,0.235,0.396  c-0.002,0.014-0.008,0.03-0.015,0.043c-0.049,0.183-0.234,0.292-0.417,0.245C785.447,590.59,785.336,590.395,785.39,590.206  L785.39,590.206L785.39,590.206z M767.519,593.041c-0.005-0.195,0.136-0.363,0.328-0.393c0.197-0.019,0.375,0.128,0.393,0.328  c0.019,0.197-0.128,0.375-0.328,0.393C767.717,593.371,767.55,593.234,767.519,593.041z M747.875,550.977  c-0.053-0.364,0.194-0.705,0.558-0.766c0.348-0.071,0.688,0.152,0.76,0.498c0.002,0.013,0.005,0.023,0.006,0.035  c0.053,0.364-0.194,0.705-0.558,0.766C748.284,551.575,747.939,551.336,747.875,550.977L747.875,550.977z M750.531,566.882  c-0.053-0.367,0.201-0.706,0.568-0.757c0.359-0.053,0.696,0.192,0.755,0.55c0.065,0.359-0.174,0.701-0.533,0.766l0,0  C750.95,567.487,750.607,567.244,750.531,566.882z M753.206,582.81c-0.063-0.359,0.175-0.698,0.534-0.76  c0.007-0.001,0.015-0.002,0.022-0.003c0.348-0.071,0.688,0.152,0.76,0.498c0.002,0.013,0.005,0.023,0.006,0.035  c0.048,0.368-0.195,0.712-0.559,0.79C753.608,583.421,753.267,583.174,753.206,582.81z M718.852,569.615  c0.316-0.184,0.721-0.078,0.905,0.241c0.184,0.315,0.077,0.721-0.241,0.905c-0.31,0.18-0.707,0.08-0.895-0.225  C718.436,570.218,718.539,569.809,718.852,569.615L718.852,569.615z M727.405,583.305c0.316-0.184,0.721-0.078,0.905,0.241  c0.184,0.315,0.077,0.721-0.241,0.905c-0.31,0.18-0.707,0.08-0.895-0.224C726.99,583.91,727.093,583.499,727.405,583.305  L727.405,583.305z M779.376,559.322c0.091-0.357,0.45-0.578,0.81-0.491c0.352,0.078,0.572,0.427,0.494,0.779  c0,0.002-0.001,0.005-0.001,0.007c-0.058,0.349-0.387,0.584-0.736,0.527c-0.016-0.003-0.033-0.006-0.052-0.01  C779.534,560.036,779.31,559.686,779.376,559.322z M775.752,575.06c0.095-0.357,0.447-0.58,0.809-0.515  c0.357,0.091,0.576,0.452,0.491,0.81c-0.083,0.357-0.44,0.579-0.796,0.495c-0.005-0.001-0.01-0.002-0.012-0.002  c-0.352-0.078-0.572-0.427-0.495-0.776C775.751,575.065,775.751,575.062,775.752,575.06z M772.131,590.772  c0.071-0.346,0.407-0.571,0.753-0.499c0.01,0.002,0.021,0.004,0.03,0.008c0.359,0.069,0.592,0.418,0.523,0.777  c-0.002,0.012-0.004,0.021-0.006,0.033c-0.086,0.36-0.448,0.582-0.805,0.497c-0.36-0.086-0.582-0.448-0.497-0.805  C772.129,590.776,772.13,590.774,772.131,590.772z M705.656,578.355c0.26-0.197,0.63-0.15,0.833,0.106  c0.2,0.258,0.152,0.631-0.106,0.833c-0.258,0.202-0.631,0.152-0.833-0.106l0,0C705.354,578.928,705.4,578.558,705.656,578.355z   M763.996,563.097c0.056-0.33,0.359-0.558,0.691-0.52c0.315,0.04,0.539,0.326,0.5,0.642c-0.002,0.01-0.003,0.016-0.005,0.026  c-0.036,0.326-0.33,0.56-0.655,0.522c-0.005-0.001-0.007-0.002-0.012-0.002C764.198,563.712,763.97,563.422,763.996,563.097  L763.996,563.097z M762.133,577.355c0.047-0.322,0.346-0.542,0.666-0.498c0.315,0.04,0.539,0.326,0.5,0.642  c-0.002,0.01-0.003,0.016-0.005,0.026c-0.036,0.326-0.33,0.56-0.655,0.524c-0.005-0.001-0.007-0.002-0.012-0.002  C762.305,577.987,762.085,577.681,762.133,577.355L762.133,577.355z M760.242,591.659c0.036-0.326,0.33-0.56,0.655-0.524  c0.005,0.001,0.007,0.002,0.012,0.002c0.308,0.028,0.534,0.303,0.506,0.611c-0.002,0.019-0.005,0.038-0.008,0.056  c-0.036,0.326-0.33,0.56-0.655,0.524c-0.005-0.001-0.007-0.002-0.012-0.002C760.424,592.271,760.204,591.978,760.242,591.659  L760.242,591.659z M733.875,572.587c-0.074-0.319,0.119-0.641,0.437-0.722c0.315-0.085,0.637,0.099,0.722,0.413  c0.079,0.318-0.101,0.647-0.413,0.747C734.296,573.106,733.966,572.912,733.875,572.587L733.875,572.587z M737.618,586.506  c-0.092-0.302,0.076-0.622,0.378-0.714c0.011-0.003,0.023-0.006,0.034-0.011c0.315-0.085,0.637,0.099,0.722,0.413  c0.079,0.318-0.101,0.647-0.413,0.747C738.021,587.017,737.7,586.824,737.618,586.506L737.618,586.506z M788.661,578.897  c0.15-0.274,0.491-0.373,0.765-0.225c0.011,0.007,0.022,0.011,0.03,0.018c0.287,0.155,0.395,0.515,0.239,0.804  c-0.004,0.006-0.007,0.013-0.01,0.018c-0.175,0.276-0.536,0.367-0.822,0.204c-0.281-0.159-0.378-0.517-0.219-0.798  C788.65,578.912,788.657,578.906,788.661,578.897L788.661,578.897z M781.449,591.378c0.167-0.285,0.531-0.387,0.821-0.229  c0.283,0.174,0.375,0.546,0.2,0.829c-0.165,0.271-0.512,0.367-0.793,0.219c-0.286-0.15-0.397-0.506-0.246-0.792  C781.435,591.398,781.442,591.387,781.449,591.378L781.449,591.378z M703.904,563.159c-0.079-0.372,0.144-0.741,0.513-0.84  c0.367-0.094,0.742,0.123,0.839,0.488c0.084,0.373-0.143,0.745-0.513,0.84C704.376,563.742,704.001,563.524,703.904,563.159  L703.904,563.159z M708.056,579.268c-0.097-0.367,0.123-0.742,0.488-0.839c0.366-0.097,0.742,0.123,0.839,0.488  c0.097,0.367-0.123,0.742-0.488,0.839C708.527,579.854,708.153,579.634,708.056,579.268L708.056,579.268z M773.302,572.495  c0.206-0.326,0.629-0.434,0.966-0.245c0.324,0.206,0.418,0.636,0.21,0.959c-0.199,0.312-0.608,0.411-0.929,0.229  C773.23,573.24,773.12,572.826,773.302,572.495L773.302,572.495z M764.841,586.811c0.198-0.32,0.612-0.431,0.942-0.248  c0.328,0.192,0.44,0.613,0.248,0.942c-0.192,0.328-0.613,0.44-0.942,0.248C764.766,587.557,764.657,587.139,764.841,586.811  L764.841,586.811z M737.273,568.499c0.071-0.37,0.415-0.625,0.789-0.589c0.372,0.066,0.622,0.417,0.565,0.789  c-0.044,0.37-0.38,0.636-0.753,0.591c-0.005-0.001-0.01-0.002-0.014-0.002C737.481,569.235,737.219,568.883,737.273,568.499  C737.273,568.502,737.273,568.499,737.273,568.499L737.273,568.499z M734.934,584.983c0.056-0.38,0.408-0.643,0.787-0.59  c0,0,0,0,0.002,0.001c0.367,0.053,0.621,0.396,0.565,0.763l0,0c-0.053,0.373-0.397,0.635-0.769,0.583  C735.148,585.694,734.889,585.353,734.934,584.983L734.934,584.983z M726.728,564.14c0.047-0.372,0.39-0.636,0.764-0.589  c0.375,0.047,0.636,0.39,0.589,0.765c-0.048,0.363-0.373,0.625-0.738,0.591C726.961,564.863,726.687,564.521,726.728,564.14  L726.728,564.14z M725.08,580.628c0.043-0.38,0.386-0.655,0.767-0.613c0.368,0.046,0.637,0.373,0.615,0.743  c-0.049,0.382-0.385,0.659-0.767,0.637C725.317,581.344,725.05,581.006,725.08,580.628L725.08,580.628z M756.495,581.874  c0.188-0.331,0.608-0.453,0.944-0.272c0.328,0.18,0.451,0.591,0.271,0.92c-0.162,0.331-0.561,0.472-0.893,0.31  c-0.009-0.004-0.018-0.008-0.027-0.014c-0.34-0.17-0.477-0.584-0.305-0.924C756.487,581.887,756.491,581.881,756.495,581.874  L756.495,581.874z"/>

</g>
</g>

<!-- ITEM 1 -->
<g transform="translate(272.0 546.0) scale(2.4975 2.5023474178403755) rotate(0.0 199.99999999999997 106.5)">
<g transform="translate(-0.0 -0.0)">

<path id="back_wheel-i1" fill="#23286B" d="M82.286,213c-43.81,0-79.314-35.576-79.314-79.474s35.543-79.474,79.314-79.474  S161.6,89.629,161.6,133.526C161.562,177.385,126.095,212.962,82.286,213z M82.286,58.899c-41.143,0-74.476,33.4-74.476,74.626  s33.371,74.626,74.476,74.626s74.476-33.4,74.476-74.626C156.724,92.339,123.429,58.937,82.286,58.899z"/>
<linearGradient id="back_1_-i1" gradientUnits="userSpaceOnUse" x1="2486.5601" y1="3414.0752" x2="4804.6704" y2="3414.0752" gradientTransform="matrix(0.0741 0 0 0.0741 -184.2541 -164.3088)">
	<stop offset="0" style="stop-color:#23286b"/>
	<stop offset="0.6955" style="stop-color:#031361"/>
	<stop offset="1" style="stop-color:#000e5e"/>
</linearGradient>
<path id="back-i1" fill="url(#back_1_-i1)" d="M82.286,43.86C46.476,43.898,14.096,65.351,0,98.37h5.981  c19.39-42.256,69.257-60.732,111.429-41.34c29.79,13.742,48.914,43.593,48.914,76.459h5.448  C171.733,84.017,131.695,43.936,82.286,43.86z"/>
<linearGradient id="front_1_-i1" gradientUnits="userSpaceOnUse" x1="6349.043" y1="3178.6355" x2="7884.6704" y2="3178.6355" gradientTransform="matrix(0.0741 0 0 0.0741 -184.2541 -164.3088)">
	<stop offset="0" style="stop-color:#23286b"/>
	<stop offset="0.6955" style="stop-color:#031361"/>
	<stop offset="1" style="stop-color:#000e5e"/>
</linearGradient>
<path id="front-i1" fill="url(#front_1_-i1)" d="M317.6,49.356c32.876,0.038,62.743,19.277,76.419,49.242H400  c-18.667-44.279-68.876-65.884-113.79-49.012c0.609,1.717,1.295,3.397,1.981,5.115C297.6,51.151,307.543,49.318,317.6,49.356z"/>
<path id="front_wheel-i1" fill="#23286B" d="M317.6,213c-43.81,0-79.314-35.576-79.314-79.474S273.79,54.052,317.6,54.052  s79.314,35.576,79.314,79.474C396.876,177.385,361.371,212.962,317.6,213z M317.6,58.899c-41.143,0-74.476,33.4-74.476,74.626  s33.333,74.626,74.476,74.626s74.476-33.4,74.476-74.626C392,92.339,358.705,58.937,317.6,58.899z"/>
<linearGradient id="gearbox_1_-i1" gradientUnits="userSpaceOnUse" x1="3454.6167" y1="4118.52" x2="5227.7607" y2="4118.52" gradientTransform="matrix(0.0741 0 0 0.0741 -184.2541 -164.3088)">
	<stop offset="0" style="stop-color:#23286B"/>
	<stop offset="1" style="stop-color:#151A4F"/>
</linearGradient>
<path id="gearbox-i1" fill="url(#gearbox_1_-i1)" d="M182.514,119.822L182.514,119.822H86.438c-8.114,0-14.705,6.603-14.705,14.735  c0,7.596,5.752,13.933,13.295,14.658l93.752,12.482c0.305,0.038,0.61,0.076,0.914,0.114h0.114l0,0  c0.762,0.076,1.524,0.114,2.286,0.114c11.619,0,21.029-9.429,21.029-21.071C203.086,129.441,193.943,120.089,182.514,119.822z"/>
<linearGradient id="_2_1_-i1" gradientUnits="userSpaceOnUse" x1="6064.5273" y1="3119.1506" x2="6802.7734" y2="3119.1506" gradientTransform="matrix(0.0741 0 0 0.0741 -184.2541 -164.3088)">
	<stop offset="0" style="stop-color:#23286b"/>
	<stop offset="0.6955" style="stop-color:#031361"/>
	<stop offset="1" style="stop-color:#000e5e"/>
</linearGradient>
<polygon id="_2-i1" fill="url(#_2_1_-i1)" points="315.848,133.641 265.029,0 269.371,0.038 319.733,132.152 "/>
<linearGradient id="_1_1_-i1" gradientUnits="userSpaceOnUse" x1="4328.085" y1="3224.7542" x2="5069.9473" y2="3224.7542" gradientTransform="matrix(0.0741 0 0 0.0741 -184.2541 -164.3088)">
	<stop offset="0" style="stop-color:#23286b"/>
	<stop offset="0.6955" style="stop-color:#031361"/>
	<stop offset="1" style="stop-color:#000e5e"/>
</linearGradient>
<polygon id="_1-i1" fill="url(#_1_1_-i1)" points="136.457,8.78 140.343,7.291 191.429,140.511 187.581,142 "/>
<linearGradient id="handle_1_-i1" gradientUnits="userSpaceOnUse" x1="6064.5273" y1="2463.6365" x2="6625.2295" y2="2463.6365" gradientTransform="matrix(0.0741 0 0 0.0741 -184.2541 -164.3088)">
	<stop offset="0" style="stop-color:#23286b"/>
	<stop offset="0.6955" style="stop-color:#031361"/>
	<stop offset="1" style="stop-color:#000e5e"/>
</linearGradient>
<path id="handle-i1" fill="url(#handle_1_-i1)" d="M290.324,36.454l-1.143-4.008c2.629-0.84,5.143-2.061,7.391-3.664  c4.419-3.206,6.362-7.138,5.752-11.68c-0.495-3.894-3.352-12.902-18.895-12.902H266.59l-1.562-4.16h18.4  c2.743,0,8.038,0.344,12.952,2.672c5.562,2.481,9.41,7.787,10.057,13.857C307.962,28.248,296.571,34.699,290.324,36.454z"/>
<linearGradient id="frame_1_-i1" gradientUnits="userSpaceOnUse" x1="5245.811" y1="1402.151" x2="5456.5557" y2="3070.9041" gradientTransform="matrix(0.0741 0 0 0.0741 -184.2541 -164.3088)">
	<stop offset="0" style="stop-color:#23286b"/>
	<stop offset="0.6955" style="stop-color:#031361"/>
	<stop offset="1" style="stop-color:#000e5e"/>
</linearGradient>
<polygon id="frame-i1" fill="url(#frame_1_-i1)" points="282.171,45.12 187.962,145.13 184.952,142.267 277.79,43.707 154.286,43.593   152.686,39.432 280.038,39.546 "/>
<linearGradient id="seat_1_-i1" gradientUnits="userSpaceOnUse" x1="4128.9497" y1="2168.7932" x2="4465.439" y2="2372.8933" gradientTransform="matrix(0.0741 0 0 0.0741 -184.2541 -164.3088)">
	<stop offset="0" style="stop-color:#23286B"/>
	<stop offset="1" style="stop-color:#151A4F"/>
</linearGradient>
<path id="seat-i1" fill="url(#seat_1_-i1)" d="M155.848,12.788h-33.181c0,0-1.562-11.872,11.581-11.872s19.695-0.764,19.695-0.764  L155.848,12.788"/>
<ellipse id="small_detail-i1" fill="#23286B" cx="317.067" cy="130.93" rx="7.467" ry="7.482"/>
<ellipse id="small_detail_1_-i1" fill="#FFFFFF" cx="187.352" cy="140.091" rx="7.467" ry="7.482"/>
<path id="detail-i1" fill="#23286B" d="M317.067,147.077c-8.876,0-16.076-7.214-16.076-16.108s7.2-16.108,16.076-16.108  c8.876,0,16.076,7.214,16.076,16.108C333.143,139.862,325.943,147.038,317.067,147.077z M317.067,118.295  c-6.971,0-12.609,5.649-12.609,12.635c0,6.986,5.638,12.635,12.609,12.635s12.61-5.649,12.61-12.635  C329.676,123.983,324.038,118.295,317.067,118.295L317.067,118.295z"/>

</g>
</g>

<!-- ITEM 2 -->
<g transform="translate(557.0 213.0) scale(1.7397769516728625 1.7375) rotate(0.0 134.5 200.0)">
<g transform="translate(-0.0 -0.0)">

<linearGradient id="L_hand_2_-i2" gradientUnits="userSpaceOnUse" x1="-5651.6206" y1="2699.0996" x2="-4496.8462" y2="2699.0996" gradientTransform="matrix(-0.0714 -0.0199 -0.0199 0.0714 -97.1391 -108.4601)">
	<stop offset="0" style="stop-color:#FFBEB6"/>
	<stop offset="1" style="stop-color:#F2A19C"/>
</linearGradient>
<path id="L_hand_1_-i2" fill="url(#L_hand_2_-i2)" d="M186.19,168.188c0,0,15.9,7.809,25.6,7.086c9.738-0.724,24.725-5.295,28.225-1.067  c3.499,4.228,14.074,17.105,14.074,17.105s-4.793,2.972-11.411-4.267c-6.618-7.239-8.635-4.305-13.884-2.324  c-5.211,1.981-16.28,8.609-23.393,3.772c-7.113-4.876-11.526-5.181-19.818-2.476c-8.331,2.743-20.541,5.981-20.541,5.981  l12.553-21.905L186.19,168.188z"/>
<linearGradient id="R_sleeve_2_-i2" gradientUnits="userSpaceOnUse" x1="-4683.3784" y1="-814.0049" x2="-3777.7671" y2="-814.0049" gradientTransform="matrix(-0.0714 -0.0199 0.0199 -0.0714 -128.2392 3.185)">
	<stop offset="0" style="stop-color:#28306D"/>
	<stop offset="1" style="stop-color:#13194C"/>
</linearGradient>
<path id="R_sleeve_1_-i2" fill="url(#R_sleeve_2_-i2)" d="M132.289,111.387c-0.039,1.372-0.115,2.819-0.267,4.228  c-2.967,32.724,6.885,49.753,24.497,56.343c9.472,3.543,18.144,4.381,25.144,5.562l4.489-9.372  C136.435,150.208,134,122.017,132.289,111.387z"/>
<path id="L_hand-i2" fill="#FFBEB6" d="M161.16,169.941c0,0,54.243,13.372,63.981,12.648c9.738-0.724,25.409-4.076,28.947,0.152  c3.499,4.228,14.912,21.448,14.912,21.448s-4.793,2.972-11.411-4.267c-6.618-7.239-6.353-8.8-11.602-6.819  c-5.211,1.981-20.084,7.543-27.198,2.705c-7.113-4.876-11.526-5.181-19.818-2.476c-8.331,2.743-49.868,10.743-49.868,10.743  L161.16,169.941"/>
<path id="L_shoe-2-i2" fill="#A1C3FC" d="M77.932,354.096l-16.433,45.906H177.44c0,0-5.934-11.467-25.752-20  c-19.818-8.495-38.153-25.905-38.153-25.905H77.932"/>
<path id="R_trousers-i2" fill="#428DFC" d="M36.242,130.169c0,0-22.405,43.124,14.758,67.963s76.076,39.582,54.243,55.543  s-30.089,29.563-30.089,46.096s-9.586,14.21-19.019,22.476c-9.434,8.267-13.351,21.563-9.814,32.191l67.214-0.343  c0,0,67.252-92.192,70.219-105.792c2.967-13.6,11.222-19.505-25.372-47.277s-70.827-59.049-70.827-59.049L36.242,130.169z"/>
<path id="texture-i2" opacity="0.86" fill="#FFFFFF" enable-background="new    " d="M46.359,165.941  c0.039,0.076,0.115,0.115,0.191,0.076l0,0c0.076-0.039,0.115-0.115,0.076-0.191l0,0c-0.039-0.076-0.115-0.115-0.191-0.076l0,0  C46.359,165.788,46.322,165.865,46.359,165.941z M49.86,164.493c0.039,0.076,0.115,0.115,0.191,0.076  c0.076-0.039,0.115-0.115,0.076-0.191c-0.039-0.076-0.115-0.115-0.191-0.076l0,0C49.897,164.341,49.86,164.417,49.86,164.493z   M53.397,163.045c0.039,0.076,0.115,0.115,0.191,0.076l0,0c0.076-0.039,0.115-0.115,0.076-0.191  c-0.039-0.076-0.115-0.115-0.191-0.076l0,0C53.397,162.893,53.359,162.969,53.397,163.045L53.397,163.045L53.397,163.045z   M56.934,161.597c0.039,0.076,0.115,0.115,0.191,0.076l0,0c0.076-0.039,0.115-0.115,0.076-0.228  c-0.039-0.076-0.115-0.115-0.191-0.076C56.934,161.445,56.897,161.521,56.934,161.597L56.934,161.597L56.934,161.597z   M57.733,177.445c0.076,0.039,0.152,0,0.191-0.076c0.039-0.076,0-0.152-0.076-0.191c-0.076-0.039-0.152,0-0.191,0.076l0,0  C57.62,177.293,57.657,177.408,57.733,177.445L57.733,177.445L57.733,177.445z M59.217,173.903c0.076,0.039,0.191,0,0.228-0.076  s0-0.191-0.076-0.191c-0.076-0.039-0.152,0-0.191,0.076l0,0C59.064,173.788,59.103,173.865,59.217,173.903L59.217,173.903  L59.217,173.903z M60.663,170.398c0.076,0.039,0.152,0,0.191-0.076l0,0c0.039-0.076,0-0.191-0.076-0.228  c-0.076-0.039-0.191,0-0.228,0.076C60.548,170.284,60.586,170.36,60.663,170.398L60.663,170.398z M62.146,166.893  c0.076,0.039,0.152,0,0.191-0.076l0,0c0.039-0.076,0-0.191-0.076-0.228c-0.076-0.038-0.152,0-0.191,0.076l0,0  C62.031,166.741,62.07,166.855,62.146,166.893L62.146,166.893z M73.672,177.408c0.039,0.076,0.115,0.115,0.191,0.076l0,0  c0.076-0.039,0.115-0.115,0.076-0.191l0,0c-0.039-0.076-0.115-0.115-0.191-0.076C73.672,177.217,73.633,177.293,73.672,177.408  L73.672,177.408L73.672,177.408z M52.256,171.274c0.076,0.076,0.152,0.076,0.228,0c0.076-0.076,0.076-0.152,0-0.228  c-0.076-0.076-0.152-0.076-0.228,0C52.218,171.084,52.18,171.198,52.256,171.274C52.256,171.236,52.256,171.274,52.256,171.274  L52.256,171.274z M54.957,168.569c0.039,0.039,0.115,0.039,0.191,0l0,0h0.039c0.039-0.039,0.039-0.076,0.039-0.152  c0-0.039-0.039-0.076-0.039-0.076c-0.076-0.076-0.152-0.076-0.228,0C54.881,168.417,54.881,168.493,54.957,168.569L54.957,168.569z   M57.657,165.903c0.076,0.039,0.152,0.039,0.228,0c0.076-0.076,0.076-0.152,0-0.228c-0.076-0.076-0.152-0.076-0.228,0  C57.581,165.712,57.581,165.826,57.657,165.903L57.657,165.903L57.657,165.903z M60.358,163.197c0.039,0.076,0.152,0.076,0.191,0  l0,0c0.076-0.076,0.076-0.152,0-0.228l0,0c-0.076-0.076-0.152-0.076-0.228,0C60.282,163.045,60.282,163.121,60.358,163.197  L60.358,163.197L60.358,163.197z M65.608,176.875c0,0.076,0.076,0.152,0.152,0.152c0.076,0,0.152-0.076,0.152-0.152  s-0.076-0.152-0.152-0.152C65.684,176.721,65.608,176.798,65.608,176.875L65.608,176.875z M65.608,173.065  c0,0.076,0.076,0.152,0.152,0.152l0,0c0.076,0,0.152-0.039,0.152-0.152l0,0c0-0.076-0.076-0.152-0.152-0.152  C65.684,172.912,65.608,172.988,65.608,173.065L65.608,173.065z M37.002,178.36c0.115,0.115,0.304,0.152,0.419,0.039l0,0  c0.115-0.115,0.152-0.305,0.039-0.419l0,0c-0.115-0.115-0.304-0.152-0.419-0.039l0,0C36.888,178.055,36.888,178.245,37.002,178.36  L37.002,178.36z M42.442,173.636c0.115,0.115,0.304,0.152,0.419,0.039c0.115-0.115,0.152-0.305,0.039-0.419l0,0  c-0.115-0.115-0.304-0.152-0.419-0.039l0,0C42.366,173.332,42.328,173.521,42.442,173.636z M47.881,168.912  c0.115,0.115,0.304,0.152,0.419,0.039c0.115-0.115,0.152-0.305,0.039-0.419c-0.115-0.115-0.304-0.152-0.419-0.039  C47.805,168.569,47.768,168.76,47.881,168.912C47.881,168.874,47.881,168.912,47.881,168.912L47.881,168.912z M53.321,164.15  c0.076,0.076,0.228,0.115,0.304,0.076c0.039,0,0.076-0.039,0.115-0.039c0.039-0.039,0.076-0.076,0.076-0.152l0,0  c0.039-0.115,0-0.191-0.076-0.267c-0.115-0.115-0.304-0.152-0.419-0.039l0,0C53.245,163.845,53.245,164.036,53.321,164.15  L53.321,164.15z M58.647,196.494c0,0.152,0.115,0.305,0.267,0.305s0.304-0.115,0.304-0.267l0,0c0-0.152-0.115-0.305-0.267-0.305  C58.799,196.188,58.684,196.303,58.647,196.494L58.647,196.494L58.647,196.494z M59.141,189.293c0,0.152,0.115,0.305,0.267,0.305  s0.304-0.115,0.304-0.267l0,0c0-0.152-0.115-0.305-0.267-0.305l0,0C59.331,188.988,59.179,189.103,59.141,189.293L59.141,189.293z   M59.673,182.055c0,0.152,0.115,0.305,0.267,0.305l0,0c0.152,0,0.304-0.115,0.304-0.267l0,0c0-0.152-0.115-0.305-0.267-0.343  C59.826,181.788,59.673,181.903,59.673,182.055L59.673,182.055z M60.168,174.855c0,0.152,0.115,0.305,0.267,0.305  s0.304-0.115,0.304-0.267c0-0.152-0.115-0.305-0.267-0.305l0,0C60.32,174.551,60.168,174.665,60.168,174.855L60.168,174.855  L60.168,174.855z M60.7,167.655c0,0.152,0.115,0.305,0.267,0.305c0.152,0,0.304-0.115,0.304-0.267l0,0  c0-0.152-0.115-0.305-0.267-0.305l0,0C60.852,167.35,60.7,167.465,60.7,167.655L60.7,167.655z M33.693,165.903  c0.039,0.152,0.228,0.228,0.38,0.191c0.152-0.039,0.228-0.228,0.191-0.381c-0.039-0.152-0.228-0.228-0.38-0.191  C33.731,165.598,33.655,165.75,33.693,165.903L33.693,165.903L33.693,165.903z M40.54,163.617c0.039,0.152,0.191,0.228,0.38,0.191  c0.152-0.039,0.228-0.191,0.191-0.381c0,0,0,0,0-0.039c-0.039-0.152-0.228-0.228-0.38-0.191  C40.578,163.312,40.502,163.464,40.54,163.617z M47.387,161.331c0.039,0.152,0.228,0.228,0.38,0.191l0,0  c0.152-0.039,0.228-0.228,0.191-0.381l0,0c-0.039-0.152-0.228-0.228-0.38-0.191l0,0C47.425,161.026,47.349,161.179,47.387,161.331  L47.387,161.331z M44.952,189.408c0.152,0.076,0.343,0,0.38-0.152c0.076-0.152,0-0.343-0.152-0.381c-0.152-0.076-0.304,0-0.38,0.152  C44.724,189.179,44.8,189.332,44.952,189.408L44.952,189.408z M48.148,182.932c0.152,0.076,0.343,0,0.38-0.152  c0.076-0.152,0-0.343-0.152-0.381c-0.152-0.076-0.304,0-0.38,0.152C47.957,182.703,47.996,182.855,48.148,182.932L48.148,182.932z   M51.381,176.493c0.152,0.076,0.343,0,0.419-0.152c0.076-0.152,0-0.305-0.152-0.381c-0.152-0.076-0.343-0.039-0.419,0.115  C51.152,176.227,51.229,176.417,51.381,176.493L51.381,176.493z M54.614,170.017c0.152,0.076,0.304,0.039,0.38-0.115l0,0  c0.076-0.152,0.039-0.343-0.115-0.381c-0.152-0.076-0.343-0.039-0.38,0.115l0,0C54.386,169.75,54.462,169.941,54.614,170.017  L54.614,170.017L54.614,170.017z M57.848,163.541c0.152,0.076,0.343,0,0.419-0.152c0.076-0.152,0-0.343-0.152-0.381  c-0.152-0.076-0.304,0-0.38,0.115C57.62,163.274,57.696,163.464,57.848,163.541C57.809,163.541,57.848,163.541,57.848,163.541  L57.848,163.541z M72.302,191.427c0.039,0.152,0.228,0.228,0.38,0.191c0.152-0.039,0.228-0.228,0.191-0.381l0,0  c-0.039-0.152-0.191-0.228-0.343-0.191c0,0,0,0-0.039,0C72.378,191.084,72.264,191.275,72.302,191.427L72.302,191.427z   M70.019,184.569c0.076,0.152,0.228,0.228,0.38,0.191c0.152-0.039,0.228-0.228,0.191-0.381c-0.039-0.152-0.228-0.228-0.38-0.191l0,0  C70.058,184.227,69.982,184.379,70.019,184.569L70.019,184.569L70.019,184.569z M67.737,177.712  c0.039,0.152,0.191,0.228,0.343,0.191l0,0c0.152-0.039,0.228-0.228,0.191-0.381l0,0c-0.039-0.152-0.228-0.228-0.38-0.191  C67.737,177.369,67.699,177.56,67.737,177.712L67.737,177.712L67.737,177.712z M65.456,170.855c0.039,0.152,0.228,0.228,0.38,0.191  c0.152-0.039,0.228-0.191,0.191-0.343l0,0c-0.039-0.152-0.228-0.228-0.38-0.191C65.493,170.512,65.417,170.703,65.456,170.855  L65.456,170.855z M29.585,162.436c0.039-0.076,0.076-0.115,0.039-0.191c0-0.039-0.039-0.076-0.076-0.115  C29.585,162.208,29.585,162.321,29.585,162.436L29.585,162.436z M35.367,160.912c0.039,0.152,0.152,0.228,0.304,0.191l0,0  c0.152-0.039,0.228-0.191,0.191-0.305c-0.038-0.114-0.191-0.228-0.304-0.191C35.443,160.608,35.367,160.76,35.367,160.912  L35.367,160.912L35.367,160.912z M41.643,159.464c0.039,0.152,0.152,0.228,0.304,0.191c0,0,0,0,0.039,0  c0.152-0.039,0.228-0.191,0.191-0.305c-0.039-0.152-0.191-0.228-0.304-0.191S41.643,159.312,41.643,159.464L41.643,159.464z   M38.677,186.093c0.115,0.076,0.304,0.039,0.38-0.076c0.076-0.115,0.039-0.305-0.076-0.381s-0.304-0.039-0.38,0.076  C38.524,185.827,38.562,186.017,38.677,186.093z M42.1,180.608c0.115,0.076,0.304,0.039,0.38-0.076  c0.076-0.115,0.039-0.305-0.076-0.381s-0.304-0.039-0.38,0.076l0,0C41.948,180.379,41.985,180.532,42.1,180.608L42.1,180.608  L42.1,180.608z M45.409,174.969c0,0.076,0.039,0.115,0.115,0.152c0.115,0.076,0.304,0.039,0.38-0.076  c0.076-0.115,0.039-0.305-0.076-0.381l0,0c-0.076-0.039-0.152-0.039-0.267,0l0,0c-0.039,0-0.076,0.039-0.115,0.115  C45.409,174.817,45.371,174.893,45.409,174.969L45.409,174.969z M48.946,169.674c0.115,0.076,0.304,0.039,0.38-0.076  c0.076-0.115,0.039-0.305-0.076-0.381c-0.115-0.076-0.304-0.039-0.38,0.076C48.756,169.408,48.794,169.598,48.946,169.674  L48.946,169.674L48.946,169.674z M52.332,164.188c0.115,0.076,0.304,0.039,0.38-0.115c0.076-0.115,0.039-0.267-0.076-0.381  c-0.115-0.076-0.304-0.039-0.38,0.076C52.18,163.96,52.218,164.112,52.332,164.188L52.332,164.188z M65.303,190.399  c0.039,0.152,0.191,0.228,0.343,0.191s0.228-0.152,0.191-0.305l0,0c-0.039-0.152-0.152-0.228-0.304-0.191l0,0  C65.38,190.093,65.303,190.246,65.303,190.399L65.303,190.399z M63.858,184.112c0.039,0.152,0.191,0.228,0.304,0.191  c0.152-0.039,0.228-0.152,0.191-0.305l0,0c-0.039-0.152-0.152-0.228-0.304-0.191l0,0C63.934,183.808,63.858,183.96,63.858,184.112  L63.858,184.112z M62.412,177.827c0.039,0.152,0.152,0.228,0.304,0.191l0,0c0.152-0.039,0.228-0.152,0.191-0.305c0,0,0,0,0-0.039  c-0.039-0.152-0.152-0.228-0.304-0.191l0,0C62.489,177.521,62.374,177.675,62.412,177.827L62.412,177.827z M60.967,171.541  c0.039,0.152,0.191,0.228,0.343,0.191c0.152-0.039,0.228-0.191,0.191-0.305c-0.039-0.152-0.191-0.228-0.304-0.191  C61.043,171.236,60.928,171.388,60.967,171.541L60.967,171.541z M59.521,165.255c0.039,0.152,0.191,0.228,0.304,0.191  c0.152-0.039,0.228-0.191,0.191-0.305l0,0c-0.039-0.152-0.191-0.228-0.343-0.191C59.559,164.95,59.483,165.103,59.521,165.255  L59.521,165.255z M36.014,170.627c0.076,0.115,0.228,0.152,0.38,0.076l0,0c0.115-0.076,0.152-0.228,0.076-0.343l0,0  c-0.076-0.115-0.228-0.152-0.38-0.076l0,0C35.938,170.36,35.899,170.512,36.014,170.627L36.014,170.627z M41.263,166.893  c0.076,0.115,0.228,0.152,0.38,0.076c0.115-0.076,0.152-0.267,0.076-0.381c-0.076-0.115-0.267-0.152-0.38-0.076  C41.187,166.588,41.149,166.779,41.263,166.893C41.225,166.893,41.225,166.893,41.263,166.893L41.263,166.893z M46.474,163.16  c0.076,0.115,0.267,0.152,0.38,0.076c0.115-0.076,0.152-0.267,0.076-0.381c-0.076-0.115-0.267-0.152-0.38-0.039l0,0  C46.436,162.855,46.398,163.008,46.474,163.16C46.474,163.121,46.474,163.16,46.474,163.16L46.474,163.16z M51.495,187.465  c-0.039,0.152,0.076,0.267,0.228,0.305c0.152,0.039,0.267-0.076,0.304-0.228c0.039-0.152-0.076-0.267-0.228-0.305  C51.647,187.199,51.533,187.312,51.495,187.465L51.495,187.465z M52.56,181.065c-0.039,0.152,0.076,0.267,0.191,0.305l0,0  c0.152,0.039,0.267-0.076,0.304-0.228c0.039-0.152-0.076-0.267-0.228-0.305C52.712,180.836,52.598,180.951,52.56,181.065  L52.56,181.065z M53.626,174.703c-0.039,0.152,0.076,0.267,0.228,0.305s0.267-0.076,0.304-0.228l0,0  c0.039-0.152-0.076-0.267-0.228-0.305C53.778,174.474,53.663,174.588,53.626,174.703z M54.69,168.341  c-0.039,0.152,0.076,0.267,0.228,0.305c0.076,0,0.152,0,0.228-0.076l0,0c0.039-0.039,0.076-0.076,0.076-0.152  c0.039-0.152-0.076-0.267-0.228-0.305C54.842,168.112,54.729,168.227,54.69,168.341L54.69,168.341z M55.756,161.979  c-0.039,0.152,0.076,0.305,0.228,0.305c0.152,0.039,0.267-0.076,0.304-0.228c0-0.039,0-0.076,0-0.115  c-0.039-0.039-0.076-0.076-0.076-0.152c-0.039-0.039-0.076-0.039-0.115-0.076C55.908,161.75,55.793,161.865,55.756,161.979  L55.756,161.979z M75.612,182.284c0.076,0.115,0.228,0.152,0.343,0.076l0,0c0.115-0.076,0.152-0.228,0.076-0.381l0,0  c-0.076-0.115-0.267-0.152-0.38-0.039C75.535,181.979,75.535,182.169,75.612,182.284L75.612,182.284L75.612,182.284z   M71.884,177.027c0.076,0.115,0.267,0.152,0.38,0.076c0.115-0.076,0.152-0.267,0.039-0.381c-0.076-0.115-0.228-0.152-0.38-0.076  C71.807,176.721,71.77,176.912,71.884,177.027L71.884,177.027L71.884,177.027z M39.094,170.093c0.076,0.076,0.152,0.039,0.228,0  c0.076-0.076,0.039-0.152,0-0.228c-0.076-0.076-0.152-0.039-0.228,0l0,0C39.057,169.941,39.057,170.017,39.094,170.093  L39.094,170.093z M41.719,167.312c0.076,0.076,0.152,0.039,0.228,0c0.076-0.076,0.039-0.152,0-0.228  c-0.076-0.076-0.152-0.039-0.228,0l0,0C41.643,167.16,41.643,167.236,41.719,167.312L41.719,167.312z M44.306,164.532  c0.076,0.039,0.152,0.039,0.228,0c0.076-0.039,0.076-0.152,0-0.191l0,0c-0.076-0.039-0.152-0.039-0.228,0  C44.23,164.341,44.23,164.455,44.306,164.532L44.306,164.532L44.306,164.532z M46.893,161.75c0.076,0.039,0.152,0.039,0.228,0  c0.076-0.076,0.076-0.152,0-0.228l0,0c-0.076-0.039-0.152-0.039-0.228,0C46.817,161.597,46.817,161.674,46.893,161.75L46.893,161.75  z M54.043,175.617c0,0.076,0.076,0.152,0.152,0.152c0.076,0,0.152-0.076,0.152-0.152s-0.076-0.152-0.152-0.152l0,0  C54.119,175.427,54.043,175.503,54.043,175.617L54.043,175.617L54.043,175.617z M53.891,171.808c0,0.076,0.076,0.152,0.191,0.152  c0.076,0,0.152-0.076,0.152-0.152l0,0c0-0.076-0.076-0.152-0.152-0.152l0,0C53.967,171.617,53.891,171.693,53.891,171.808  L53.891,171.808L53.891,171.808z M53.778,167.998c0,0.076,0.076,0.152,0.152,0.152c0.076,0,0.152-0.076,0.152-0.152l0,0  c0-0.076-0.076-0.152-0.152-0.152l0,0C53.854,167.845,53.778,167.921,53.778,167.998L53.778,167.998L53.778,167.998z   M53.663,164.188v0.039c0.039,0.076,0.076,0.115,0.152,0.115c0.076,0,0.152-0.076,0.152-0.152l0,0c0-0.076-0.039-0.115-0.115-0.152  l0,0h-0.039C53.702,164.036,53.663,164.112,53.663,164.188L53.663,164.188L53.663,164.188z M36.051,162.321  c0.039,0.076,0.115,0.115,0.191,0.076c0.076-0.039,0.115-0.152,0.076-0.228c-0.039-0.076-0.115-0.115-0.191-0.076l0,0  C36.051,162.169,36.014,162.245,36.051,162.321L36.051,162.321z M39.475,160.76c0.039,0.076,0.115,0.115,0.191,0.076  c0.076-0.039,0.115-0.115,0.076-0.191l0,0c-0.039-0.076-0.115-0.115-0.191-0.076l0,0C39.475,160.569,39.437,160.684,39.475,160.76  L39.475,160.76L39.475,160.76z M42.936,159.16c0.039,0.076,0.115,0.115,0.191,0.076l0,0c0.076-0.039,0.115-0.115,0.076-0.191l0,0  c-0.039-0.076-0.115-0.115-0.191-0.076l0,0C42.936,159.008,42.899,159.084,42.936,159.16L42.936,159.16z M46.665,172.455  c0.076,0.039,0.152,0,0.191-0.076c0.039-0.076,0-0.152-0.076-0.191l0,0c-0.076-0.039-0.152,0-0.191,0.076l0,0  C46.55,172.341,46.589,172.417,46.665,172.455L46.665,172.455z M47.996,168.874c0.076,0.039,0.152,0,0.191-0.076  c0.039-0.076,0-0.152-0.076-0.191c-0.076-0.039-0.152,0-0.191,0.076l0,0C47.881,168.76,47.92,168.836,47.996,168.874L47.996,168.874  L47.996,168.874z M49.327,165.293c0.076,0.039,0.152,0,0.191-0.076l0,0c0.039-0.076,0-0.191-0.076-0.191  c-0.076-0.039-0.152,0-0.191,0.076C49.212,165.178,49.251,165.255,49.327,165.293L49.327,165.293L49.327,165.293z M50.659,161.75  c0.076,0.039,0.152,0,0.191-0.076l0,0c0.039-0.076,0-0.191-0.076-0.191c-0.076-0.039-0.152,0-0.191,0.076  C50.544,161.636,50.583,161.712,50.659,161.75L50.659,161.75z M61.119,171.96c0.039,0.076,0.115,0.115,0.191,0.076  c0.076-0.039,0.115-0.115,0.076-0.191c-0.039-0.076-0.115-0.115-0.191-0.076l0,0C61.119,171.808,61.08,171.884,61.119,171.96  L61.119,171.96L61.119,171.96z M59.559,168.493c0.039,0.076,0.152,0.115,0.228,0.076c0.076-0.039,0.115-0.115,0.076-0.191l0,0  c-0.039-0.076-0.115-0.115-0.191-0.076l0,0C59.559,168.341,59.521,168.417,59.559,168.493  C59.521,168.493,59.559,168.493,59.559,168.493L59.559,168.493z M57.961,165.064c0.039,0.076,0.152,0.115,0.228,0.076  c0.076-0.039,0.115-0.152,0.076-0.228l0,0c-0.039-0.076-0.152-0.115-0.228-0.076C57.961,164.874,57.924,164.988,57.961,165.064z   M56.402,161.597c0.039,0.076,0.115,0.115,0.191,0.076l0,0c0.039-0.039,0.076-0.076,0.076-0.115c0-0.039,0-0.076,0-0.076  c-0.039-0.076-0.115-0.115-0.191-0.076c-0.039,0-0.076,0.039-0.076,0.076l0,0C56.364,161.484,56.364,161.56,56.402,161.597  L56.402,161.597z M30.118,157.826c0.039,0.076,0.115,0.152,0.228,0.115c0.115-0.039,0.152-0.115,0.152-0.228  c-0.039-0.115-0.115-0.152-0.228-0.115l0,0C30.155,157.636,30.079,157.712,30.118,157.826L30.118,157.826L30.118,157.826z   M36.394,173.865c0.076,0.039,0.191,0.039,0.228-0.039l0,0c0.039-0.076,0.039-0.191-0.039-0.228l0,0  c-0.076-0.039-0.191-0.039-0.228,0.039l0,0C36.279,173.712,36.318,173.827,36.394,173.865L36.394,173.865z M38.714,170.208  c0.076,0.039,0.191,0.039,0.267-0.076c0.039-0.076,0.039-0.191-0.039-0.267c-0.076-0.039-0.191-0.039-0.228,0.039l0,0  C38.638,170.017,38.638,170.132,38.714,170.208L38.714,170.208L38.714,170.208z M41.073,166.55c0.076,0.039,0.191,0.039,0.228-0.039  c0,0,0.039,0,0-0.039c0.039-0.076,0.039-0.191-0.039-0.267c-0.076-0.039-0.191-0.039-0.267,0.039  C40.958,166.398,40.996,166.512,41.073,166.55L41.073,166.55z M43.393,162.893c0.076,0.039,0.191,0.039,0.267-0.039  c0.076-0.076,0.039-0.191-0.039-0.267l0,0c-0.039-0.039-0.115-0.039-0.191,0c-0.039,0-0.039,0-0.039,0l-0.039,0.039  C43.316,162.741,43.316,162.855,43.393,162.893L43.393,162.893z M54.31,176.951c0,0.076,0.115,0.152,0.191,0.152c0,0,0,0,0.039,0  c0.076-0.039,0.152-0.115,0.115-0.228c-0.039-0.076-0.115-0.152-0.228-0.152C54.347,176.76,54.271,176.875,54.31,176.951  L54.31,176.951L54.31,176.951z M53.359,172.721c0.039,0.115,0.115,0.152,0.228,0.115l0,0c0.076-0.039,0.152-0.115,0.115-0.228  c-0.039-0.076-0.115-0.152-0.228-0.152C53.397,172.532,53.321,172.608,53.359,172.721L53.359,172.721z M52.446,168.455  c0,0.076,0.076,0.152,0.191,0.152c0,0,0,0,0.039,0c0.076-0.039,0.152-0.115,0.115-0.228c-0.039-0.076-0.115-0.152-0.228-0.152  C52.484,168.265,52.408,168.379,52.446,168.455L52.446,168.455z M51.495,164.226c0,0.076,0.076,0.152,0.191,0.152c0,0,0,0,0.039,0  c0.076-0.039,0.152-0.115,0.115-0.228c-0.039-0.115-0.115-0.152-0.228-0.152C51.533,164.036,51.495,164.15,51.495,164.226  L51.495,164.226z M31.449,165.865c0.039,0.076,0.152,0.115,0.267,0.039l0,0c0.076-0.076,0.076-0.152,0.039-0.267  c-0.039-0.076-0.152-0.115-0.267-0.039l0,0C31.41,165.674,31.41,165.788,31.449,165.865L31.449,165.865z M35.024,163.388  c0.039,0.076,0.152,0.115,0.228,0.039c0.076-0.039,0.115-0.152,0.039-0.267l0,0c-0.076-0.076-0.191-0.115-0.267-0.039  C34.987,163.197,34.948,163.312,35.024,163.388L35.024,163.388z M38.562,160.912c0.039,0.076,0.152,0.115,0.228,0.039l0,0  c0.076-0.039,0.115-0.152,0.076-0.228l0,0c-0.039-0.076-0.152-0.115-0.228-0.039C38.524,160.684,38.524,160.797,38.562,160.912  C38.562,160.874,38.562,160.874,38.562,160.912L38.562,160.912z M45.409,174.969c0.039,0,0.039,0.039,0.076,0.039  c0.115,0,0.191-0.039,0.191-0.152l0,0c0-0.076-0.039-0.191-0.152-0.191l0,0c-0.115,0-0.191,0.039-0.191,0.152l0,0  C45.333,174.893,45.333,174.932,45.409,174.969L45.409,174.969z M46.094,170.512c-0.039,0.076,0.039,0.191,0.152,0.191l0,0  c0.115,0,0.191-0.039,0.228-0.152c0-0.115-0.039-0.191-0.152-0.228C46.207,170.36,46.131,170.436,46.094,170.512L46.094,170.512z   M46.854,166.245c0,0.115,0.039,0.191,0.152,0.191c0.114,0,0.191-0.039,0.191-0.152c0-0.114-0.039-0.191-0.152-0.191l0,0  C46.969,166.093,46.893,166.169,46.854,166.245L46.854,166.245L46.854,166.245z M47.615,161.979c0,0.115,0.039,0.191,0.152,0.191  c0.076,0.039,0.191-0.039,0.191-0.115l0,0c0.039-0.076-0.039-0.191-0.152-0.191l0,0C47.729,161.826,47.653,161.865,47.615,161.979  L47.615,161.979L47.615,161.979z M61.614,171.503c0.039,0.076,0.152,0.115,0.267,0.039l0,0c0.076-0.039,0.115-0.152,0.039-0.228  c-0.039-0.076-0.152-0.115-0.228-0.076l0,0C61.575,171.312,61.538,171.427,61.614,171.503L61.614,171.503z M59.141,167.96  c0.039,0.076,0.152,0.115,0.228,0.039l0,0c0.076-0.039,0.115-0.152,0.076-0.228l0,0c-0.076-0.076-0.152-0.115-0.267-0.039  C59.103,167.732,59.064,167.845,59.141,167.96L59.141,167.96L59.141,167.96z M56.63,164.379c0.039,0.076,0.152,0.115,0.267,0.039  c0.076-0.039,0.115-0.152,0.039-0.228c-0.039-0.076-0.152-0.115-0.228-0.039l0,0C56.592,164.188,56.592,164.303,56.63,164.379  L56.63,164.379z M29.927,163.655c0.115,0.152,0.304,0.152,0.419,0.039c0.115-0.115,0.152-0.305,0.076-0.419  c-0.115-0.152-0.304-0.152-0.419-0.076C29.851,163.312,29.851,163.503,29.927,163.655L29.927,163.655z M35.938,159.274  c0.115,0.152,0.304,0.152,0.419,0.076c0.152-0.115,0.152-0.305,0.076-0.419l0,0c-0.115-0.152-0.304-0.152-0.419-0.076  C35.862,158.931,35.862,159.121,35.938,159.274L35.938,159.274z M39.704,185.56c-0.039,0.152,0.076,0.343,0.267,0.343  c0.152,0.039,0.343-0.076,0.343-0.267c0.039-0.152-0.076-0.343-0.267-0.343C39.893,185.293,39.741,185.408,39.704,185.56  L39.704,185.56z M40.882,178.208c-0.039,0.152,0.115,0.343,0.267,0.343c0.152,0.039,0.304-0.115,0.343-0.267  c0.039-0.152-0.115-0.305-0.267-0.343C41.035,177.941,40.882,178.055,40.882,178.208z M42.024,170.855  c-0.039,0.152,0.076,0.343,0.267,0.343c0.152,0.039,0.343-0.076,0.343-0.267c0.039-0.152-0.076-0.343-0.267-0.343  C42.213,170.588,42.061,170.703,42.024,170.855L42.024,170.855z M43.164,163.503c-0.039,0.152,0.115,0.343,0.267,0.343  c0.152,0.039,0.304-0.076,0.343-0.267c0.039-0.152-0.076-0.305-0.267-0.343C43.355,163.197,43.203,163.312,43.164,163.503  L43.164,163.503z M69.068,185.788c0.115,0.152,0.304,0.152,0.456,0.076c0.152-0.115,0.152-0.305,0.039-0.419  c-0.115-0.115-0.304-0.152-0.419-0.076C68.992,185.484,68.955,185.675,69.068,185.788L69.068,185.788z M64.694,179.769  c0.115,0.152,0.304,0.152,0.419,0.076c0.152-0.115,0.152-0.305,0.076-0.419c-0.076-0.115-0.304-0.152-0.419-0.076l0,0  C64.618,179.465,64.581,179.655,64.694,179.769L64.694,179.769z M60.282,173.751c0.115,0.152,0.304,0.152,0.419,0.076  c0.152-0.115,0.152-0.305,0.076-0.457c-0.115-0.152-0.304-0.152-0.419-0.039S60.206,173.636,60.282,173.751L60.282,173.751z   M55.908,167.732c0.115,0.152,0.304,0.152,0.419,0.076c0.152-0.115,0.152-0.305,0.076-0.457c-0.115-0.152-0.304-0.152-0.419-0.076  l0,0C55.869,167.388,55.832,167.579,55.908,167.732L55.908,167.732L55.908,167.732z M51.533,161.712  c0.115,0.152,0.304,0.152,0.419,0.039c0.115-0.115,0.152-0.305,0.076-0.419c-0.115-0.152-0.304-0.152-0.419-0.076  C51.457,161.369,51.419,161.597,51.533,161.712L51.533,161.712z M33.008,171.96c0.152,0.076,0.343,0.039,0.419-0.115  c0.076-0.152,0.039-0.343-0.115-0.419c-0.152-0.076-0.343-0.039-0.419,0.115C32.818,171.655,32.856,171.845,33.008,171.96z   M36.888,165.56c0.152,0.076,0.343,0.039,0.419-0.076l0,0c0.076-0.152,0.039-0.343-0.115-0.419  c-0.152-0.076-0.343-0.039-0.419,0.115l0,0C36.698,165.293,36.736,165.484,36.888,165.56L36.888,165.56z M40.768,159.236  c0.152,0.076,0.343,0.039,0.419-0.115l0,0c0.076-0.152,0.039-0.305-0.115-0.381c0,0,0,0,0-0.039  c-0.115-0.076-0.304-0.039-0.38,0.076v0.039C40.578,158.931,40.616,159.121,40.768,159.236  C40.73,159.197,40.768,159.236,40.768,159.236L40.768,159.236z M53.169,189.141c0.039,0.152,0.228,0.267,0.38,0.228  s0.267-0.228,0.228-0.381c-0.039-0.152-0.191-0.267-0.343-0.228l0,0C53.245,188.799,53.131,188.951,53.169,189.141L53.169,189.141z   M51.457,181.865c0.039,0.152,0.191,0.267,0.38,0.228l0,0c0.152-0.039,0.267-0.191,0.228-0.381l0,0  c-0.039-0.152-0.191-0.267-0.38-0.228C51.495,181.56,51.419,181.712,51.457,181.865z M49.708,174.627  c0.039,0.152,0.191,0.267,0.343,0.228l0,0c0.152-0.039,0.267-0.191,0.228-0.381c-0.039-0.152-0.191-0.267-0.38-0.228  C49.784,174.284,49.669,174.474,49.708,174.627L49.708,174.627z M47.957,167.388c0.039,0.152,0.228,0.267,0.38,0.228  s0.267-0.191,0.228-0.381c-0.039-0.152-0.191-0.267-0.38-0.228C47.996,167.045,47.92,167.236,47.957,167.388L47.957,167.388  L47.957,167.388z M30.612,167.084c0.152,0.076,0.343,0.039,0.419-0.076c0.076-0.152,0.039-0.343-0.076-0.419  c-0.115-0.076-0.304-0.076-0.419,0.076l0,0C30.422,166.779,30.46,166.969,30.612,167.084L30.612,167.084L30.612,167.084z   M34.72,160.912c0.152,0.076,0.343,0.039,0.419-0.076c0.076-0.152,0.039-0.343-0.076-0.419c-0.115-0.076-0.304-0.076-0.419,0.076  l0,0C34.568,160.645,34.568,160.836,34.72,160.912L34.72,160.912L34.72,160.912z M48.68,191.503c0.039,0.152,0.191,0.267,0.38,0.228  c0.152-0.039,0.267-0.191,0.228-0.381c-0.039-0.152-0.191-0.267-0.343-0.228C48.756,191.199,48.642,191.351,48.68,191.503z   M47.234,184.227c0.039,0.152,0.191,0.267,0.38,0.228c0.152-0.039,0.267-0.191,0.228-0.343c-0.039-0.152-0.191-0.267-0.38-0.267  C47.311,183.922,47.197,184.075,47.234,184.227z M45.79,176.951c0.039,0.152,0.191,0.267,0.38,0.228  c0.152-0.039,0.267-0.191,0.228-0.343c-0.039-0.152-0.191-0.267-0.343-0.228C45.903,176.645,45.79,176.798,45.79,176.951  L45.79,176.951z M44.382,169.674c0.039,0.152,0.191,0.267,0.343,0.228l0,0c0.152-0.039,0.267-0.191,0.228-0.343  c-0.039-0.152-0.191-0.267-0.343-0.228C44.458,169.369,44.344,169.521,44.382,169.674L44.382,169.674L44.382,169.674z   M42.936,162.397c0.039,0.152,0.191,0.267,0.343,0.228l0,0c0.039,0,0.076-0.039,0.076-0.039h0.039  c0.076-0.076,0.152-0.191,0.115-0.305c-0.039-0.152-0.191-0.267-0.343-0.228C43.012,162.055,42.899,162.245,42.936,162.397  L42.936,162.397L42.936,162.397z M62.45,166.132c0.152,0.076,0.343,0.039,0.419-0.076c0.076-0.152,0.039-0.343-0.076-0.419  c-0.115-0.076-0.304-0.076-0.419,0.076l0,0C62.26,165.826,62.298,166.017,62.45,166.132L62.45,166.132L62.45,166.132z   M56.174,161.826c0,0.039,0.039,0.115,0.076,0.152c0,0,0,0.039,0.039,0.039c0.152,0.115,0.343,0.076,0.419-0.076  c0.076-0.115,0.076-0.305-0.039-0.381c0-0.039-0.039-0.039-0.039-0.039c-0.076-0.039-0.152-0.076-0.228-0.039l0,0  c-0.076,0-0.152,0.039-0.191,0.115C56.174,161.636,56.136,161.75,56.174,161.826L56.174,161.826z M34.72,180.112  c-0.039,0.152,0.076,0.305,0.228,0.343l0,0c0.152,0.039,0.343-0.076,0.38-0.228c0.039-0.152-0.076-0.343-0.228-0.381  C34.911,179.845,34.759,179.921,34.72,180.112L34.72,180.112z M36.166,172.836c-0.039,0.152,0.076,0.343,0.228,0.381  c0.152,0.039,0.343-0.076,0.38-0.228l0,0c0.039-0.152-0.076-0.343-0.228-0.381C36.356,172.532,36.203,172.645,36.166,172.836  C36.166,172.798,36.166,172.836,36.166,172.836L36.166,172.836z M37.649,165.56c-0.039,0.152,0.076,0.343,0.267,0.343  c0.152,0.039,0.304-0.076,0.343-0.228c0.039-0.152-0.076-0.343-0.228-0.381C37.839,165.255,37.649,165.369,37.649,165.56z   M61.157,182.321c0.115,0.152,0.304,0.191,0.419,0.076c0.152-0.076,0.191-0.267,0.076-0.419c-0.076-0.152-0.267-0.191-0.419-0.115  l0,0C61.119,181.979,61.08,182.169,61.157,182.321L61.157,182.321L61.157,182.321z M57.049,176.151  c0.115,0.152,0.304,0.191,0.419,0.076c0.152-0.076,0.191-0.267,0.076-0.419c-0.076-0.152-0.267-0.191-0.419-0.115l0,0  C57.01,175.808,56.973,175.998,57.049,176.151L57.049,176.151L57.049,176.151z M52.94,169.979c0.115,0.152,0.304,0.191,0.419,0.076  c0.152-0.076,0.191-0.267,0.076-0.419c-0.076-0.152-0.267-0.191-0.419-0.076C52.903,169.636,52.864,169.827,52.94,169.979  L52.94,169.979L52.94,169.979z M48.832,163.808c0.115,0.152,0.304,0.191,0.419,0.076c0.152-0.076,0.191-0.267,0.076-0.419  c-0.076-0.152-0.267-0.191-0.419-0.076C48.794,163.464,48.756,163.655,48.832,163.808L48.832,163.808L48.832,163.808z   M31.677,163.541c0.115,0.039,0.267,0,0.304-0.115c0.039-0.115,0-0.267-0.115-0.305l0,0c-0.115-0.039-0.228,0-0.304,0.115l0,0  C31.486,163.35,31.562,163.464,31.677,163.541L31.677,163.541z M33.769,158.321c0.115,0.039,0.228,0,0.304-0.115l0,0  c0.039-0.115,0-0.267-0.115-0.305l0,0c-0.115-0.039-0.228,0-0.304,0.115l0,0C33.579,158.169,33.617,158.284,33.769,158.321  C33.731,158.321,33.769,158.321,33.769,158.321L33.769,158.321z M48.832,178.703c0.039,0.115,0.191,0.152,0.304,0.115  c0.115-0.039,0.152-0.191,0.115-0.305c-0.039-0.115-0.152-0.191-0.304-0.115c0,0,0,0-0.039,0  C48.832,178.475,48.794,178.588,48.832,178.703L48.832,178.703z M46.626,173.56c0.039,0.115,0.191,0.152,0.304,0.115  c0.115-0.039,0.152-0.191,0.115-0.305c-0.039-0.115-0.191-0.191-0.304-0.115l0,0C46.626,173.332,46.589,173.445,46.626,173.56  L46.626,173.56z M44.458,168.417c0.039,0.115,0.191,0.152,0.304,0.115s0.152-0.191,0.115-0.305  c-0.039-0.115-0.191-0.152-0.304-0.115l0,0C44.458,168.188,44.382,168.303,44.458,168.417L44.458,168.417z M42.252,163.274  c0.039,0.115,0.191,0.152,0.304,0.115l0,0c0.115-0.039,0.191-0.191,0.115-0.305l0,0c-0.039-0.115-0.191-0.191-0.304-0.115  C42.252,163.008,42.176,163.16,42.252,163.274L42.252,163.274L42.252,163.274z M37.002,178.132c0,0.115,0.115,0.228,0.228,0.228  c0.115,0,0.228-0.115,0.228-0.228s-0.115-0.228-0.228-0.228l0,0C37.078,177.903,37.002,178.017,37.002,178.132L37.002,178.132z   M36.926,172.532c0,0.115,0.115,0.228,0.228,0.228c0.115,0,0.228-0.115,0.228-0.228l0,0c0-0.115-0.076-0.228-0.228-0.228l0,0  C37.041,172.303,36.926,172.417,36.926,172.532L36.926,172.532L36.926,172.532z M36.85,166.969c0,0.115,0.115,0.228,0.228,0.228l0,0  c0.115,0,0.228-0.076,0.228-0.228l0,0c0-0.115-0.115-0.228-0.228-0.228C36.965,166.703,36.85,166.817,36.85,166.969  C36.85,166.932,36.85,166.932,36.85,166.969L36.85,166.969z M36.774,161.369c0,0.115,0.115,0.228,0.228,0.228l0,0  c0.115,0,0.228-0.115,0.228-0.228l0,0c0-0.115-0.115-0.228-0.228-0.228l0,0C36.888,161.141,36.774,161.217,36.774,161.369  L36.774,161.369z M56.782,170.055c0.076,0.076,0.228,0.076,0.304,0l0,0c0.076-0.076,0.115-0.228,0-0.305l0,0  c-0.115-0.076-0.228-0.076-0.343,0C56.706,169.827,56.706,169.941,56.782,170.055L56.782,170.055z M52.788,166.132  c0.115,0.076,0.228,0.076,0.343,0c0.076-0.076,0.076-0.228,0-0.305s-0.228-0.076-0.343,0S52.674,166.055,52.788,166.132z   M48.794,162.208c0.076,0.076,0.228,0.076,0.304,0l0,0c0.076-0.076,0.076-0.228,0-0.305c-0.076-0.076-0.228-0.076-0.304,0l0,0  C48.68,161.979,48.68,162.132,48.794,162.208L48.794,162.208L48.794,162.208z M35.595,165.826c0,0.076,0.076,0.115,0.152,0.115  c0.076,0,0.115-0.076,0.115-0.152s-0.076-0.115-0.152-0.115l0,0C35.634,165.674,35.595,165.75,35.595,165.826L35.595,165.826z   M35.063,162.817c0,0.076,0.076,0.115,0.152,0.115l0,0c0.076,0,0.115-0.076,0.115-0.115l0,0c0-0.076-0.076-0.115-0.152-0.115l0,0  C35.1,162.665,35.063,162.741,35.063,162.817z M34.53,159.808c0,0.076,0.076,0.115,0.152,0.115l0,0c0.076,0,0.115-0.076,0.115-0.152  c0-0.076-0.076-0.115-0.152-0.115C34.568,159.655,34.53,159.732,34.53,159.808L34.53,159.808z M29.927,160.988  c0,0.076,0.039,0.152,0.115,0.152s0.152-0.039,0.152-0.115c0-0.076-0.039-0.152-0.115-0.152  C30.041,160.874,29.965,160.912,29.927,160.988L29.927,160.988z M30.612,158.017c0,0.076,0.039,0.152,0.115,0.152  c0.076,0.039,0.152,0,0.152-0.076l0,0c0-0.076-0.039-0.152-0.115-0.152C30.688,157.902,30.612,157.941,30.612,158.017  L30.612,158.017z M40.806,162.132c0.039,0.076,0.115,0.076,0.152,0.039c0.076-0.039,0.076-0.115,0.039-0.191l0,0  c-0.039-0.076-0.115-0.076-0.152-0.039l0,0C40.806,162.017,40.768,162.093,40.806,162.132L40.806,162.132z M39.17,159.579  c0.039,0.076,0.115,0.076,0.191,0.039l0,0c0.076-0.039,0.076-0.115,0.039-0.191s-0.115-0.076-0.191-0.039l0,0  C39.17,159.426,39.133,159.502,39.17,159.579L39.17,159.579L39.17,159.579z M39.17,170.741c0.076,0.115,0.191,0.115,0.304,0.076l0,0  c0.076-0.039,0.115-0.152,0.076-0.267l0,0c-0.039-0.076-0.152-0.115-0.267-0.076l0,0C39.133,170.512,39.094,170.627,39.17,170.741  L39.17,170.741L39.17,170.741z M36.47,166.436c0.039,0.076,0.152,0.115,0.267,0.076l0,0c0.115-0.039,0.115-0.191,0.076-0.267l0,0  c-0.076-0.115-0.191-0.115-0.304-0.076C36.432,166.208,36.394,166.36,36.47,166.436L36.47,166.436L36.47,166.436z M33.769,162.169  c0.076,0.115,0.191,0.115,0.304,0.076c0.115-0.076,0.115-0.191,0.076-0.267l0,0c-0.076-0.115-0.191-0.115-0.304-0.076  C33.769,161.941,33.731,162.093,33.769,162.169L33.769,162.169z M31.106,157.902c0.076,0.076,0.191,0.115,0.304,0.076  c0.076-0.076,0.115-0.191,0.076-0.305c-0.076-0.115-0.191-0.115-0.267-0.076l0,0C31.069,157.674,31.03,157.788,31.106,157.902  L31.106,157.902z M44.876,161.865c0.076,0.076,0.228,0.039,0.304-0.039l0,0c0.076-0.076,0.039-0.228-0.039-0.305  c-0.076-0.076-0.228-0.039-0.267,0.039C44.762,161.636,44.762,161.788,44.876,161.865L44.876,161.865z"/>
<linearGradient id="sweater_1_-i2" gradientUnits="userSpaceOnUse" x1="3423.4231" y1="3032.6387" x2="3440.8672" y2="4631.6582" gradientTransform="matrix(0.0741 0 0 0.0741 -184.2541 -141.1613)">
	<stop offset="0" style="stop-color:#23286B"/>
	<stop offset="1" style="stop-color:#151A4F"/>
</linearGradient>
<path id="sweater-i2" fill="url(#sweater_1_-i2)" d="M126.583,56.568c0,0-20.008-1.409-43.022,8S58.799,82.32,45.713,88.187  c-13.085,5.867-46.825,14.476-45.685,52.115c0,0,19.21,24.686,91.483,21.334l47.776-92.649  C139.288,68.987,130.006,67.539,126.583,56.568z"/>
<path id="R_sleeve-i2" fill="#23286B" d="M140.924,67.044c0,0-9.738,31.696-8.179,53.182s4.109,28.8,19.856,38.553  c12.286,7.619,23.736,13.828,23.736,13.828l-15.064,60.496c0,0-21.226-3.085-30.849-18.363  c-10.841-17.181-19.932-17.905-29.594-20.952c-9.7-3.009-29.479-15.315-24.687-47.848c4.793-32.533,17.117-56.115,48.27-89.41l0,0"/>
<linearGradient id="neck_1_-i2" gradientUnits="userSpaceOnUse" x1="4163.0894" y1="2861.7974" x2="4429.3174" y2="2574.2708" gradientTransform="matrix(0.0741 0 0 0.0741 -184.2541 -141.1613)">
	<stop offset="0" style="stop-color:#FFBEB6"/>
	<stop offset="1" style="stop-color:#F2A19C"/>
</linearGradient>
<path id="neck-i2" fill="url(#neck_1_-i2)" d="M150.471,53.711c-2.548,3.239-7.988,10.324-9.548,13.333c0,0-10.042,5.105-16.509-10.515  c0-0.115,7.988-3.505,11.906-6.743C140.696,52.072,145.526,53.444,150.471,53.711z"/>
<path id="face-i2" fill="#FFBEB6" d="M174.169,37.71c-0.532,0.152-0.951,0.495-1.179,0.991c-1.978,4.228-12.553,23.2-36.821,10.972  c0,0-0.115-0.039-0.304-0.152l0,0c0.951,0.267,1.902-0.267,2.206-1.181c0.343-1.067,0.228-2.933-1.217-6.362  c-3.347-7.809,0.989-12.267,3.614-11.01c2.663,1.257,4.869,12,8.635,6.819c2.587-3.543,2.396-8.572,3.727-11.352  c0.228-0.495,0.684-0.839,1.217-0.952l16.965-4.152c0.115,0.343,0.191,0.724,0.228,1.067c0,0.115,0.039,0.228,0.115,0.381  c0.419,1.105,2.853,7.048,5.706,8.952C180.027,33.748,178.771,36.529,174.169,37.71z"/>
<path id="hair-i2" fill="#23286B" d="M124.072,32.834l29.214-7.124c-1.826,2.515-1.331,8.228-4.146,12.115  c-3.766,5.143-5.972-5.562-8.635-6.819c-2.624-1.257-6.961,3.2-3.614,11.01s-0.419,7.657-0.419,7.657  C128.066,48.225,124.757,35.92,124.072,32.834z"/>
<path id="mouth-i2" fill="#1C2868" d="M172.001,44.911c-1.255,1.867-3.766,2.4-5.668,1.143c-0.684-0.457-1.217-1.105-1.522-1.867  c-0.228-0.572,0.608-1.067,0.837-0.457c0.608,1.6,2.359,2.439,3.994,1.867c0.608-0.228,1.141-0.648,1.483-1.181  C171.545,43.92,172.381,44.415,172.001,44.911L172.001,44.911z"/>
<path id="cap_bottom-i2" fill="#F1B505" d="M196.992,15.005L123.768,32.91l0,0l-0.647-2.705l0,0l71.55-17.485  c0.951-0.228,1.902,0.343,2.13,1.295l0,0L196.992,15.005L196.992,15.005z"/>
<linearGradient id="cap_top_1_-i2" gradientUnits="userSpaceOnUse" x1="4725.9717" y1="1911.3318" x2="3851.146" y2="2556.0891" gradientTransform="matrix(0.0741 0 0 0.0741 -184.2541 -141.1613)">
	<stop offset="0" style="stop-color:#F1B505"/>
	<stop offset="1" style="stop-color:#D69B09"/>
</linearGradient>
<path id="cap_top-i2" fill="url(#cap_top_1_-i2)" d="M170.631,18.586l-47.548,11.582l0,0l-1.331-5.372  c-2.282-9.372,3.462-18.819,12.819-21.105l12.933-3.162c9.738-2.4,19.59,3.619,21.948,13.372L170.631,18.586L170.631,18.586z"/>

</g>
</g>

<!-- ITEM 3 -->
<g transform="translate(1075.0 -34.0) scale(2.1420303609520728 2.164258568299672) rotate(0.0 112.74349999999998 57.756499999999996)">
<g transform="translate(532.736 -405.297)">

<ellipse fill="#D3E3FE" cx="-432.219" cy="462.458" rx="57.115" ry="57.161"/>
<path fill="#D3E3FE" d="M-532.727,511.549c-0.004,0.118-0.009,0.237-0.009,0.356c0,4.918,3.983,8.905,8.897,8.905  s8.897-3.986,8.897-8.905c0-0.119-0.004-0.238-0.009-0.356C-514.951,511.549-532.727,511.549-532.727,511.549z"/>
<path fill="#A1C3FC" d="M-500.739,489.816c-0.007,0.196-0.014,0.393-0.014,0.591c0,8.157,6.607,14.769,14.757,14.769  c8.15,0,14.758-6.613,14.758-14.769c0-0.198-0.007-0.395-0.014-0.591H-500.739z"/>
<path fill="#EEEEEE" d="M-395.332,439.764c-0.019,0.469-0.036,0.937-0.036,1.41c0,19.472,15.772,35.255,35.226,35.255  c19.456,0,35.226-15.785,35.226-35.255c0-0.473-0.017-0.941-0.036-1.41C-324.952,439.764-395.332,439.764-395.332,439.764z"/>
<path fill="#D3E3FE" d="M-358.405,439.764c-0.013,0.341-0.026,0.681-0.026,1.025c0,14.145,11.458,25.611,25.591,25.611  c14.134,0,25.591-11.467,25.591-25.611c0-0.343-0.013-0.684-0.026-1.025H-358.405z"/>

</g>
</g>

<!-- ITEM 4 -->
<g transform="translate(507.0 613.0) scale(0.17 0.17) rotate(0.0 49.99999999999999 49.99999999999999)">
<g transform="translate(-0.0 -0.0)">

<circle fill="#A1C3FC" cx="50" cy="50" r="50"/>

</g>
</g>

<!-- ITEM 5 -->
<g transform="translate(48.0 859.0) scale(0.17 0.17) rotate(0.0 49.99999999999999 49.99999999999999)">
<g transform="translate(-0.0 -0.0)">

<circle fill="#A1C3FC" cx="50" cy="50" r="50"/>

</g>
</g>

<!-- ITEM 6 -->
<g transform="translate(229.0 995.0) scale(0.15 0.15) rotate(0.0 50.0 50.0)">
<g transform="translate(-0.0 -0.0)">

<circle fill="#A1C3FC" cx="50" cy="50" r="50"/>

</g>
</g>

<!-- ITEM 7 -->
<g transform="translate(56.0 339.0) scale(0.07 0.07) rotate(0.0 50.0 50.0)">
<g transform="translate(-0.0 -0.0)">

<circle fill="#A1C3FC" cx="50" cy="50" r="50"/>

</g>
</g>

<!-- ITEM 8 -->
<g transform="translate(196.0 627.0) scale(0.2 0.2) rotate(0.0 50.0 50.0)">
<g transform="translate(-0.0 -0.0)">

<circle fill="#A1C3FC" cx="50" cy="50" r="50"/>

</g>
</g>

<!-- ITEM 9 -->
<g transform="translate(248.0 39.0) scale(1.68 1.6724137931034482) rotate(0.0 100.0 29.0)">
<g transform="translate(-0.0 -0.0)">

<g>
	<path fill="#DAE8FE" d="M0,0c0.667,32.55,26.914,58,59.238,58s58.59-25.45,59.257-58C118.495,0,0,0,0,0z"/>
	<path fill="#C3D9FD" d="M65.048,0c0.438,21.7,17.752,38.261,39.067,38.261S142.763,21.701,143.182,0C143.182,0,65.048,0,65.048,0z"/>
	<path fill="#AFCCFC" d="M107.029,0c0.514,25.316,21.124,45.513,46.476,45.513S199.486,25.316,200,0H107.029z"/>
</g>

</g>
</g>

              </svg>