<?xml version="1.0" encoding="UTF-8"?><svg version="1.1" xmlns="http://www.w3.org/2000/svg" xmlns:xlink="http://www.w3.org/1999/xlink" viewBox="0 0 1600 1200" width="1600" height="1200" x="0px" y="0px">
    
    
    <!-- ITEM 0 -->
    <g>
        <defs>
            <clipPath id="clip-path-id-viewbox-item-0">
                <rect x="0.0" y="0.0" width="100.0" height="100.0"/>
            </clipPath>
        </defs>
        <g transform="translate(1411.0 720.0) rotate(0.0 -134.0 134.0) scale(-2.68 2.68)">
            <g clip-path="url(#clip-path-id-viewbox-item-0)" transform="translate(-0.0 -0.0)">
                
<path fill="#eeeeee" d="M100,94.784c-33.5,1.831-66.433,1.823-98.806,0c-1.48-32.248-1.699-62.847,0-90.939  C21.037,17.239,85.922,77.953,100,94.784z"/>

            </g>
        </g>
    </g>
    
    <!-- ITEM 1 -->
    <g>
        <defs>
            <clipPath id="clip-path-id-crop-item-1">
                
          <rect transform="scale(0.47101600000000005 0.4698700906344411)" x="92.0" y="0.0" width="158.0" height="331.0"/>
        
            </clipPath>
            
            <clipPath id="clip-path-id-viewbox-item-1">
                <rect x="0.0" y="0.0" width="117.754" height="155.527"/>
            </clipPath>
        </defs>
        <g clip-path="url(#clip-path-id-crop-item-1)" transform="translate(600.0 125.0) rotate(-49.25237004273496 -125.0 165.5) scale(-2.1230701292525094 2.1282478283513475)">
            <g clip-path="url(#clip-path-id-viewbox-item-1)" transform="translate(-0.0 -0.0)">
                
<g>
	
		<linearGradient id="R_sleeve_1_-i1" gradientUnits="userSpaceOnUse" x1="126.5879" y1="108.2026" x2="195.3036" y2="212.2967" gradientTransform="matrix(0.8435 -0.0179 -0.0179 0.9223 -46.0814 -66.0151)">
		<stop offset="0" style="stop-color:#A1C3FC"/>
		<stop offset="0.6955" style="stop-color:#81AEF2"/>
		<stop offset="1" style="stop-color:#78A9EF"/>
	</linearGradient>
	<path id="R_sleeve-i1" fill="url(#R_sleeve_1_-i1)" d="M55.276,0c0,0,21.291,35.908,22.332,51.797   c1.226,18.708-3.598,27.042-10.195,33.419c-8.9,8.603-14.78,13.684-14.78,13.684l23.55,46.814c0,0,15.831-7.878,20.296-23.06   c5.022-17.074,19.172-31.546,20.617-38.462c1.736-8.312-0.435-18.706-1.083-23.101C111.865,32.959,105.875,23.429,87.13,0l0,0"/>
	<path id="R_hand-i1" fill="#FFBEB6" d="M64.924,123.329c-5.303,2.319-9.479,4.109-11.375,5.023   c-7.131,3.455-12.203,15.349-22.519,24.059c-10.326,8.7-26.484-3.387-26.984-5.235c-0.5-1.857,14.166-6.255,15.157-7.343   s-8.363,1.742-13.28,3.426s-6.188-1.068-5.88-3.368c0.308-2.31,13.088-5.187,20.623-8.873c7.535-3.676,6.438-7.064-2.512-9.258   c-8.95-2.185-4.946-7.891-4.946-7.891s3.253,0.577,14.878,4.205c11.442,3.57,15.648,3.445,29.708-8.931L64.924,123.329z"/>
</g>

            </g>
        </g>
    </g>
    
    <!-- ITEM 2 -->
    <g>
        <defs>
            <clipPath id="clip-path-id-viewbox-item-2">
                <rect x="0.0" y="0.0" width="457.1" height="348.7"/>
            </clipPath>
        </defs>
        <g transform="translate(532.0 219.0) rotate(-20.369530726134254 234.5 178.5) scale(1.0260336906584993 1.023802695726986)">
            <g clip-path="url(#clip-path-id-viewbox-item-2)" transform="translate(-0.0 -0.0)">
                

<title>puzzle_piece_green_1</title>
<g>
	<path d="M407,124.3h-58.3V0H0v348.7h124.4v-58.3c0-27.6,22.4-50,50-50c27.6,0,50,22.4,50,50v58.3h124.4V224.3h58.3   c27.6,0,50-22.4,50-50.1C457,146.6,434.6,124.3,407,124.3L407,124.3L407,124.3z" style="fill:#e94a47;"/>
</g>

            </g>
        </g>
    </g>
    
    <!-- ITEM 3 -->
    <g>
        <defs>
            <clipPath id="clip-path-id-viewbox-item-3">
                <rect x="0.0" y="0.0" width="348.7" height="457.0"/>
            </clipPath>
        </defs>
        <g transform="translate(1133.0 782.0) rotate(89.9999999999999 167.5 220.0) scale(0.9607112130771437 0.962800875273523)">
            <g clip-path="url(#clip-path-id-viewbox-item-3)" transform="translate(-0.0 -0.0)">
                

<title>puzzle_piece_light_green_1</title>
<g>
	<path d="M348.7,0H0v124.3h58.3c27.6,0,50,22.4,50,50s-22.4,50-50,50H0v124.4h124.3V407c0,27.6,22.4,50,50,50   s50-22.4,50-50v-58.3h124.4V0z" style="fill:#dddddd;"/>
</g>

            </g>
        </g>
    </g>
    
    <!-- ITEM 4 -->
    <g>
        <defs>
            <clipPath id="clip-path-id-viewbox-item-4">
                <rect x="0.0" y="0.0" width="348.8" height="565.3"/>
            </clipPath>
        </defs>
        <g transform="translate(1189.0 396.0) rotate(-180.0 166.5 271.0) scale(0.9547018348623852 0.9587829471077305)">
            <g clip-path="url(#clip-path-id-viewbox-item-4)" transform="translate(-0.0 -0.0)">
                

<title>puzzle_piece_light_green_2</title>
<g>
	<path d="M290.4,232.6h58.3V108.3H224.3V50c0-27.6-22.4-50-50-50s-50,22.4-50,50v58.3H0V457h124.4v58.3   c0,27.6,22.4,50,50,50c27.6,0,50-22.4,50-50V457h124.4V332.7h-58.3c-27.6,0-50.1-22.4-50.1-50S262.8,232.6,290.4,232.6z" style="fill:#eeeeee;"/>
</g>

            </g>
        </g>
    </g>
    
    <!-- ITEM 5 -->
    <g>
        <defs>
            <clipPath id="clip-path-id-viewbox-item-5">
                <rect x="0.0" y="0.0" width="457.1" height="457.0"/>
            </clipPath>
        </defs>
        <g transform="translate(1190.0 730.0) rotate(0.0 -219.5 219.5) scale(-0.9604025377379128 0.9606126914660832)">
            <g clip-path="url(#clip-path-id-viewbox-item-5)" transform="translate(-0.0 -0.0)">
                

<title>puzzle_piece_dark_green_4</title>
<g>
	<path d="M0,457V332.6h58.3c27.6,0,50-22.4,50-50s-22.4-50-50-50H0V108.3h124.4V50c0-27.6,22.4-50,50-50   c27.6,0,50,22.4,50,50v58.3h124.4v124.3h58.3c27.6,0,50,22.4,50,50s-22.4,50-50,50h-58.3V457H0z" style="fill:#eeeeee;"/>
</g>

            </g>
        </g>
    </g>
    
    <!-- ITEM 6 -->
    <g>
        <defs>
            <clipPath id="clip-path-id-viewbox-item-6">
                <rect x="0.0" y="0.0" width="238.0" height="450.0"/>
            </clipPath>
        </defs>
        <g transform="translate(143.0 33.0) rotate(0.0 299.0 565.5) scale(2.5126050420168067 2.513333333333333)">
            <g clip-path="url(#clip-path-id-viewbox-item-6)" transform="translate(-0.0 -0.0)">
                
<linearGradient id="L_hand_1_-i7" gradientUnits="userSpaceOnUse" x1="-2688.3562" y1="6119.542" x2="-1547.7419" y2="5753.5962" gradientTransform="matrix(-0.0622 0.0403 0.0403 0.0622 -220.2673 -122.9462)">
	<stop offset="0" style="stop-color:#FFBEB6"/>
	<stop offset="1" style="stop-color:#F29B94"/>
</linearGradient>
<path id="L_hand-i7" fill="url(#L_hand_1_-i7)" d="M142.265,161.943c6.197-1.119,11.717-2.093,15.532-2.878  c15.364-3.136,24.766-4.791,36.943-0.516c12.127,4.198,12.592,4.519,22.073,5.193c9.481,0.673,19.878-11.552,19.51-12.12  s-23.231-0.928-9.985-3.095c13.245-2.166,14.57-11.265,7.194-8.065c-7.35,3.184-21.985,2.184-25.935,1.74  c-4.054-0.379-2.389-3.691,4.727-7.237c7.166-3.468,6.285-8.905,2.144-5.967c-4.048,3.024-12.246,2.692-21.02,8.373  c-8.774,5.681-21.006,3.528-40.939,4.018c-2.551,0.076-5.244-0.011-7.833-0.165L142.265,161.943z"/>
<g id="man-i7">
	
		<linearGradient id="L_shoe-2_1_-i7" gradientUnits="userSpaceOnUse" x1="5929.0879" y1="7363.7578" x2="4040.0017" y2="7469.4409" gradientTransform="matrix(0.0741 0 0 0.0741 -230.5491 -118.0138)">
		<stop offset="0.1291" style="stop-color:#428DFC"/>
		<stop offset="0.9987" style="stop-color:#1D72D8"/>
	</linearGradient>
	<path id="L_shoe-2-i7" fill="url(#L_shoe-2_1_-i7)" d="M84.759,414.895l-12.58,35.102L160.992,450c0,0-4.554-8.786-19.734-15.293   c-15.18-6.507-29.35-19.811-29.35-19.811L84.759,414.895"/>
	<path id="R_shoe-2-i7" fill="#428DFC" d="M14.861,414.876L2.28,449.978l88.812,0.003c0,0-4.554-8.786-19.734-15.293   c-15.181-6.507-29.35-19.811-29.35-19.811H14.861"/>
	
		<linearGradient id="L_trousers-2_1_-i7" gradientUnits="userSpaceOnUse" x1="5922.6401" y1="6356.6733" x2="3994.7834" y2="5357.5649" gradientTransform="matrix(0.0741 0 0 0.0741 -230.5491 -118.0138)">
		<stop offset="0" style="stop-color:#23286B"/>
		<stop offset="1" style="stop-color:#151A4F"/>
	</linearGradient>
	<path id="L_trousers-2-i7" fill="url(#L_trousers-2_1_-i7)" d="M113.623,279.497c-1.525-19.626-6.659-37.5-9.806-55.419   c-0.435-2.472-1.012-4.911-1.337-7.4c-1.553-11.924-6.595-50.427-7.635-55.625l-23.156,2.692l-11.109,1.752l0,0   c0,0-7.878,1.512-13.761,4.613l0,0c-2.273,11.2-2.801,25.102,0.913,41.395c10.704,46.991,11.536,40.392,9.889,73.363   c-1.656,32.971,3.706,21.843,5.351,56.462c1.647,34.627-9.839,28.679,7.491,73.397l41.439,0.172   C111.906,414.9,115.935,309.249,113.623,279.497z"/>
	<path id="R_trousers-2-i7" fill="#23286B" d="M95.497,231.064c0,0,3.857-64.655,6.121-72.746l-69.905,4.1l-3.836,7.421   c-0.745-0.152,0.688,0.153,0,0c-5.592,20.84-4.881,42.872,2.043,63.309c17.077,51.265,5.342,48.837-0.192,64.35   c-5.564,15.503-8.538,24.986-7.274,39.638C23.74,351.8,5.199,363.247,1.769,382.19c-3.409,18.964-0.841,32.816-0.841,32.816   l41.082-0.132c0,0,47.45-107.398,49.727-129.79C93.788,264.914,93.788,257.049,95.497,231.064z"/>
	<path id="texture-3-i7" opacity="0.86" fill="#FFFFFF" enable-background="new    " d="M37.449,170.37   c0.04,0.105,0.157,0.157,0.261,0.117c0.001,0,0.001,0,0.002-0.001c0.1-0.043,0.147-0.159,0.102-0.259   c-0.001-0.002-0.002-0.004-0.002-0.005c-0.04-0.105-0.157-0.157-0.261-0.117c-0.001,0-0.001,0-0.002,0.001   C37.453,170.153,37.409,170.268,37.449,170.37z M41.938,168.51c0.04,0.105,0.158,0.157,0.262,0.117c0.001,0,0.001,0,0.002-0.001   c0.105-0.042,0.156-0.161,0.115-0.267c-0.04-0.105-0.158-0.157-0.262-0.117c-0.001,0-0.001,0-0.002,0.001   C41.949,168.289,41.9,168.406,41.938,168.51L41.938,168.51z M46.439,166.65c0.032,0.1,0.138,0.155,0.239,0.122   c0.004-0.001,0.008-0.003,0.012-0.005c0.105-0.042,0.156-0.161,0.115-0.266c-0.04-0.105-0.158-0.157-0.262-0.117   c0,0-0.001,0-0.001,0.001c-0.097,0.036-0.147,0.145-0.111,0.242C46.432,166.635,46.435,166.642,46.439,166.65z M50.928,164.791   c0.04,0.105,0.158,0.157,0.261,0.117c0.001,0,0.001,0,0.002-0.001c0.102-0.049,0.146-0.173,0.096-0.275   c-0.044-0.091-0.148-0.136-0.245-0.108C50.938,164.568,50.886,164.687,50.928,164.791z M55.416,162.933   c0.04,0.105,0.157,0.157,0.261,0.117c0.001,0,0.001,0,0.002-0.001c0.105-0.042,0.156-0.161,0.115-0.267   c-0.04-0.105-0.157-0.157-0.261-0.117c-0.001,0-0.001,0-0.002,0.001C55.425,162.708,55.374,162.828,55.416,162.933L55.416,162.933z    M51.998,185.162c0.1,0.043,0.216-0.003,0.259-0.103c0-0.001,0.001-0.002,0.001-0.003c0.043-0.103-0.004-0.219-0.106-0.263   c-0.1-0.043-0.216,0.003-0.259,0.103c0,0.001-0.001,0.002-0.001,0.003C51.851,185,51.898,185.118,51.998,185.162L51.998,185.162z    M53.862,180.636c0.106,0.041,0.224-0.005,0.274-0.108c0.038-0.105-0.014-0.22-0.118-0.261c-0.091-0.047-0.204-0.009-0.251,0.083   c-0.004,0.007-0.007,0.015-0.01,0.024C53.714,180.475,53.761,180.592,53.862,180.636L53.862,180.636z M55.739,176.109   c0.1,0.043,0.216-0.003,0.259-0.103c0-0.001,0.001-0.002,0.001-0.003c0.049-0.103,0.005-0.224-0.098-0.273   c-0.102-0.049-0.224-0.005-0.273,0.098c-0.003,0.006-0.005,0.013-0.007,0.019C55.583,175.953,55.635,176.068,55.739,176.109   L55.739,176.109z M57.603,171.583c0.1,0.043,0.216-0.003,0.26-0.103c0-0.001,0.001-0.002,0.001-0.003   c0.042-0.107-0.005-0.227-0.108-0.278c-0.1-0.043-0.216,0.003-0.259,0.103c0,0.001-0.001,0.002-0.001,0.003   C57.453,171.412,57.499,171.532,57.603,171.583L57.603,171.583z M72.353,185.139c0.04,0.105,0.158,0.157,0.262,0.117   c0,0,0.001,0,0.001-0.001c0.097-0.036,0.147-0.145,0.111-0.242c-0.003-0.007-0.006-0.015-0.01-0.024   c-0.037-0.103-0.149-0.154-0.25-0.118C72.362,184.915,72.312,185.034,72.353,185.139L72.353,185.139z M37.984,159.619   c0.007,0.111,0.096,0.2,0.207,0.207c0.11-0.004,0.196-0.096,0.191-0.206v-0.001c0.004-0.111-0.083-0.204-0.194-0.209   C38.075,159.414,37.986,159.505,37.984,159.619L37.984,159.619z M42.842,159.641c0.003,0.033,0.011,0.065,0.027,0.094   c0.042,0.06,0.108,0.103,0.18,0.114c0.11-0.004,0.196-0.096,0.191-0.207v-0.001c0.008-0.107-0.072-0.2-0.178-0.209   c-0.005,0-0.011-0.001-0.015-0.001c-0.073,0.005-0.139,0.045-0.177,0.109C42.851,159.571,42.842,159.605,42.842,159.641   L42.842,159.641z M47.701,159.664c0.004,0.11,0.095,0.198,0.206,0.194c0.106,0.008,0.199-0.072,0.207-0.177   c0-0.005,0.001-0.012,0.001-0.018c-0.003-0.113-0.094-0.205-0.207-0.207C47.794,159.462,47.707,159.552,47.701,159.664   L47.701,159.664z M44.998,177.206c0.066,0.077,0.183,0.085,0.26,0.019c0.005-0.005,0.011-0.01,0.015-0.015   c0.077-0.07,0.084-0.189,0.014-0.267c-0.004-0.005-0.008-0.008-0.012-0.012c-0.066-0.077-0.183-0.085-0.26-0.019   c-0.005,0.005-0.011,0.01-0.015,0.015c-0.077,0.07-0.084,0.189-0.014,0.267C44.989,177.199,44.993,177.203,44.998,177.206   L44.998,177.206z M48.439,173.755c0.058,0.061,0.154,0.073,0.223,0.025l0.013-0.002c0.014,0,0.03-0.007,0.039-0.019   c0.047-0.045,0.069-0.11,0.058-0.174c-0.007-0.044-0.027-0.084-0.057-0.118c-0.076-0.077-0.199-0.078-0.276-0.004   c-0.081,0.077-0.084,0.206-0.006,0.287C48.435,173.751,48.437,173.753,48.439,173.755L48.439,173.755z M51.883,170.303   c0.078,0.073,0.2,0.069,0.273-0.009l0.001-0.001c0.077-0.068,0.085-0.187,0.017-0.263c-0.005-0.005-0.009-0.01-0.014-0.014   c-0.066-0.077-0.183-0.085-0.26-0.019c-0.005,0.005-0.011,0.01-0.015,0.015c-0.081,0.077-0.084,0.206-0.006,0.287   C51.879,170.3,51.881,170.302,51.883,170.303L51.883,170.303z M55.323,166.838c0.066,0.077,0.183,0.085,0.26,0.019   c0.005-0.005,0.011-0.01,0.015-0.015c0.081-0.077,0.084-0.206,0.006-0.287c-0.002-0.002-0.004-0.004-0.005-0.005   c-0.076-0.077-0.199-0.078-0.276-0.004c-0.081,0.079-0.083,0.207-0.005,0.288C55.321,166.835,55.322,166.837,55.323,166.838   L55.323,166.838z M62.041,184.481c0.007,0.111,0.096,0.2,0.207,0.207c0.115-0.002,0.207-0.096,0.205-0.211   c-0.002-0.114-0.094-0.205-0.207-0.205C62.136,184.28,62.047,184.369,62.041,184.481L62.041,184.481z M62.05,179.573   c0.004,0.11,0.095,0.198,0.206,0.194c0.106,0.008,0.199-0.072,0.207-0.177c0-0.005,0.001-0.012,0.001-0.018   c-0.003-0.113-0.094-0.205-0.207-0.207C62.144,179.372,62.057,179.461,62.05,179.573L62.05,179.573z M15.632,156.039   c0.013-0.002,0.029,0.01,0.042,0.008c0.205,0.026,0.391-0.12,0.417-0.325c0.001-0.008,0.002-0.016,0.002-0.025   c0.011-0.211-0.148-0.393-0.359-0.409c-0.037-0.006-0.073-0.006-0.11,0.001C15.619,155.541,15.625,155.791,15.632,156.039z    M24.515,156.312c-0.008,0.062,0.005,0.123,0.038,0.175c0.047,0.129,0.168,0.217,0.306,0.221l0.015,0.012   c0.211,0.01,0.391-0.151,0.404-0.362c0.017-0.209-0.136-0.393-0.345-0.411C24.72,155.941,24.538,156.101,24.515,156.312   L24.515,156.312z M33.711,156.971c-0.011,0.211,0.148,0.393,0.359,0.409c0.207,0.016,0.388-0.138,0.406-0.345   c0-0.001,0-0.002,0-0.003c0.011-0.211-0.148-0.393-0.359-0.409c-0.201-0.022-0.382,0.124-0.404,0.325   C33.712,156.956,33.711,156.963,33.711,156.971L33.711,156.971z M25.519,186.339c0.132,0.159,0.368,0.18,0.527,0.049   c0.005-0.004,0.009-0.008,0.013-0.012c0.157-0.138,0.172-0.376,0.036-0.534c-0.132-0.159-0.368-0.18-0.527-0.049   c-0.005,0.004-0.009,0.008-0.013,0.012C25.399,185.944,25.382,186.182,25.519,186.339L25.519,186.339z M32.462,180.248   c0.134,0.159,0.372,0.18,0.531,0.046c0.004-0.003,0.007-0.006,0.011-0.009c0.161-0.137,0.178-0.38,0.04-0.54   c-0.002-0.002-0.004-0.005-0.005-0.006c-0.132-0.156-0.366-0.175-0.522-0.043c-0.002,0.002-0.005,0.004-0.006,0.005   C32.35,179.842,32.331,180.081,32.462,180.248L32.462,180.248z M39.417,174.155c0.14,0.158,0.381,0.174,0.542,0.036   c0.156-0.143,0.172-0.384,0.034-0.546c-0.14-0.157-0.381-0.173-0.542-0.037c-0.161,0.138-0.178,0.38-0.04,0.54   C39.413,174.151,39.415,174.154,39.417,174.155L39.417,174.155z M46.359,168.064c0.106,0.111,0.268,0.149,0.412,0.095   c0.049-0.005,0.094-0.027,0.129-0.059c0.057-0.051,0.096-0.12,0.11-0.196l0.013-0.002c0.049-0.209-0.081-0.418-0.29-0.467   c-0.12-0.029-0.247,0.003-0.34,0.083C46.237,167.661,46.223,167.903,46.359,168.064L46.359,168.064z M53.314,161.959   c0.129,0.161,0.366,0.186,0.526,0.055c0.002-0.001,0.003-0.003,0.005-0.004c0.159-0.141,0.179-0.382,0.047-0.548   c-0.134-0.159-0.372-0.179-0.531-0.046c-0.004,0.003-0.007,0.006-0.01,0.009c-0.157,0.128-0.179,0.36-0.05,0.518   C53.304,161.948,53.308,161.953,53.314,161.959L53.314,161.959z M53.207,209.699c-0.011,0.211,0.148,0.393,0.359,0.409   c0.201,0.022,0.382-0.124,0.404-0.325c0.001-0.007,0.002-0.015,0.002-0.024c0.011-0.211-0.148-0.393-0.359-0.409   c-0.207-0.016-0.388,0.137-0.405,0.345C53.208,209.697,53.208,209.698,53.207,209.699L53.207,209.699z M53.836,200.422   c-0.014,0.21,0.143,0.393,0.355,0.409c0.21,0.014,0.392-0.144,0.409-0.355c0-0.003,0-0.005,0-0.007   c0.017-0.209-0.136-0.393-0.345-0.411C54.04,200.052,53.857,200.211,53.836,200.422L53.836,200.422z M54.475,191.131   c-0.016,0.209,0.138,0.392,0.347,0.409c0.004,0,0.007,0.001,0.011,0.001c0.201,0.022,0.382-0.124,0.404-0.325   c0.001-0.007,0.002-0.015,0.002-0.024c0.007-0.213-0.15-0.397-0.361-0.422C54.668,190.759,54.489,190.92,54.475,191.131   L54.475,191.131z M55.103,181.854c-0.014,0.21,0.144,0.393,0.355,0.408c0.21,0.014,0.392-0.145,0.408-0.355   c0-0.002,0-0.004,0-0.006c0.016-0.21-0.14-0.395-0.352-0.411c-0.21-0.016-0.395,0.14-0.411,0.352   C55.103,181.847,55.103,181.85,55.103,181.854z M55.744,172.563c-0.02,0.207,0.131,0.391,0.338,0.411s0.39-0.131,0.411-0.338   c0.001-0.007,0.001-0.015,0.002-0.024c0.019-0.207-0.133-0.392-0.34-0.411c-0.002,0-0.004,0-0.005-0.001   C55.937,172.191,55.756,172.353,55.744,172.563L55.744,172.563z M21.291,170.298c0.068,0.2,0.285,0.308,0.485,0.24   s0.307-0.285,0.24-0.485c-0.001-0.003-0.002-0.005-0.003-0.008c-0.068-0.2-0.286-0.306-0.485-0.239   c-0.199,0.068-0.306,0.286-0.239,0.485C21.29,170.294,21.29,170.296,21.291,170.298z M30.031,167.351   c0.063,0.2,0.275,0.314,0.475,0.254c0.199-0.073,0.303-0.291,0.235-0.492c-0.064-0.197-0.274-0.305-0.471-0.242   c-0.198,0.064-0.305,0.274-0.242,0.472C30.029,167.346,30.029,167.348,30.031,167.351L30.031,167.351z M38.757,164.419   c0.072,0.198,0.291,0.299,0.489,0.228c0.198-0.072,0.299-0.291,0.228-0.489c-0.071-0.195-0.286-0.297-0.482-0.231   C38.793,164,38.69,164.218,38.757,164.419L38.757,164.419z M47.485,161.486c0.07,0.199,0.287,0.306,0.487,0.239   c0.204-0.068,0.315-0.288,0.248-0.493c-0.07-0.199-0.287-0.306-0.487-0.239C47.532,161.066,47.425,161.283,47.485,161.486   L47.485,161.486z M35.686,200.572c0.181,0.097,0.409,0.029,0.506-0.154c0.003-0.005,0.005-0.01,0.007-0.014   c0.093-0.192,0.013-0.422-0.178-0.516c-0.001-0.001-0.002-0.001-0.004-0.002c-0.183-0.096-0.411-0.027-0.507,0.157   c-0.002,0.004-0.004,0.007-0.005,0.011C35.417,200.248,35.496,200.477,35.686,200.572L35.686,200.572z M39.789,192.246   c0.181,0.097,0.409,0.029,0.505-0.154c0.003-0.005,0.005-0.01,0.007-0.014c0.092-0.191,0.013-0.422-0.178-0.516   c-0.001-0.001-0.003-0.001-0.004-0.002c-0.183-0.096-0.411-0.027-0.507,0.157c-0.002,0.004-0.004,0.007-0.005,0.011   C39.519,191.922,39.599,192.15,39.789,192.246L39.789,192.246z M43.892,183.935c0.192,0.088,0.418,0.007,0.511-0.181   c0.091-0.191,0.017-0.418-0.168-0.519c-0.193-0.091-0.424-0.017-0.526,0.17C43.624,183.602,43.703,183.833,43.892,183.935   L43.892,183.935z M47.994,175.596c0.181,0.097,0.409,0.029,0.506-0.154c0.003-0.005,0.005-0.01,0.007-0.014   c0.09-0.191,0.016-0.418-0.168-0.519c-0.191-0.089-0.419-0.008-0.511,0.181c-0.096,0.178-0.03,0.401,0.149,0.497   C47.981,175.59,47.987,175.593,47.994,175.596L47.994,175.596z M52.097,167.285c0.192,0.088,0.418,0.007,0.511-0.181   c0.091-0.183,0.018-0.404-0.165-0.496c-0.005-0.003-0.01-0.005-0.015-0.007c-0.173-0.095-0.391-0.033-0.487,0.14   c-0.005,0.008-0.009,0.017-0.013,0.026c-0.097,0.19-0.024,0.421,0.166,0.518C52.097,167.284,52.097,167.285,52.097,167.285   L52.097,167.285z M70.641,203.198c0.07,0.199,0.287,0.306,0.487,0.239c0.197-0.066,0.303-0.278,0.237-0.475   c0-0.001-0.001-0.002-0.001-0.003c-0.05-0.196-0.25-0.314-0.445-0.262c-0.01,0.003-0.02,0.005-0.031,0.009   C70.693,202.78,70.586,202.994,70.641,203.198L70.641,203.198z M67.714,194.359c0.073,0.199,0.286,0.308,0.489,0.251   c0.199-0.073,0.303-0.291,0.235-0.492c-0.067-0.199-0.283-0.306-0.483-0.24C67.756,193.946,67.649,194.159,67.714,194.359   L67.714,194.359z M64.787,185.533c0.057,0.194,0.261,0.303,0.455,0.246c0.006-0.002,0.013-0.004,0.019-0.006   c0.201-0.062,0.315-0.275,0.254-0.477c-0.002-0.005-0.004-0.011-0.005-0.016c-0.068-0.2-0.285-0.308-0.485-0.24   c-0.2,0.068-0.307,0.285-0.24,0.485C64.785,185.528,64.786,185.53,64.787,185.533z M61.846,176.695   c0.07,0.199,0.287,0.306,0.487,0.239c0.195-0.06,0.302-0.269,0.242-0.462c-0.002-0.005-0.004-0.01-0.005-0.015   c-0.063-0.2-0.275-0.314-0.475-0.254C61.893,176.273,61.782,176.491,61.846,176.695L61.846,176.695z M16.034,165.799   c0.055-0.075,0.077-0.168,0.06-0.259c-0.015-0.054-0.047-0.103-0.088-0.14C16.023,165.522,16.029,165.66,16.034,165.799   L16.034,165.799z M23.438,163.842c0.038,0.178,0.213,0.291,0.391,0.254c0.005-0.001,0.01-0.002,0.014-0.004   c0.181-0.046,0.291-0.231,0.245-0.411c-0.045-0.179-0.225-0.288-0.405-0.247c-0.178,0.04-0.29,0.217-0.25,0.396   C23.436,163.834,23.437,163.838,23.438,163.842L23.438,163.842z M31.448,161.983c0.032,0.174,0.199,0.289,0.374,0.257   c0.011-0.002,0.022-0.005,0.032-0.007c0.183-0.042,0.295-0.224,0.254-0.407c-0.042-0.182-0.224-0.295-0.407-0.254   c-0.182,0.042-0.295,0.224-0.254,0.407C31.447,161.98,31.447,161.982,31.448,161.983z M39.456,160.124   c0.032,0.174,0.199,0.289,0.374,0.257c0.011-0.002,0.022-0.005,0.032-0.007c0.183-0.045,0.297-0.227,0.26-0.411   c-0.064-0.171-0.239-0.275-0.419-0.248c-0.174,0.035-0.288,0.204-0.254,0.378C39.451,160.104,39.453,160.114,39.456,160.124   L39.456,160.124z M27.704,196.269c0.158,0.099,0.367,0.052,0.466-0.107c0.102-0.155,0.059-0.362-0.094-0.463   c-0.004-0.003-0.008-0.005-0.012-0.007c-0.151-0.101-0.356-0.06-0.456,0.09c-0.004,0.005-0.007,0.011-0.01,0.016   C27.501,195.957,27.548,196.166,27.704,196.269L27.704,196.269z M32.054,189.23c0.158,0.099,0.366,0.051,0.466-0.107   c0.104-0.165,0.055-0.381-0.109-0.485c-0.162-0.094-0.368-0.04-0.465,0.12c-0.102,0.156-0.057,0.365,0.098,0.466   C32.048,189.227,32.051,189.229,32.054,189.23L32.054,189.23z M36.265,181.989c0.013,0.084,0.065,0.16,0.137,0.203   c0.158,0.099,0.366,0.051,0.466-0.107c0.104-0.165,0.055-0.381-0.109-0.485c-0.095-0.062-0.216-0.071-0.32-0.025l-0.013,0.002   c-0.059,0.024-0.109,0.071-0.133,0.129C36.237,181.789,36.226,181.894,36.265,181.989L36.265,181.989z M40.753,175.153   c0.16,0.091,0.362,0.045,0.466-0.107c0.096-0.165,0.049-0.376-0.109-0.485c-0.158-0.099-0.367-0.052-0.466,0.107   C40.54,174.832,40.589,175.049,40.753,175.153L40.753,175.153z M45.102,168.114c0.162,0.094,0.368,0.04,0.465-0.12   c0.096-0.161,0.049-0.368-0.107-0.473c-0.164-0.098-0.374-0.05-0.481,0.109C44.888,167.799,44.941,168.01,45.102,168.114   L45.102,168.114z M49.451,161.075c0.162,0.094,0.368,0.04,0.465-0.12c0.096-0.161,0.05-0.368-0.107-0.473   c-0.164-0.098-0.374-0.05-0.481,0.109C49.237,160.76,49.29,160.971,49.451,161.075L49.451,161.075z M61.696,201.864   c0.049,0.186,0.235,0.3,0.421,0.261c0.178-0.04,0.29-0.217,0.249-0.396c-0.001-0.005-0.002-0.009-0.004-0.013   c-0.038-0.183-0.217-0.302-0.4-0.264c-0.003,0.001-0.005,0.001-0.007,0.002C61.775,201.502,61.662,201.681,61.696,201.864   L61.696,201.864z M59.849,193.779c0.044,0.18,0.224,0.292,0.406,0.25c0.178-0.04,0.29-0.217,0.249-0.396   c-0.001-0.005-0.002-0.009-0.004-0.013c-0.038-0.183-0.217-0.302-0.4-0.264c-0.003,0.001-0.005,0.001-0.007,0.002   C59.91,193.408,59.802,193.595,59.849,193.779L59.849,193.779z M57.984,185.669c0.038,0.183,0.217,0.302,0.401,0.264   c0.003-0.001,0.005-0.001,0.007-0.002c0.174-0.035,0.288-0.204,0.254-0.378c-0.002-0.01-0.005-0.021-0.007-0.031   c-0.038-0.183-0.217-0.302-0.402-0.264c-0.003,0.001-0.005,0.001-0.006,0.002C58.052,185.308,57.943,185.488,57.984,185.669   L57.984,185.669z M56.122,177.585c0.047,0.183,0.233,0.294,0.417,0.247c0.18-0.046,0.29-0.227,0.249-0.409   c-0.046-0.18-0.224-0.295-0.408-0.263C56.195,177.211,56.082,177.397,56.122,177.585L56.122,177.585z M54.257,169.474   c0.039,0.185,0.221,0.302,0.406,0.262c0.184-0.039,0.302-0.221,0.262-0.406c0-0.002-0.001-0.003-0.001-0.005   c-0.039-0.184-0.219-0.303-0.404-0.264c-0.184,0.039-0.303,0.219-0.264,0.404C54.256,169.469,54.257,169.471,54.257,169.474z    M52.395,161.377c0.039,0.185,0.22,0.303,0.405,0.264c0.184-0.039,0.303-0.22,0.264-0.405c-0.001-0.003-0.001-0.005-0.002-0.007   c-0.042-0.183-0.223-0.3-0.408-0.263C52.473,161.014,52.36,161.193,52.395,161.377L52.395,161.377z M24.238,176.383   c0.105,0.151,0.312,0.189,0.462,0.084c0.005-0.004,0.011-0.007,0.015-0.012c0.149-0.103,0.185-0.306,0.083-0.455   c-0.004-0.005-0.006-0.009-0.01-0.013c-0.102-0.155-0.312-0.199-0.466-0.095c-0.005,0.003-0.009,0.006-0.013,0.009   C24.16,176.017,24.13,176.228,24.238,176.383L24.238,176.383z M30.93,171.564c0.105,0.153,0.314,0.192,0.466,0.088   c0.155-0.111,0.193-0.327,0.084-0.484c-0.113-0.151-0.322-0.189-0.48-0.086C30.848,171.195,30.816,171.41,30.93,171.564   L30.93,171.564z M37.607,166.746c0.109,0.156,0.322,0.196,0.479,0.087l0.001-0.001c0.15-0.115,0.185-0.325,0.084-0.484   c-0.11-0.152-0.322-0.186-0.473-0.076c-0.002,0.001-0.003,0.002-0.005,0.004c-0.153,0.101-0.195,0.306-0.094,0.459   C37.603,166.739,37.606,166.743,37.607,166.746L37.607,166.746z M44.302,161.942c0.113,0.152,0.325,0.183,0.478,0.073   c0.153-0.11,0.187-0.321,0.078-0.474c-0.002-0.003-0.005-0.006-0.007-0.009c-0.105-0.151-0.312-0.19-0.462-0.084   c-0.005,0.004-0.011,0.007-0.015,0.012c-0.153,0.11-0.188,0.322-0.078,0.474C44.297,161.934,44.3,161.937,44.302,161.942   L44.302,161.942z M44.057,198.05c-0.026,0.187,0.102,0.36,0.288,0.392c0.183,0.032,0.357-0.091,0.387-0.275   c0-0.001,0-0.001,0-0.002c0.028-0.187-0.093-0.364-0.277-0.407C44.266,197.73,44.088,197.861,44.057,198.05L44.057,198.05z    M45.414,189.855c-0.037,0.178,0.078,0.354,0.257,0.39c0.005,0.001,0.012,0.002,0.017,0.003c0.183,0.032,0.357-0.091,0.387-0.275   c0-0.001,0-0.001,0-0.002c0.029-0.187-0.092-0.364-0.277-0.407C45.613,189.54,45.441,189.669,45.414,189.855L45.414,189.855z    M46.756,181.662c-0.032,0.183,0.091,0.359,0.275,0.393c0.183,0.032,0.357-0.091,0.387-0.274c0-0.001,0-0.001,0-0.002   c0.037-0.178-0.078-0.353-0.257-0.39c-0.005-0.001-0.012-0.002-0.017-0.003c-0.176-0.036-0.348,0.077-0.384,0.254   C46.758,181.646,46.756,181.653,46.756,181.662L46.756,181.662z M48.098,173.468c-0.032,0.183,0.091,0.359,0.275,0.393   c0.105,0.022,0.214-0.008,0.291-0.082l0.013-0.002c0.05-0.054,0.084-0.121,0.096-0.194c0.026-0.187-0.102-0.36-0.288-0.392   c-0.183-0.032-0.357,0.091-0.387,0.274C48.098,173.467,48.098,173.467,48.098,173.468L48.098,173.468z M49.441,165.275   c-0.029,0.191,0.1,0.37,0.29,0.405c0.187,0.026,0.359-0.104,0.386-0.289c0.005-0.046,0.003-0.092-0.005-0.138   c-0.061-0.041-0.105-0.106-0.121-0.178c-0.044-0.041-0.101-0.068-0.162-0.076c-0.183-0.032-0.357,0.091-0.387,0.274   C49.441,165.274,49.441,165.275,49.441,165.275L49.441,165.275z M74.836,191.454c0.098,0.147,0.296,0.188,0.444,0.089   c0.007-0.005,0.013-0.009,0.02-0.014c0.156-0.108,0.197-0.322,0.089-0.478c-0.002-0.002-0.003-0.005-0.005-0.006   c-0.114-0.15-0.325-0.181-0.478-0.073c-0.153,0.11-0.188,0.322-0.078,0.474C74.831,191.448,74.832,191.451,74.836,191.454   L74.836,191.454z M70.047,184.679c0.104,0.156,0.315,0.198,0.47,0.094c0.155-0.104,0.198-0.315,0.094-0.471   c-0.005-0.006-0.008-0.013-0.013-0.018c-0.107-0.154-0.318-0.192-0.472-0.085c-0.154,0.107-0.192,0.318-0.085,0.473   C70.043,184.673,70.045,184.676,70.047,184.679z M55.697,164.368c0.105,0.153,0.314,0.192,0.466,0.088   c0.155-0.111,0.193-0.327,0.084-0.484c-0.113-0.151-0.322-0.189-0.48-0.086C55.615,163.999,55.584,164.215,55.697,164.368   L55.697,164.368z M19.664,156.747c-0.001,0.114,0.09,0.207,0.203,0.207c0.002,0,0.003,0,0.005,0c0.11-0.015,0.191-0.11,0.19-0.22   c-0.003-0.11-0.094-0.197-0.203-0.194c-0.11,0.003-0.197,0.094-0.194,0.203C19.664,156.744,19.664,156.745,19.664,156.747   L19.664,156.747z M24.512,156.59c0.004,0.11,0.095,0.198,0.206,0.194c0.057,0.002,0.11-0.027,0.14-0.076   c0.034-0.036,0.051-0.083,0.05-0.132c-0.004-0.11-0.095-0.198-0.206-0.194c-0.068-0.002-0.128,0.04-0.151,0.104   C24.52,156.511,24.505,156.55,24.512,156.59L24.512,156.59z M29.36,156.433c0.003,0.11,0.094,0.197,0.204,0.193   c0.11-0.003,0.197-0.094,0.193-0.204c0-0.001,0-0.002,0-0.002c-0.003-0.113-0.094-0.205-0.207-0.207   C29.439,156.228,29.358,156.322,29.36,156.433L29.36,156.433z M28.211,175.679c0.084,0.073,0.21,0.068,0.288-0.012   c0.073-0.085,0.067-0.211-0.013-0.29c-0.084-0.073-0.21-0.068-0.288,0.012C28.127,175.474,28.132,175.6,28.211,175.679   L28.211,175.679z M31.514,172.108c0.084,0.073,0.209,0.067,0.288-0.012c0.072-0.085,0.066-0.211-0.013-0.29   c-0.084-0.073-0.21-0.068-0.288,0.012C31.429,171.903,31.435,172.029,31.514,172.108L31.514,172.108z M34.828,168.521   c0.078,0.073,0.2,0.069,0.273-0.009l0.001-0.001c0.077-0.072,0.082-0.192,0.01-0.27c-0.007-0.007-0.014-0.014-0.024-0.02   c-0.083-0.073-0.209-0.065-0.281,0.018s-0.065,0.209,0.018,0.281C34.827,168.52,34.827,168.521,34.828,168.521L34.828,168.521z    M38.13,164.951c0.078,0.073,0.2,0.069,0.273-0.009l0.001-0.001c0.081-0.079,0.083-0.207,0.005-0.288   c-0.001-0.001-0.002-0.003-0.004-0.004c-0.084-0.072-0.209-0.067-0.288,0.012C38.045,164.745,38.05,164.872,38.13,164.951   L38.13,164.951z M41.43,161.365c0.084,0.073,0.21,0.068,0.288-0.012c0.073-0.086,0.063-0.216-0.024-0.288   c-0.081-0.069-0.2-0.065-0.277,0.01C41.347,161.16,41.352,161.287,41.43,161.365L41.43,161.365z M47.284,182.798   c0.005,0.11,0.097,0.195,0.207,0.191c0.11-0.005,0.195-0.097,0.191-0.207c-0.005-0.11-0.096-0.194-0.206-0.191   C47.365,182.595,47.279,182.689,47.284,182.798L47.284,182.798z M47.102,177.903c0.01,0.113,0.107,0.197,0.219,0.192   c0.11-0.004,0.196-0.096,0.191-0.207v-0.001c0.001-0.107-0.084-0.194-0.191-0.195c-0.005,0-0.01,0-0.014,0   c-0.113-0.001-0.205,0.091-0.205,0.203C47.101,177.898,47.101,177.901,47.102,177.903L47.102,177.903z M46.934,173.004   c0.003,0.11,0.094,0.197,0.203,0.194c0.11-0.003,0.197-0.094,0.194-0.203c0-0.001,0-0.003,0-0.004   c0.001-0.107-0.084-0.194-0.191-0.195c-0.005,0-0.01,0-0.014,0c-0.11,0.004-0.196,0.096-0.192,0.206   C46.934,173.003,46.934,173.004,46.934,173.004L46.934,173.004z M46.764,168.106l0.007,0.054c0.032,0.082,0.11,0.136,0.199,0.139   c0.11-0.005,0.196-0.096,0.191-0.207v-0.001c-0.005-0.084-0.057-0.159-0.136-0.191l-0.013,0.002   c-0.017-0.008-0.037-0.011-0.056-0.006c-0.106,0-0.192,0.085-0.192,0.191C46.764,168.096,46.764,168.101,46.764,168.106   L46.764,168.106z M46.582,163.21c0.004,0.11,0.095,0.198,0.206,0.194c0.111-0.005,0.197-0.098,0.192-0.209   c-0.005-0.11-0.096-0.195-0.206-0.192c-0.11,0.004-0.196,0.096-0.192,0.206C46.581,163.21,46.581,163.21,46.582,163.21   L46.582,163.21z M55.257,164.373c0.084,0.072,0.209,0.067,0.288-0.012c0.073-0.085,0.067-0.211-0.013-0.29   c-0.078-0.073-0.2-0.069-0.273,0.009l-0.001,0.001c-0.081,0.079-0.083,0.207-0.005,0.288   C55.255,164.37,55.256,164.372,55.257,164.373L55.257,164.373z M51.714,161.027c0.084,0.073,0.21,0.068,0.288-0.012   c0.073-0.085,0.067-0.211-0.013-0.29c-0.084-0.073-0.209-0.067-0.288,0.012C51.627,160.822,51.634,160.947,51.714,161.027   L51.714,161.027z M24.271,165.687c0.047,0.098,0.161,0.143,0.261,0.103c0.1-0.053,0.143-0.173,0.099-0.278   c-0.04-0.099-0.155-0.147-0.254-0.107c-0.003,0.001-0.005,0.002-0.007,0.004C24.27,165.463,24.227,165.583,24.271,165.687   L24.271,165.687z M28.681,163.659c0.045,0.1,0.161,0.147,0.261,0.103c0.099-0.039,0.147-0.152,0.108-0.251   c-0.002-0.005-0.004-0.009-0.006-0.013c-0.034-0.096-0.139-0.148-0.236-0.114c-0.009,0.003-0.017,0.006-0.026,0.011   c-0.1,0.043-0.147,0.159-0.104,0.259C28.68,163.655,28.68,163.658,28.681,163.659L28.681,163.659z M33.09,161.63   c0.038,0.098,0.148,0.147,0.246,0.11c0.005-0.002,0.011-0.005,0.015-0.007c0.097-0.036,0.147-0.145,0.111-0.242   c-0.003-0.008-0.006-0.015-0.01-0.024c-0.041-0.099-0.155-0.147-0.254-0.107c-0.003,0.001-0.005,0.002-0.007,0.004   C33.091,161.413,33.047,161.529,33.09,161.63L33.09,161.63z M37.502,159.616c0.053,0.098,0.171,0.141,0.276,0.101   c0.094-0.057,0.136-0.173,0.099-0.278c-0.051-0.1-0.171-0.145-0.276-0.101C37.502,159.39,37.458,159.511,37.502,159.616   L37.502,159.616z M37.863,178.723c0.104,0.032,0.215-0.021,0.259-0.12c0.041-0.103-0.008-0.217-0.11-0.258   c-0.003-0.001-0.005-0.002-0.008-0.003c-0.096-0.042-0.209,0.003-0.251,0.099c-0.003,0.006-0.005,0.013-0.007,0.021   C37.706,178.566,37.758,178.682,37.863,178.723L37.863,178.723z M39.566,174.136c0.104,0.032,0.215-0.021,0.259-0.12   c0.035-0.105-0.016-0.219-0.118-0.261c-0.095-0.045-0.209-0.005-0.254,0.091c-0.002,0.005-0.005,0.009-0.006,0.014   c-0.044,0.106,0.005,0.227,0.11,0.271C39.559,174.133,39.562,174.134,39.566,174.136L39.566,174.136z M41.255,169.536   c0.096,0.042,0.209-0.002,0.251-0.099c0.003-0.006,0.005-0.013,0.007-0.021c0.038-0.105-0.014-0.22-0.118-0.261   c-0.104-0.032-0.215,0.02-0.259,0.12c-0.041,0.103,0.008,0.217,0.11,0.258C41.248,169.534,41.251,169.535,41.255,169.536   L41.255,169.536z M42.945,164.951c0.096,0.042,0.209-0.002,0.251-0.099c0.003-0.006,0.005-0.013,0.007-0.021   c0.038-0.105-0.014-0.22-0.118-0.261c-0.104-0.032-0.215,0.021-0.259,0.12C42.788,164.794,42.84,164.91,42.945,164.951   L42.945,164.951z M44.634,160.366c0.106,0.038,0.221-0.017,0.259-0.122c0.038-0.105-0.015-0.219-0.12-0.258   c-0.105-0.039-0.22,0.014-0.259,0.12C44.486,160.209,44.536,160.32,44.634,160.366L44.634,160.366z M56.31,178.143   c0.04,0.099,0.155,0.147,0.254,0.107c0.003-0.001,0.005-0.002,0.007-0.004c0.1-0.043,0.147-0.159,0.102-0.259   c-0.001-0.002-0.002-0.004-0.002-0.005c-0.034-0.096-0.139-0.148-0.236-0.114c-0.009,0.003-0.017,0.006-0.026,0.011   c-0.1,0.043-0.147,0.159-0.102,0.259C56.308,178.14,56.309,178.142,56.31,178.143z M54.289,173.682   c0.049,0.103,0.172,0.148,0.276,0.101c0.096-0.049,0.136-0.165,0.087-0.262c-0.034-0.096-0.139-0.148-0.236-0.114   c-0.009,0.003-0.017,0.006-0.026,0.011c-0.1,0.043-0.147,0.159-0.102,0.259C54.289,173.68,54.289,173.68,54.289,173.682   L54.289,173.682z M52.269,169.221c0.051,0.1,0.171,0.145,0.276,0.101c0.1-0.053,0.143-0.173,0.099-0.278   c-0.055-0.101-0.18-0.138-0.281-0.084C52.27,169.01,52.229,169.123,52.269,169.221L52.269,169.221z M50.262,164.758   c0.04,0.099,0.155,0.147,0.254,0.107c0.003-0.001,0.005-0.002,0.008-0.004c0.065-0.034,0.107-0.096,0.114-0.169   c0.009-0.037,0.004-0.076-0.014-0.11c-0.047-0.098-0.161-0.142-0.261-0.103c-0.042,0.021-0.076,0.055-0.096,0.096l0.002,0.013   C50.232,164.642,50.23,164.706,50.262,164.758L50.262,164.758z M48.242,160.297c0.049,0.095,0.161,0.138,0.261,0.103   c0.104-0.047,0.149-0.171,0.101-0.275c-0.001-0.001-0.001-0.002-0.002-0.003c-0.04-0.099-0.155-0.147-0.254-0.107   c-0.003,0.001-0.005,0.002-0.008,0.004C48.242,160.073,48.199,160.194,48.242,160.297L48.242,160.297z M52.797,162.197   c0.109,0.068,0.251,0.036,0.321-0.072c0.066-0.11,0.035-0.252-0.073-0.323c-0.109-0.068-0.251-0.036-0.321,0.072   C52.658,161.984,52.689,162.126,52.797,162.197L52.797,162.197z M16.699,159.868c0.029,0.121,0.15,0.198,0.271,0.171   c0.124-0.03,0.204-0.15,0.181-0.276c-0.032-0.125-0.158-0.201-0.283-0.17c-0.001,0-0.002,0-0.002,0.001   c-0.12,0.025-0.197,0.142-0.171,0.261C16.697,159.861,16.698,159.865,16.699,159.868z M22.104,158.675   c0.029,0.121,0.15,0.198,0.271,0.171c0.124-0.03,0.204-0.15,0.181-0.276c-0.032-0.125-0.158-0.201-0.283-0.17   c-0.001,0-0.002,0-0.002,0.001c-0.117,0.021-0.195,0.131-0.174,0.248C22.1,158.657,22.102,158.667,22.104,158.675L22.104,158.675z    M27.51,157.482c0.029,0.121,0.15,0.198,0.271,0.171c0.121-0.033,0.199-0.151,0.181-0.276c-0.032-0.125-0.158-0.201-0.283-0.17   c-0.001,0-0.002,0-0.003,0.001c-0.117,0.02-0.195,0.131-0.174,0.248C27.505,157.464,27.507,157.473,27.51,157.482L27.51,157.482z    M24.758,180.536c0.1,0.066,0.236,0.039,0.301-0.061c0.002-0.003,0.004-0.005,0.005-0.008c0.071-0.104,0.043-0.245-0.06-0.316   c-0.004-0.003-0.008-0.005-0.012-0.007c-0.1-0.066-0.236-0.039-0.301,0.062c-0.002,0.003-0.004,0.005-0.005,0.008   C24.619,180.323,24.65,180.465,24.758,180.536L24.758,180.536z M27.725,175.83c0.109,0.068,0.251,0.036,0.321-0.073   c0.066-0.11,0.035-0.252-0.073-0.323c-0.1-0.066-0.236-0.039-0.301,0.062c-0.002,0.003-0.004,0.005-0.005,0.008   c-0.075,0.1-0.054,0.243,0.047,0.317C27.715,175.825,27.719,175.827,27.725,175.83L27.725,175.83z M30.705,171.122   c0.096,0.056,0.219,0.039,0.296-0.041c0.012-0.015,0.025-0.017,0.024-0.032c0.066-0.11,0.035-0.252-0.073-0.323   c-0.109-0.068-0.251-0.036-0.321,0.073C30.565,170.909,30.597,171.051,30.705,171.122L30.705,171.122z M33.684,166.414   c0.109,0.068,0.251,0.036,0.321-0.072c0.066-0.11,0.035-0.252-0.073-0.323c-0.066-0.045-0.152-0.049-0.221-0.011   c-0.027,0.004-0.039,0.019-0.052,0.021l-0.047,0.063C33.544,166.2,33.576,166.343,33.684,166.414L33.684,166.414z M36.663,161.706   c0.099,0.066,0.233,0.039,0.3-0.059c0.003-0.004,0.005-0.007,0.006-0.01c0.075-0.1,0.054-0.243-0.047-0.317   c-0.004-0.003-0.008-0.005-0.012-0.008c-0.109-0.068-0.251-0.036-0.321,0.073C36.524,161.493,36.556,161.634,36.663,161.706   L36.663,161.706z M47.61,184.56c0.018,0.117,0.128,0.196,0.244,0.177c0.009-0.002,0.017-0.004,0.027-0.006   c0.121-0.031,0.197-0.152,0.169-0.274c-0.032-0.121-0.149-0.2-0.273-0.185C47.651,184.306,47.578,184.434,47.61,184.56   C47.61,184.559,47.61,184.56,47.61,184.56L47.61,184.56z M46.401,179.097c0.032,0.125,0.158,0.201,0.282,0.17   c0.001,0,0.002,0,0.003-0.001c0.121-0.031,0.197-0.152,0.168-0.274c-0.032-0.121-0.149-0.2-0.273-0.184   C46.455,178.845,46.378,178.969,46.401,179.097L46.401,179.097z M45.216,173.617c0.013,0.118,0.12,0.204,0.238,0.191   c0.012-0.001,0.024-0.004,0.035-0.006c0.121-0.031,0.197-0.152,0.168-0.274c-0.032-0.121-0.149-0.2-0.273-0.185   C45.263,173.374,45.189,173.495,45.216,173.617L45.216,173.617z M44.02,168.153c0.013,0.118,0.12,0.204,0.238,0.191   c0.012-0.001,0.024-0.004,0.035-0.006c0.121-0.031,0.197-0.152,0.168-0.274c-0.028-0.124-0.148-0.206-0.273-0.184   C44.068,167.909,43.992,168.03,44.02,168.153L44.02,168.153z M42.824,162.688c0.013,0.118,0.12,0.204,0.238,0.191   c0.012-0.001,0.024-0.004,0.035-0.006c0.128-0.024,0.212-0.147,0.189-0.274c-0.024-0.128-0.147-0.212-0.274-0.189   c-0.128,0.024-0.212,0.147-0.189,0.274C42.823,162.686,42.823,162.687,42.824,162.688z M18.433,170.221   c0.066,0.108,0.207,0.14,0.314,0.073c0.004-0.003,0.007-0.005,0.012-0.007c0.097-0.08,0.12-0.22,0.051-0.327   c-0.073-0.103-0.216-0.128-0.32-0.054C18.39,169.978,18.364,170.117,18.433,170.221L18.433,170.221z M22.972,167.035   c0.071,0.101,0.209,0.125,0.309,0.054l0,0c0.108-0.068,0.139-0.21,0.071-0.318c-0.068-0.108-0.21-0.139-0.318-0.071   c-0.004,0.003-0.008,0.005-0.012,0.008C22.921,166.786,22.899,166.931,22.972,167.035L22.972,167.035z M27.508,163.835   c0.061,0.099,0.193,0.129,0.292,0.067c0.006-0.004,0.013-0.008,0.018-0.013c0.105-0.064,0.136-0.199,0.073-0.303   c-0.002-0.004-0.005-0.007-0.007-0.011c-0.075-0.104-0.217-0.133-0.325-0.066C27.461,163.588,27.44,163.729,27.508,163.835   L27.508,163.835z M32.046,160.649c0.071,0.101,0.209,0.125,0.309,0.054l0,0c0.108-0.07,0.138-0.213,0.07-0.322   c-0.002-0.003-0.004-0.005-0.005-0.007c-0.076-0.104-0.22-0.127-0.324-0.051c-0.105,0.076-0.127,0.22-0.051,0.324   C32.046,160.648,32.046,160.648,32.046,160.649L32.046,160.649z M36.583,157.449c0.061,0.099,0.193,0.129,0.292,0.067   c0.006-0.004,0.013-0.008,0.018-0.013c0.105-0.064,0.136-0.199,0.073-0.303c-0.002-0.004-0.005-0.007-0.007-0.011   c-0.072-0.108-0.217-0.137-0.325-0.066C36.537,157.203,36.514,157.343,36.583,157.449L36.583,157.449z M36.265,181.989   c0.027,0.019,0.057,0.034,0.088,0.043c0.122,0.024,0.239-0.057,0.261-0.18c0.001-0.003,0.001-0.006,0.002-0.009   c0.019-0.121-0.056-0.237-0.174-0.268l-0.013,0.002c-0.122-0.024-0.239,0.057-0.261,0.18c-0.001,0.003-0.001,0.006-0.002,0.009   C36.147,181.853,36.187,181.942,36.265,181.989L36.265,181.989z M37.135,176.251c-0.026,0.122,0.051,0.242,0.173,0.268h0.001   c0.125,0.022,0.246-0.055,0.278-0.177c0.016-0.128-0.066-0.248-0.191-0.28C37.272,176.041,37.156,176.127,37.135,176.251   L37.135,176.251z M38.093,170.752c-0.024,0.123,0.058,0.242,0.181,0.264c0.002,0,0.004,0.001,0.006,0.001   c0.122,0.024,0.239-0.057,0.261-0.18c0.001-0.003,0.001-0.006,0.002-0.009c0.024-0.123-0.058-0.243-0.183-0.264   c-0.002,0-0.004-0.001-0.005-0.001c-0.122-0.022-0.239,0.057-0.261,0.18C38.094,170.746,38.094,170.75,38.093,170.752   L38.093,170.752z M39.05,165.24c-0.02,0.125,0.064,0.243,0.189,0.267c0.113,0.031,0.23-0.038,0.26-0.151   c0.002-0.008,0.004-0.016,0.005-0.025c0.026-0.122-0.051-0.242-0.173-0.268H39.33c-0.125-0.029-0.249,0.049-0.278,0.173   C39.05,165.237,39.05,165.239,39.05,165.24L39.05,165.24z M40.018,159.809c0.049,0.039,0.085,0.093,0.104,0.153   c0.027,0.019,0.057,0.034,0.088,0.043c0.122,0.022,0.239-0.057,0.261-0.18c0.001-0.003,0.001-0.006,0.002-0.009   c0.024-0.123-0.058-0.242-0.181-0.264c-0.002,0-0.004-0.001-0.006-0.001c-0.122-0.024-0.239,0.057-0.261,0.18   c-0.001,0.003-0.001,0.006-0.002,0.009C40.016,159.761,40.014,159.787,40.018,159.809L40.018,159.809z M56.928,177.543   c0.072,0.104,0.215,0.13,0.319,0.057c0.104-0.073,0.13-0.215,0.057-0.319l0,0c-0.06-0.104-0.194-0.138-0.296-0.078   c-0.005,0.003-0.01,0.006-0.015,0.01C56.886,177.288,56.857,177.434,56.928,177.543L56.928,177.543z M53.761,172.949   c0.063,0.099,0.193,0.129,0.292,0.067c0.006-0.004,0.013-0.008,0.018-0.013c0.104-0.064,0.136-0.199,0.073-0.303   c-0.003-0.004-0.005-0.007-0.007-0.011c-0.067-0.108-0.209-0.139-0.316-0.073c-0.108,0.067-0.139,0.209-0.073,0.316   C53.753,172.937,53.758,172.944,53.761,172.949L53.761,172.949z M50.581,168.356c0.068,0.103,0.207,0.131,0.309,0.063   c0.005-0.004,0.01-0.006,0.014-0.01c0.102-0.079,0.121-0.224,0.042-0.328c-0.076-0.097-0.213-0.12-0.315-0.051   C50.535,168.109,50.514,168.251,50.581,168.356L50.581,168.356z M47.402,163.764c0.073,0.104,0.217,0.128,0.321,0.055   c0.001-0.001,0.002-0.002,0.003-0.002c0.102-0.076,0.123-0.22,0.047-0.323c-0.072-0.095-0.204-0.121-0.306-0.057   C47.365,163.513,47.338,163.653,47.402,163.764L47.402,163.764z M44.236,159.17c0.068,0.103,0.207,0.131,0.309,0.063   c0.005-0.004,0.01-0.006,0.014-0.01c0.1-0.073,0.123-0.212,0.053-0.314c-0.073-0.106-0.217-0.135-0.325-0.066   C44.189,158.923,44.166,159.064,44.236,159.17L44.236,159.17z M16.486,167.376c0.124,0.172,0.364,0.21,0.536,0.086   c0.004-0.003,0.008-0.006,0.012-0.009c0.177-0.128,0.217-0.376,0.09-0.553c-0.127-0.176-0.373-0.217-0.551-0.091   C16.4,166.946,16.361,167.194,16.486,167.376L16.486,167.376z M24.15,161.728c0.122,0.176,0.365,0.219,0.54,0.097   c0.003-0.002,0.005-0.005,0.009-0.006c0.177-0.128,0.217-0.376,0.09-0.553c-0.127-0.176-0.373-0.217-0.551-0.091   C24.066,161.306,24.028,161.549,24.15,161.728L24.15,161.728z M31.769,155.96c0.009,0.047,0.03,0.093,0.059,0.13   c0.04,0.061,0.1,0.107,0.169,0.129c0.124,0.057,0.27,0.042,0.38-0.039c0.172-0.129,0.207-0.374,0.078-0.548   c-0.001-0.002-0.002-0.003-0.004-0.005c-0.12-0.175-0.359-0.22-0.534-0.101c-0.005,0.004-0.01,0.006-0.014,0.01   C31.768,155.632,31.713,155.807,31.769,155.96L31.769,155.96z M27.549,205.09c-0.026,0.217,0.123,0.416,0.338,0.454   c0.214,0.034,0.416-0.113,0.45-0.326l0,0c0.029-0.217-0.121-0.418-0.338-0.454C27.785,204.73,27.584,204.876,27.549,205.09   C27.549,205.089,27.549,205.09,27.549,205.09L27.549,205.09z M29.017,195.615c-0.038,0.214,0.106,0.417,0.32,0.455   c0.002,0,0.004,0.001,0.005,0.001c0.211,0.037,0.411-0.105,0.448-0.315c0.001-0.004,0.001-0.007,0.002-0.011   c0.038-0.214-0.106-0.417-0.319-0.455c-0.214-0.038-0.417,0.106-0.455,0.319C29.018,195.61,29.017,195.613,29.017,195.615   L29.017,195.615z M30.471,186.14c-0.029,0.217,0.121,0.418,0.338,0.454c0.216,0.029,0.413-0.124,0.442-0.34   c0.029-0.216-0.124-0.413-0.34-0.442C30.699,185.784,30.505,185.93,30.471,186.14z M31.938,176.665   c-0.034,0.215,0.11,0.418,0.324,0.455c0.216,0.033,0.418-0.116,0.451-0.332c0.032-0.213-0.113-0.413-0.325-0.45   c-0.211-0.037-0.411,0.105-0.448,0.315C31.938,176.658,31.938,176.661,31.938,176.665L31.938,176.665z M33.392,167.191   c-0.029,0.217,0.121,0.418,0.338,0.454c0.203,0.036,0.397-0.099,0.433-0.302c0.001-0.007,0.003-0.014,0.004-0.024   c0.044-0.204-0.084-0.405-0.288-0.449c-0.012-0.003-0.024-0.005-0.036-0.006C33.628,166.83,33.427,166.977,33.392,167.191   L33.392,167.191L33.392,167.191z M34.859,157.715c-0.034,0.215,0.11,0.418,0.324,0.455c0.214,0.034,0.416-0.113,0.45-0.326l0,0   c0.04-0.21-0.098-0.412-0.307-0.453c-0.005-0.001-0.011-0.002-0.016-0.003c-0.207-0.039-0.407,0.096-0.447,0.303   C34.861,157.701,34.86,157.708,34.859,157.715L34.859,157.715z M66.464,195.963c0.134,0.175,0.381,0.214,0.563,0.089   c0.172-0.129,0.207-0.374,0.078-0.548c-0.001-0.002-0.002-0.003-0.004-0.005c-0.12-0.175-0.359-0.22-0.534-0.101   c-0.005,0.004-0.01,0.006-0.014,0.01C66.38,195.541,66.342,195.784,66.464,195.963L66.464,195.963z M60.865,188.203   c0.127,0.176,0.373,0.217,0.55,0.09c0.177-0.127,0.217-0.373,0.09-0.55c-0.001-0.001-0.002-0.002-0.003-0.004   c-0.12-0.175-0.359-0.221-0.534-0.101c-0.005,0.004-0.01,0.007-0.014,0.01C60.78,187.779,60.741,188.024,60.865,188.203   L60.865,188.203z M55.266,180.442c0.128,0.175,0.372,0.216,0.549,0.091c0.173-0.136,0.211-0.385,0.086-0.568   c-0.124-0.172-0.364-0.21-0.534-0.086c-0.004,0.003-0.008,0.006-0.012,0.009c-0.177,0.125-0.218,0.37-0.094,0.547   C55.262,180.438,55.264,180.44,55.266,180.442L55.266,180.442z M49.667,172.681c0.128,0.175,0.372,0.216,0.549,0.091   c0.172-0.138,0.209-0.384,0.086-0.568c-0.135-0.172-0.384-0.204-0.557-0.069C49.576,172.267,49.541,172.508,49.667,172.681   L49.667,172.681z M44.054,164.922c0.124,0.172,0.364,0.21,0.536,0.086c0.004-0.003,0.008-0.006,0.012-0.009   c0.177-0.128,0.217-0.376,0.089-0.554c-0.128-0.175-0.372-0.217-0.549-0.091C43.967,164.491,43.929,164.74,44.054,164.922   L44.054,164.922z M16.849,157.568c0.045,0.203,0.245,0.332,0.449,0.288c0.005-0.001,0.011-0.003,0.016-0.004   c0.209-0.047,0.34-0.255,0.294-0.465c-0.001-0.002-0.001-0.005-0.002-0.006c-0.056-0.211-0.267-0.34-0.482-0.295   c-0.209,0.054-0.333,0.268-0.28,0.476C16.847,157.563,16.848,157.566,16.849,157.568L16.849,157.568z M26.069,155.318   c0.046,0.21,0.254,0.344,0.465,0.298c0.005-0.001,0.011-0.003,0.016-0.004c0.204-0.047,0.331-0.251,0.283-0.455   c-0.001-0.005-0.003-0.009-0.004-0.014c-0.046-0.21-0.254-0.343-0.465-0.296c-0.21,0.046-0.343,0.254-0.296,0.465   C26.067,155.313,26.069,155.316,26.069,155.318L26.069,155.318z M20.412,178.052c0.188,0.111,0.429,0.053,0.545-0.131   c0.11-0.19,0.052-0.433-0.131-0.553c-0.188-0.113-0.429-0.054-0.545,0.131C20.17,177.691,20.227,177.931,20.412,178.052   L20.412,178.052z M25.344,169.862c0.177,0.12,0.418,0.075,0.538-0.103c0.003-0.005,0.006-0.009,0.009-0.014   c0.11-0.19,0.052-0.433-0.131-0.553c-0.181-0.116-0.423-0.063-0.539,0.12c-0.003,0.004-0.005,0.007-0.007,0.012   C25.104,169.509,25.162,169.748,25.344,169.862L25.344,169.862z M30.292,161.684c0.183,0.116,0.424,0.061,0.54-0.121   c0.002-0.004,0.005-0.006,0.006-0.01c0.104-0.176,0.047-0.403-0.126-0.51c-0.002-0.013-0.002-0.013-0.017-0.026   c-0.169-0.108-0.392-0.065-0.508,0.098l-0.024,0.032c-0.114,0.178-0.063,0.415,0.116,0.53   C30.282,161.678,30.288,161.681,30.292,161.684z M46.214,200.213c0.059,0.207,0.268,0.335,0.482,0.295   c0.207-0.059,0.331-0.274,0.278-0.483c-0.044-0.209-0.25-0.342-0.459-0.298c-0.003,0.001-0.005,0.001-0.008,0.002   C46.29,199.782,46.16,199.998,46.214,200.213L46.214,200.213z M43.973,190.875c0.05,0.214,0.265,0.346,0.479,0.295   c0.001,0,0.001,0,0.002-0.001c0.207-0.052,0.332-0.262,0.28-0.469c-0.046-0.21-0.254-0.343-0.465-0.296   c-0.21,0.046-0.343,0.254-0.296,0.465C43.972,190.87,43.972,190.873,43.973,190.875L43.973,190.875z M41.734,181.551   c0.044,0.209,0.25,0.342,0.459,0.298c0.003-0.001,0.005-0.001,0.008-0.002c0.214-0.054,0.344-0.271,0.29-0.485   c-0.049-0.209-0.257-0.341-0.467-0.296C41.81,181.119,41.68,181.337,41.734,181.551L41.734,181.551z M39.494,172.227   c0.054,0.209,0.267,0.334,0.475,0.28c0.206-0.053,0.331-0.261,0.282-0.468c-0.047-0.21-0.256-0.342-0.467-0.296   C39.571,171.795,39.441,172.013,39.494,172.227L39.494,172.227z M37.24,162.892c0.05,0.214,0.265,0.346,0.48,0.295   c0.001,0,0.001,0,0.002-0.001c0.21-0.058,0.338-0.272,0.29-0.485c-0.051-0.207-0.261-0.335-0.469-0.284   c-0.004,0.001-0.006,0.002-0.01,0.003C37.324,162.472,37.193,162.681,37.24,162.892L37.24,162.892z M51.586,164.088   c0.181,0.111,0.419,0.055,0.531-0.127c0.001-0.001,0.001-0.002,0.002-0.003c0.11-0.19,0.052-0.433-0.131-0.551   c-0.185-0.115-0.429-0.057-0.544,0.128c-0.115,0.186-0.057,0.43,0.128,0.544C51.577,164.083,51.581,164.085,51.586,164.088   L51.586,164.088z M43.464,159.068c0.188,0.113,0.429,0.054,0.545-0.131c0.11-0.191,0.051-0.432-0.131-0.553   c-0.184-0.113-0.424-0.052-0.536,0.132c-0.003,0.005-0.005,0.008-0.007,0.013C43.224,158.715,43.283,158.955,43.464,159.068   L43.464,159.068z M16.404,154.46c0.037,0.21,0.236,0.351,0.447,0.314c0.004-0.001,0.006-0.001,0.01-0.002   c0.207-0.034,0.346-0.229,0.313-0.436c-0.001-0.008-0.003-0.015-0.005-0.024c-0.037-0.21-0.236-0.351-0.447-0.314   c-0.004,0.001-0.006,0.001-0.009,0.002C16.501,154.044,16.364,154.247,16.404,154.46L16.404,154.46z M17.344,171.79   c0.179,0.123,0.423,0.078,0.547-0.1c0.123-0.179,0.078-0.423-0.1-0.547c-0.005-0.004-0.01-0.006-0.014-0.01   c-0.166-0.122-0.4-0.086-0.521,0.08c-0.005,0.007-0.01,0.014-0.014,0.022c-0.125,0.18-0.079,0.43,0.102,0.554   C17.343,171.788,17.344,171.789,17.344,171.79L17.344,171.79z M22.602,163.862c0.184,0.116,0.427,0.064,0.547-0.118   c0.115-0.181,0.064-0.421-0.116-0.54c-0.165-0.122-0.399-0.086-0.521,0.079c-0.005,0.007-0.011,0.015-0.015,0.024   c-0.125,0.18-0.079,0.43,0.102,0.554C22.6,163.859,22.601,163.86,22.602,163.862L22.602,163.862z M27.859,155.933   c0.184,0.115,0.427,0.057,0.542-0.128c0.11-0.178,0.061-0.411-0.11-0.53c-0.175-0.124-0.418-0.083-0.542,0.091   c-0.003,0.004-0.005,0.007-0.008,0.012C27.628,155.565,27.68,155.808,27.859,155.933L27.859,155.933z M40.464,203.288   c0.05,0.209,0.26,0.338,0.469,0.288c0.209-0.05,0.338-0.26,0.288-0.469c-0.049-0.202-0.247-0.331-0.451-0.291   C40.555,202.862,40.418,203.073,40.464,203.288L40.464,203.288z M38.616,193.911c0.044,0.215,0.254,0.355,0.469,0.311   c0.207-0.049,0.341-0.249,0.307-0.459c-0.047-0.215-0.254-0.357-0.471-0.324C38.71,193.488,38.576,193.696,38.616,193.911   L38.616,193.911z M36.767,184.532c0.042,0.214,0.251,0.354,0.465,0.312c0.213-0.042,0.351-0.247,0.313-0.461   c-0.041-0.211-0.244-0.351-0.455-0.313C36.876,184.114,36.734,184.317,36.767,184.532L36.767,184.532z M34.934,175.153   c0.032,0.207,0.224,0.347,0.43,0.317c0.008-0.001,0.016-0.003,0.025-0.005c0.21-0.044,0.347-0.248,0.307-0.459   c-0.039-0.211-0.242-0.351-0.453-0.313c-0.211,0.039-0.35,0.242-0.313,0.453C34.933,175.147,34.933,175.149,34.934,175.153   L34.934,175.153z M33.086,165.773c0.037,0.21,0.236,0.351,0.447,0.314c0.004-0.001,0.006-0.001,0.01-0.002   c0.043-0.007,0.084-0.028,0.116-0.057c0.013-0.002,0.025-0.017,0.052-0.02c0.118-0.088,0.172-0.237,0.139-0.381   c-0.039-0.211-0.241-0.352-0.453-0.314c-0.211,0.039-0.351,0.241-0.314,0.453C33.085,165.768,33.085,165.771,33.086,165.773   L33.086,165.773z M31.239,156.396c0.013,0.082,0.058,0.155,0.125,0.205c0.004,0.028,0.033,0.038,0.061,0.047   c0.078,0.055,0.175,0.077,0.27,0.059c0.21-0.039,0.348-0.241,0.309-0.451c-0.001-0.003-0.001-0.005-0.002-0.008l-0.004-0.028   c-0.028-0.12-0.113-0.217-0.229-0.26c-0.071-0.03-0.148-0.039-0.223-0.025c-0.21,0.039-0.348,0.242-0.309,0.451   C31.237,156.391,31.237,156.393,31.239,156.396z M58.007,170.624c0.184,0.116,0.427,0.064,0.547-0.118   c0.115-0.181,0.064-0.421-0.116-0.54c-0.166-0.122-0.4-0.086-0.521,0.08c-0.005,0.007-0.01,0.014-0.014,0.022   c-0.125,0.18-0.079,0.43,0.102,0.554C58.005,170.622,58.006,170.623,58.007,170.624L58.007,170.624z M49.99,165.074   c0.016,0.073,0.059,0.136,0.121,0.178c0.002,0.013,0.017,0.026,0.033,0.037c0.174,0.124,0.417,0.083,0.542-0.091   c0.003-0.004,0.005-0.008,0.008-0.012c0.099-0.157,0.077-0.362-0.054-0.493c-0.013-0.027-0.036-0.047-0.064-0.06   c-0.091-0.06-0.204-0.08-0.311-0.054l0.002,0.013c-0.094,0.011-0.177,0.064-0.228,0.142   C49.969,164.833,49.952,164.959,49.99,165.074L49.99,165.074z M42.28,159.955c0.165,0.122,0.399,0.086,0.52-0.079   c0.005-0.007,0.011-0.015,0.015-0.024c0.026-0.035,0.044-0.076,0.052-0.118c0.02-0.064,0.022-0.131,0.001-0.195   c-0.02-0.098-0.076-0.184-0.157-0.243c-0.184-0.116-0.427-0.064-0.547,0.118C42.05,159.596,42.101,159.837,42.28,159.955   L42.28,159.955z M22.371,156.428c0.124,0.179,0.369,0.223,0.548,0.098c0.174-0.121,0.221-0.359,0.107-0.536   c-0.114-0.183-0.355-0.241-0.538-0.128c-0.005,0.003-0.009,0.006-0.014,0.009C22.294,155.998,22.249,156.245,22.371,156.428   L22.371,156.428z M22.622,188.561c-0.038,0.216,0.107,0.421,0.322,0.459c0.209,0.037,0.409-0.096,0.455-0.303   c0.045-0.215-0.093-0.425-0.307-0.469c-0.214-0.044-0.425,0.092-0.469,0.308C22.622,188.558,22.622,188.56,22.622,188.561z    M24.474,179.186c-0.046,0.213,0.09,0.423,0.303,0.469c0.003,0.001,0.006,0.001,0.009,0.002c0.211,0.038,0.412-0.103,0.452-0.314   c0.037-0.215-0.1-0.421-0.314-0.472c-0.209-0.04-0.411,0.097-0.451,0.306C24.475,179.181,24.475,179.183,24.474,179.186   L24.474,179.186z M26.315,169.825c-0.04,0.212,0.099,0.417,0.312,0.457c0.209,0.049,0.416-0.081,0.465-0.289   c0.001-0.004,0.002-0.008,0.003-0.012c0.04-0.216-0.098-0.424-0.314-0.472C26.567,169.47,26.359,169.611,26.315,169.825   L26.315,169.825z M28.155,160.451c-0.04,0.216,0.098,0.424,0.314,0.472c0.215,0.04,0.422-0.1,0.465-0.315   c0.04-0.212-0.099-0.417-0.312-0.457C28.41,160.107,28.202,160.24,28.155,160.451L28.155,160.451z M56.396,191.491   c0.124,0.18,0.37,0.227,0.551,0.105c0.177-0.122,0.223-0.364,0.104-0.543c-0.108-0.18-0.34-0.239-0.522-0.131   c-0.006,0.004-0.012,0.007-0.018,0.011c-0.185,0.12-0.239,0.366-0.12,0.551C56.393,191.487,56.394,191.488,56.396,191.491   L56.396,191.491z M51.14,183.529c0.122,0.18,0.366,0.227,0.547,0.106c0.179-0.121,0.226-0.364,0.108-0.544   c-0.108-0.18-0.34-0.239-0.522-0.131c-0.006,0.004-0.012,0.007-0.018,0.011c-0.185,0.12-0.239,0.366-0.12,0.551   C51.138,183.525,51.139,183.527,51.14,183.529L51.14,183.529z M45.885,175.569c0.122,0.18,0.367,0.227,0.547,0.105   c0.178-0.121,0.226-0.363,0.108-0.543c-0.116-0.181-0.358-0.236-0.539-0.12c-0.185,0.12-0.239,0.366-0.12,0.551   C45.883,175.564,45.884,175.566,45.885,175.569L45.885,175.569z M40.631,167.607c0.125,0.178,0.369,0.224,0.551,0.105   c0.177-0.122,0.223-0.364,0.104-0.543c-0.118-0.183-0.362-0.236-0.544-0.118c-0.183,0.118-0.236,0.362-0.118,0.544   C40.624,167.6,40.628,167.604,40.631,167.607L40.631,167.607z M35.375,159.645c0.125,0.178,0.369,0.224,0.551,0.105   c0.177-0.122,0.223-0.364,0.104-0.543c-0.118-0.177-0.358-0.226-0.534-0.109c-0.001,0.001-0.002,0.001-0.003,0.002   C35.318,159.225,35.266,159.461,35.375,159.645L35.375,159.645z M55.122,162.599c0.154,0.06,0.327-0.013,0.389-0.165   c0.059-0.155-0.013-0.328-0.165-0.394c-0.154-0.06-0.326,0.013-0.389,0.165C54.899,162.359,54.97,162.532,55.122,162.599   L55.122,162.599z M48.506,159.913c0.149,0.051,0.313-0.019,0.377-0.164c0.066-0.151-0.005-0.325-0.155-0.391   c-0.003-0.001-0.006-0.003-0.009-0.004c-0.147-0.059-0.314,0.01-0.374,0.157c-0.001,0.002-0.002,0.005-0.003,0.006   c-0.065,0.154,0.008,0.329,0.162,0.393C48.504,159.912,48.505,159.913,48.506,159.913L48.506,159.913z M15.62,154.763   c0.032-0.002,0.065-0.011,0.092-0.027c0.147-0.06,0.217-0.229,0.157-0.376c-0.001-0.003-0.002-0.005-0.003-0.007   c-0.036-0.104-0.134-0.174-0.244-0.174C15.623,154.374,15.622,154.568,15.62,154.763L15.62,154.763z M18.707,167.222   c0.154,0.06,0.327-0.013,0.389-0.165c0.059-0.155-0.013-0.328-0.165-0.394c-0.147-0.059-0.314,0.01-0.374,0.157   c-0.001,0.002-0.002,0.005-0.003,0.006C18.493,166.977,18.559,167.152,18.707,167.222L18.707,167.222z M21.358,160.53   c0.147,0.059,0.314-0.01,0.374-0.157c0.001-0.002,0.002-0.005,0.003-0.006c0.065-0.154-0.008-0.329-0.161-0.393   c-0.001-0.001-0.003-0.001-0.004-0.002c-0.156-0.052-0.325,0.032-0.378,0.188C21.14,160.309,21.213,160.47,21.358,160.53z    M40.643,186.79c0.061,0.149,0.233,0.22,0.381,0.159c0.004-0.002,0.007-0.004,0.012-0.005c0.146-0.066,0.213-0.235,0.154-0.383   c-0.054-0.147-0.217-0.221-0.363-0.167c-0.01,0.004-0.02,0.008-0.03,0.013C40.651,186.473,40.583,186.642,40.643,186.79   L40.643,186.79z M37.829,180.173c0.068,0.149,0.242,0.217,0.392,0.155c0.149-0.071,0.215-0.245,0.152-0.396   c-0.061-0.149-0.232-0.22-0.381-0.159c-0.004,0.002-0.008,0.004-0.012,0.005C37.832,179.847,37.766,180.022,37.829,180.173   L37.829,180.173z M35.014,173.542c0.068,0.149,0.242,0.217,0.392,0.155c0.149-0.071,0.215-0.245,0.152-0.396   c-0.068-0.149-0.242-0.217-0.392-0.155C35.017,173.216,34.95,173.39,35.014,173.542L35.014,173.542z M32.198,166.912   c0.057,0.147,0.222,0.217,0.368,0.161c0.004-0.002,0.007-0.003,0.011-0.005c0.153-0.059,0.226-0.232,0.167-0.384v-0.001   c-0.065-0.155-0.24-0.229-0.395-0.168c-0.151,0.065-0.219,0.239-0.155,0.389C32.197,166.906,32.198,166.909,32.198,166.912   L32.198,166.912z M29.383,160.281c0.05,0.144,0.207,0.218,0.35,0.168c0.01-0.004,0.02-0.007,0.03-0.012   c0.144-0.053,0.217-0.213,0.165-0.358c-0.004-0.009-0.007-0.017-0.011-0.026c-0.05-0.144-0.207-0.218-0.35-0.168   c-0.01,0.004-0.02,0.007-0.03,0.012c-0.147,0.06-0.217,0.229-0.156,0.376C29.381,160.276,29.382,160.279,29.383,160.281   L29.383,160.281z M15.719,160.24c0.055-0.089,0.055-0.202,0.001-0.292C15.712,160.045,15.712,160.143,15.719,160.24L15.719,160.24z    M20.244,155.165c0.11,0.114,0.289,0.118,0.403,0.008c0.004-0.003,0.006-0.006,0.01-0.01c0.115-0.114,0.115-0.298,0.001-0.412   c-0.001-0.001-0.003-0.003-0.004-0.004c-0.1-0.114-0.274-0.124-0.386-0.024c-0.009,0.008-0.017,0.016-0.026,0.026   c-0.115,0.105-0.122,0.282-0.017,0.397C20.229,155.153,20.237,155.159,20.244,155.165L20.244,155.165z M25.52,186.048   c0.005,0.162,0.138,0.292,0.302,0.292c0.16-0.012,0.285-0.144,0.288-0.303c-0.002-0.164-0.136-0.294-0.3-0.292   c-0.001,0-0.001,0-0.002,0c-0.158-0.002-0.287,0.124-0.288,0.282C25.519,186.033,25.52,186.041,25.52,186.048L25.52,186.048z    M25.416,178.833c0.006,0.165,0.138,0.298,0.303,0.306c0.162-0.004,0.291-0.138,0.288-0.3c0-0.001,0-0.003,0-0.004   c0.005-0.158-0.12-0.289-0.278-0.294c-0.004,0-0.006,0-0.01,0c-0.162-0.005-0.298,0.123-0.303,0.286   C25.416,178.828,25.416,178.831,25.416,178.833L25.416,178.833z M25.327,171.63c-0.003,0.158,0.123,0.289,0.281,0.292   c0.006,0,0.013,0,0.02,0c0.156,0.005,0.286-0.118,0.29-0.274c0-0.005,0-0.011,0-0.016c-0.006-0.165-0.138-0.298-0.303-0.306   c-0.162,0.004-0.291,0.137-0.288,0.3C25.327,171.628,25.327,171.628,25.327,171.63L25.327,171.63z M25.225,164.429   c0.002,0.164,0.136,0.294,0.299,0.292c0.001,0,0.001,0,0.002,0c0.157,0.002,0.287-0.124,0.288-0.282c0-0.007,0-0.014-0.001-0.022   c0.002-0.161-0.128-0.292-0.288-0.294C25.361,164.13,25.23,164.263,25.225,164.429L25.225,164.429z M25.136,157.226   c-0.007,0.126,0.071,0.24,0.191,0.28l0.013-0.002c0.032,0.011,0.066,0.016,0.098,0.014c0.158,0.002,0.287-0.124,0.288-0.282   c0-0.007,0-0.014-0.001-0.022c-0.001-0.162-0.133-0.293-0.295-0.292c-0.002,0-0.004,0-0.005,0   c-0.086,0.001-0.168,0.043-0.217,0.114C25.164,157.09,25.139,157.158,25.136,157.226L25.136,157.226z M50.765,175.644   c0.11,0.114,0.289,0.118,0.403,0.008c0.004-0.003,0.006-0.006,0.01-0.01c0.118-0.113,0.122-0.299,0.009-0.417   c-0.005-0.005-0.009-0.009-0.013-0.013c-0.113-0.11-0.291-0.108-0.401,0.004c-0.004,0.004-0.007,0.007-0.01,0.011   c-0.115,0.114-0.115,0.298-0.002,0.412C50.762,175.641,50.763,175.641,50.765,175.644L50.765,175.644z M45.653,170.61   c0.121,0.113,0.311,0.106,0.422-0.015c0.001-0.001,0.001-0.001,0.002-0.002c0.11-0.118,0.109-0.3-0.003-0.417   c-0.121-0.11-0.306-0.109-0.426,0.004C45.539,170.303,45.542,170.488,45.653,170.61L45.653,170.61z M40.553,165.561   c0.11,0.114,0.289,0.118,0.403,0.008c0.004-0.003,0.006-0.006,0.01-0.01c0.11-0.118,0.109-0.3-0.003-0.417   c-0.113-0.117-0.297-0.12-0.414-0.008c-0.117,0.113-0.12,0.297-0.008,0.414C40.543,165.553,40.549,165.556,40.553,165.561z    M35.441,160.527c0.116,0.11,0.297,0.11,0.412-0.002c0.116-0.121,0.113-0.312-0.005-0.43c-0.118-0.114-0.306-0.11-0.419,0.007   c-0.114,0.118-0.11,0.306,0.007,0.419C35.438,160.524,35.44,160.525,35.441,160.527L35.441,160.527z M16.708,153.778   c0.076,0.047,0.176,0.028,0.228-0.045c0.046-0.079,0.02-0.18-0.058-0.226c-0.072-0.042-0.165-0.025-0.215,0.041   C16.616,153.625,16.636,153.725,16.708,153.778z M23.706,170.157c0.013,0.089,0.094,0.152,0.184,0.141   c0.09-0.013,0.154-0.097,0.139-0.188c-0.013-0.09-0.097-0.154-0.188-0.139c-0.004,0.001-0.007,0.001-0.011,0.002   C23.749,169.993,23.694,170.073,23.706,170.157z M23.034,166.29c0.013,0.084,0.094,0.142,0.178,0.128   c0.002,0,0.003-0.001,0.005-0.001c0.081-0.009,0.138-0.082,0.129-0.162c-0.001-0.007-0.002-0.014-0.004-0.022   c-0.008-0.087-0.085-0.151-0.172-0.144c-0.005,0-0.008,0.001-0.012,0.002C23.074,166.118,23.02,166.202,23.034,166.29z    M22.359,162.407c0.008,0.087,0.085,0.151,0.172,0.144c0.004,0,0.008-0.001,0.012-0.002c0.088-0.022,0.143-0.11,0.124-0.198   c-0.013-0.085-0.094-0.144-0.18-0.129c-0.085,0.013-0.143,0.094-0.129,0.18C22.358,162.403,22.359,162.406,22.359,162.407   L22.359,162.407z M21.686,158.538c0.013,0.084,0.094,0.142,0.178,0.128c0.002,0,0.003-0.001,0.005-0.001   c0.084-0.019,0.138-0.099,0.126-0.185c-0.014-0.085-0.096-0.142-0.181-0.128c-0.085,0.014-0.142,0.096-0.128,0.181   C21.686,158.536,21.686,158.537,21.686,158.538L21.686,158.538z M20.998,154.658c0.019,0.091,0.106,0.152,0.199,0.139   c0.084-0.019,0.138-0.099,0.126-0.184c-0.012-0.089-0.094-0.152-0.184-0.139C21.047,154.484,20.986,154.568,20.998,154.658   L20.998,154.658L20.998,154.658z M37.599,161.41c0.066,0.051,0.161,0.04,0.212-0.025c0.001-0.002,0.003-0.003,0.004-0.005   c0.051-0.074,0.038-0.175-0.032-0.233c-0.076-0.049-0.176-0.029-0.228,0.045C37.507,161.264,37.527,161.36,37.599,161.41   C37.598,161.409,37.599,161.41,37.599,161.41L37.599,161.41z M34.412,159.153c0.069,0.047,0.164,0.031,0.211-0.039   c0.001-0.002,0.002-0.003,0.003-0.005c0.051-0.073,0.038-0.174-0.032-0.232c-0.076-0.049-0.176-0.029-0.228,0.045   c-0.051,0.072-0.036,0.172,0.036,0.223C34.405,159.15,34.408,159.151,34.412,159.153L34.412,159.153z M31.223,156.884   c0.069,0.047,0.164,0.031,0.211-0.039c0.001-0.002,0.002-0.003,0.003-0.005c0.044-0.058,0.039-0.14-0.013-0.193   c-0.002-0.013-0.004-0.028-0.017-0.026c-0.015-0.012-0.029-0.01-0.044-0.022c-0.066-0.032-0.147-0.008-0.185,0.053   c-0.051,0.072-0.036,0.172,0.036,0.223C31.217,156.88,31.22,156.882,31.223,156.884L31.223,156.884z M16.492,163.942   c-0.017,0.086,0.037,0.171,0.123,0.192c0.09,0.016,0.177-0.038,0.203-0.126c0.017-0.086-0.037-0.171-0.123-0.192   C16.606,163.803,16.52,163.855,16.492,163.942z M17.336,160.1c-0.017,0.086,0.037,0.171,0.123,0.192   c0.084,0.025,0.173-0.024,0.199-0.107c0.002-0.006,0.004-0.012,0.005-0.018c0.017-0.086-0.037-0.171-0.123-0.192   C17.45,159.96,17.363,160.013,17.336,160.1L17.336,160.1z M18.182,156.271c-0.017,0.086,0.037,0.171,0.123,0.191   c0.089,0.013,0.175-0.039,0.203-0.125c0.017-0.086-0.037-0.171-0.123-0.192c-0.082-0.027-0.17,0.017-0.197,0.099   C18.186,156.253,18.183,156.262,18.182,156.271z M30.374,165.453c0.044,0.073,0.138,0.098,0.213,0.054l0.001-0.001   c0.077-0.05,0.1-0.153,0.05-0.23c-0.041-0.073-0.135-0.099-0.209-0.057c-0.002,0.001-0.004,0.002-0.005,0.004   C30.347,165.274,30.324,165.377,30.374,165.453z M28.277,162.13c0.047,0.077,0.148,0.101,0.224,0.053   c0.001-0.001,0.002-0.001,0.003-0.002c0.072-0.053,0.093-0.151,0.05-0.23c-0.051-0.072-0.15-0.094-0.228-0.052   C28.25,161.95,28.228,162.052,28.277,162.13L28.277,162.13z M26.18,158.806c0.047,0.077,0.148,0.101,0.224,0.053   c0.001-0.001,0.002-0.001,0.003-0.002c0.077-0.049,0.1-0.152,0.05-0.23c-0.051-0.073-0.15-0.094-0.228-0.052   C26.159,158.631,26.137,158.727,26.18,158.806L26.18,158.806z M24.097,155.48c0.047,0.077,0.148,0.101,0.224,0.053   c0.001-0.001,0.002-0.001,0.003-0.002c0.073-0.051,0.091-0.152,0.039-0.224c-0.001-0.001-0.001-0.002-0.002-0.003   c-0.038-0.068-0.123-0.091-0.191-0.055c-0.007,0.005-0.014,0.009-0.02,0.014c-0.073,0.038-0.1,0.127-0.063,0.199   C24.09,155.468,24.093,155.474,24.097,155.48L24.097,155.48z M28.273,176.519c0.08,0.122,0.243,0.156,0.366,0.076   c0.001-0.001,0.002-0.001,0.003-0.002c0.12-0.083,0.151-0.248,0.068-0.368c-0.078-0.113-0.231-0.148-0.35-0.079   c-0.126,0.073-0.168,0.235-0.094,0.36C28.268,176.51,28.271,176.515,28.273,176.519z M24.84,170.989   c0.065,0.121,0.215,0.166,0.335,0.103c0.007-0.004,0.013-0.008,0.02-0.013c0.126-0.073,0.168-0.235,0.094-0.36   c-0.003-0.005-0.005-0.009-0.008-0.013c-0.078-0.126-0.243-0.165-0.37-0.088c-0.122,0.078-0.157,0.24-0.079,0.362   C24.835,170.982,24.837,170.986,24.84,170.989L24.84,170.989z M21.393,165.475c0.08,0.124,0.243,0.162,0.37,0.088   c0.127-0.08,0.165-0.247,0.085-0.373c-0.078-0.125-0.243-0.164-0.369-0.088C21.358,165.182,21.32,165.347,21.393,165.475   L21.393,165.475z M17.963,159.957c0.084,0.118,0.242,0.156,0.37,0.088c0.121-0.084,0.158-0.245,0.086-0.373   c-0.073-0.125-0.233-0.167-0.359-0.094c-0.004,0.002-0.007,0.005-0.011,0.006C17.924,159.664,17.886,159.83,17.963,159.957   L17.963,159.957z M35.548,165.072c0.12,0.086,0.286,0.058,0.372-0.06c0.086-0.12,0.058-0.286-0.06-0.372   c-0.113-0.087-0.274-0.067-0.361,0.046c-0.001,0.002-0.003,0.003-0.004,0.005C35.407,164.811,35.432,164.978,35.548,165.072   L35.548,165.072z M30.185,161.114c0.019,0.146,0.154,0.248,0.299,0.228c0.076-0.01,0.142-0.051,0.184-0.114   c0.033-0.057,0.047-0.121,0.043-0.187c-0.002-0.013-0.002-0.013-0.017-0.026c-0.005-0.067-0.039-0.128-0.091-0.168   c-0.122-0.084-0.289-0.054-0.376,0.066C30.192,160.975,30.178,161.046,30.185,161.114L30.185,161.114z M25.025,157.519   c0.091,0.066,0.216,0.059,0.3-0.013l0.013-0.002c0.027-0.004,0.05-0.035,0.061-0.05c0.087-0.12,0.06-0.288-0.059-0.374   c-0.003-0.002-0.005-0.004-0.007-0.005c-0.12-0.069-0.273-0.042-0.363,0.065C24.887,157.259,24.909,157.427,25.025,157.519   L25.025,157.519z M19.771,153.743c0.122,0.084,0.289,0.054,0.376-0.066c0.082-0.124,0.053-0.291-0.066-0.38   c-0.122-0.084-0.289-0.054-0.376,0.066C19.623,153.487,19.652,153.654,19.771,153.743L19.771,153.743z"/>
	
		<linearGradient id="neck-2_1_-i7" gradientUnits="userSpaceOnUse" x1="4164.7856" y1="2635.4067" x2="4164.7856" y2="2080.7126" gradientTransform="matrix(0.0741 0 0 0.0741 -230.5491 -118.0138)">
		<stop offset="0" style="stop-color:#FFBEB6"/>
		<stop offset="1" style="stop-color:#F2A19C"/>
	</linearGradient>
	<path id="neck-2-i7" fill="url(#neck-2_1_-i7)" d="M72.177,41.602c0,0-0.421,8.017-2.743,11.834c0,0,11.232,2.216,16.26,4.149   l0.995-10.29L72.177,41.602z"/>
	<path id="face-2-i7" fill="#FFBEB6" d="M93.053,47.611c6.254-2.551,9.385-8.753,10.729-8.567c1.351,0.176,4.321-0.128,4.664-1.543   c0.328-1.41-1.418-6.61-1.801-11.578c-0.039-0.458-0.047-0.919-0.027-1.38c0.001-0.024,0.006-0.032-0.007-0.051l0.011-0.255   c0.008-0.316,0.012-0.86-0.024-1.569c-3.589,1.768-6.907,2.25-8.49,1.422c-4.489-2.339-5.03,0.615-9.474,4.19   c-4.46,3.58-8.383,1.528-14.258,0.085c-5.88-1.434-6.12,4.478-3.87,6.531c2.245,2.06,5.043,3.228,3.662,5.599   c-0.503,0.603-1.212,0.997-1.99,1.109l0.596,0.498c0.189,0.157,0.384,0.305,0.588,0.444l2.827,1.927   C81.282,47.904,87.191,50.01,93.053,47.611z"/>
	<path id="hair-2-i7" fill="#23286B" d="M57.317,28.228c-9.661-28.244,5.785-27.53,16.936-27.53c12.42,0,18.118-0.233,18.118-0.233   L120.038,0c0.463,7.196-2.459,14.195-7.901,18.924c5.946-4.146,9.493-10.935,9.502-18.186c0.011-0.5,0.79-0.521,0.78-0.018   c-0.22,9.986-6.012,18.163-14.945,21.489c-3.916,2.136-7.655,2.769-9.367,1.877c-4.485-2.338-5.028,0.622-9.478,4.198   c-4.451,3.576-8.375,1.529-14.255,0.087c-5.878-1.442-6.121,4.472-3.874,6.53c2.248,2.056,5.051,3.222,3.668,5.596   C72.785,42.87,62.934,44.651,57.317,28.228z"/>
	
		<linearGradient id="sweater-2_1_-i7" gradientUnits="userSpaceOnUse" x1="3694.187" y1="3055.3677" x2="5439.1665" y2="5180.3013" gradientTransform="matrix(0.0741 0 0 0.0741 -230.5491 -118.0138)">
		<stop offset="0" style="stop-color:#A1C3FC"/>
		<stop offset="0.6955" style="stop-color:#81AEF2"/>
		<stop offset="1" style="stop-color:#78A9EF"/>
	</linearGradient>
	<path id="sweater-2-i7" fill="url(#sweater-2_1_-i7)" d="M69.626,53.19c0,0-14.965,7.42-30.176,27.043s-12.558,27.692-20.91,39.313   c-8.352,11.621-22.495,23.381-15.405,42.628c0,0,40.915,28.197,92.472,8.814L85.694,57.586   C80.486,55.622,75.106,54.15,69.626,53.19z"/>
	<path id="R_sleeve-2-i7" fill="#A1C3FC" d="M85.693,57.586c0,0,7.023,30.167,17.674,48.31s16.051,23.417,34.066,25.124   c14.061,1.332,26.804,1.823,26.804,1.823l12.979,59.459c0,0-19.936,6.496-34.998-2.697c-16.941-10.339-25.206-7.051-35-5.5   c-9.793,1.552-32.472-0.629-42.33-31.198s-8.365-56.814,4.547-99.47l0,0"/>
	<path id="eye-2-i7" fill="#1C2868" d="M109.713,27.893c-1.284,1.931-3.889,2.455-5.82,1.172c-0.699-0.465-1.242-1.129-1.561-1.906   c-0.246-0.589,0.629-1.085,0.878-0.487c0.607,1.659,2.441,2.511,4.099,1.905c0.625-0.229,1.164-0.647,1.539-1.196   C109.221,26.858,110.087,27.365,109.713,27.893z"/>
</g>

            </g>
        </g>
    </g>
    
</svg>