<?xml version="1.0" encoding="UTF-8"?><svg version="1.1" xmlns="http://www.w3.org/2000/svg" xmlns:xlink="http://www.w3.org/1999/xlink" viewBox="0 0 1600 1200" width="1600" height="1200" x="0px" y="0px">
              
              <!-- ITEM 0 -->
<g>
    <defs>
        
        <clipPath id="clip-path-id-viewbox-item-0">
            <rect x="0.0" y="0.0" width="277.693" height="322.001"/>
        </clipPath>
    </defs>
    <g transform="translate(260.0 48.0) rotate(270.0 288.0 333.5) scale(2.0742330559286697 2.071422138440564)">
        <g clip-path="url(#clip-path-id-viewbox-item-0)" transform="translate(-0.0 -0.0)">
<title>rectangle</title><g id="Layer_2-i0" data-name="Layer 2"><g id="Layer_1-2-i0" data-name="Layer 1"><rect x="1.123" y="1.123" width="275.447" height="319.857" fill="#fbfbfb"/><path d="M276.57,322H1.123A1.132,1.132,0,0,1,0,320.878V1.123A1.132,1.132,0,0,1,1.123,0H276.57a1.133,1.133,0,0,1,1.123,1.123V320.98A1.2,1.2,0,0,1,276.57,322ZM2.246,319.857h273.2V2.144H2.246Z" fill="#ffffff"/></g></g>
        </g>
    </g>
</g>

<!-- ITEM 1 -->
<g>
    <defs>
        
        <clipPath id="clip-path-id-viewbox-item-1">
            <rect x="0.0" y="0.0" width="112.974" height="178.728"/>
        </clipPath>
    </defs>
    <g transform="translate(189.0 646.0) rotate(5.861698745405202 150.5 238.5) scale(2.6643298458052294 2.66885994360145)">
        <g clip-path="url(#clip-path-id-viewbox-item-1)" transform="translate(-0.0 -0.0)">

<g>
	<path fill="#428DFC" d="M48.875,47.999c-0.248,0-0.464-0.185-0.495-0.438c-0.929-7.376-4.333-13.617-5.787-16.282   c-0.201-0.369-0.365-0.67-0.482-0.898c-1.202-2.354-5.126-12.745-6.877-18.013c-0.261-0.784-0.486-1.737-0.724-2.746   c-0.815-3.454-1.828-7.752-5.033-8.498c-1.208-0.283-2.193-0.086-3.01,0.598c-2.313,1.936-2.883,7.593-2.644,12.243   c0.34,6.611,2.842,12.726,4.983,17.313c0.41,0.878,0.829,1.744,1.247,2.606c1.595,3.29,3.244,6.691,4.117,10.434   c0.063,0.269-0.104,0.537-0.373,0.601c-0.269,0.062-0.538-0.104-0.601-0.374c-0.848-3.633-2.4-6.834-4.043-10.224   c-0.42-0.867-0.842-1.737-1.254-2.619c-2.18-4.671-4.727-10.902-5.076-17.687c-0.122-2.373-0.266-10.328,3.001-13.061   c1.06-0.888,2.366-1.157,3.879-0.806c3.809,0.888,4.902,5.521,5.78,9.243c0.233,0.986,0.453,1.919,0.699,2.659   c1.703,5.121,5.657,15.6,6.819,17.874c0.114,0.223,0.274,0.516,0.469,0.874c1.481,2.715,4.949,9.073,5.902,16.637   c0.034,0.274-0.16,0.524-0.434,0.559C48.917,47.998,48.896,47.999,48.875,47.999z"/>
</g>
<path fill="#A1C3FC" d="M54.59,30.274c-10.806,3.457-34.996,7.596-34.996,7.596L13.4,171.199l61.39-27.034  C74.79,144.166,57.518,51.148,54.59,30.274z M32.066,42.422c-0.784,0-1.419-0.635-1.419-1.419s0.635-1.419,1.419-1.419  c0.784,0,1.419,0.635,1.419,1.419S32.849,42.422,32.066,42.422z M47.78,40.276c-0.784,0-1.419-0.635-1.419-1.419  s0.635-1.419,1.419-1.419c0.784,0,1.419,0.635,1.419,1.419C49.199,39.641,48.564,40.276,47.78,40.276z"/>
<path fill="#d83936" d="M19.616,37.862L0,169.202l51.575,9.526c0,0-4.017-125.527-18.852-140.165L19.616,37.862z"/>
<path fill="#89B3F4" d="M54.515,30.268l-7.724,89.98l40,21.75L67.622,30.969L54.515,30.268z"/>
<path fill="#c02220" d="M67.605,30.915c-10.806,3.457-34.996,7.596-34.996,7.596l18.975,140.174l61.39-27.034  C112.974,151.652,70.533,51.789,67.605,30.915z M45.081,43.063c-0.784,0-1.419-0.635-1.419-1.419s0.635-1.419,1.419-1.419  c0.784,0,1.419,0.635,1.419,1.419S45.864,43.063,45.081,43.063z M60.795,40.917c-0.784,0-1.419-0.635-1.419-1.419  s0.635-1.419,1.419-1.419c0.784,0,1.419,0.635,1.419,1.419C62.214,40.282,61.579,40.917,60.795,40.917z"/>
<g>
	<path fill="#e94a47" d="M60.796,41.417c-1.059,0-1.92-0.861-1.92-1.919c0-1.059,0.861-1.919,1.92-1.919s1.919,0.861,1.919,1.919   C62.715,40.556,61.854,41.417,60.796,41.417z M60.796,38.579c-0.507,0-0.92,0.413-0.92,0.919c0,0.507,0.413,0.919,0.92,0.919   s0.919-0.412,0.919-0.919C61.715,38.991,61.303,38.579,60.796,38.579z"/>
</g>
<g>
	<path fill="#e94a47" d="M45.081,43.563c-1.059,0-1.92-0.861-1.92-1.919c0-1.059,0.861-1.919,1.92-1.919S47,40.586,47,41.644   C47,42.702,46.14,43.563,45.081,43.563z M45.081,40.725c-0.507,0-0.92,0.413-0.92,0.919s0.413,0.919,0.92,0.919   S46,42.151,46,41.644S45.588,40.725,45.081,40.725z"/>
</g>
<g>
	<path fill="#428DFC" d="M45.07,41.642c-0.17,0-0.335-0.087-0.429-0.243c-1.92-3.2-4.377-5.773-6.979-8.497   c-0.665-0.696-1.333-1.396-1.994-2.109c-3.505-3.78-7.837-8.934-10.245-15.283c-0.843-2.223-3.415-9.751-1.141-13.354   c0.738-1.169,1.898-1.826,3.447-1.953c3.896-0.317,6.356,3.755,8.331,7.03c0.523,0.868,1.018,1.688,1.479,2.318   c3.188,4.354,10.159,13.119,11.962,14.93c0.176,0.177,0.418,0.406,0.714,0.688c2.241,2.131,7.488,7.122,10.71,14.031   c0.117,0.25,0.009,0.548-0.242,0.664c-0.249,0.117-0.548,0.01-0.664-0.242c-3.142-6.737-8.293-11.637-10.493-13.729   c-0.304-0.289-0.553-0.526-0.734-0.708c-1.866-1.873-8.781-10.565-12.06-15.043c-0.488-0.667-0.994-1.506-1.529-2.394   c-1.833-3.039-4.116-6.803-7.393-6.551c-1.236,0.102-2.114,0.59-2.683,1.491c-1.611,2.551-0.42,8.111,1.23,12.464   c2.346,6.188,6.6,11.245,10.043,14.959c0.658,0.71,1.323,1.405,1.984,2.098c2.525,2.645,5.136,5.379,7.114,8.675   c0.142,0.236,0.065,0.544-0.171,0.686C45.247,41.62,45.158,41.642,45.07,41.642z"/>
</g>

        </g>
    </g>
</g>

<!-- ITEM 2 -->
<g>
    <defs>
        
        <clipPath id="clip-path-id-viewbox-item-2">
            <rect x="0.0" y="0.0" width="250.0" height="400.0"/>
        </clipPath>
    </defs>
    <g transform="translate(1306.0 338.0) rotate(0.0 -234.5 375.5) scale(-1.876 1.8775)">
        <g clip-path="url(#clip-path-id-viewbox-item-2)" transform="translate(-0.0 -0.0)">

<linearGradient id="L_hand_2_-i2" gradientUnits="userSpaceOnUse" x1="-5316.6431" y1="-2118.8042" x2="-4161.3257" y2="-2118.8042" gradientTransform="matrix(-0.0741 0 0 -0.0741 -161.7387 23.3094)">
	<stop offset="0" style="stop-color:#FFBEB6"/>
	<stop offset="1" style="stop-color:#F2A19C"/>
</linearGradient>
<path id="L_hand_1_-i2" fill="url(#L_hand_2_-i2)" d="M160.6,170.704c0,0,17.391,3.24,26.578-0.057  c9.187-3.297,22.412-11.753,26.918-8.629c4.507,3.124,18.128,12.701,18.128,12.701s-3.813,4.166-12.135-1.041  c-8.32-5.208-9.482-1.816-13.99,1.483c-4.508,3.298-13.376,12.671-21.523,9.894c-8.146-2.778-12.481-1.909-19.761,2.951  c-7.281,4.86-18.2,11.283-18.2,11.283l6.24-24.475L160.6,170.704z"/>
<linearGradient id="R_sleeve_2_-i2" gradientUnits="userSpaceOnUse" x1="-4350.062" y1="4017.3782" x2="-3444.1685" y2="4017.3782" gradientTransform="matrix(-0.0741 0 0 0.0741 -161.7387 -141.1613)">
	<stop offset="0" style="stop-color:#28306D"/>
	<stop offset="1" style="stop-color:#13194C"/>
</linearGradient>
<path id="R_sleeve_1_-i2" fill="url(#R_sleeve_2_-i2)" d="M93.474,130.468c0.327,1.338,0.624,2.734,0.881,4.162  c5.887,32.311,19.969,46.081,38.701,47.694c10.078,0.868,18.655-0.646,25.72-1.38l1.825-10.24  C107.854,166.76,97.966,140.248,93.474,130.468z"/>
<linearGradient id="L_shoe_1_-i2" gradientUnits="userSpaceOnUse" x1="6236.978" y1="7010.6753" x2="5364.6953" y2="7129.6226" gradientTransform="matrix(0.0741 0 0 0.0741 -230.5491 -141.1613)">
	<stop offset="0" style="stop-color:#A1C3FC"/>
	<stop offset="0.6955" style="stop-color:#81AEF2"/>
	<stop offset="0.8442" style="stop-color:#7DACF1"/>
	<stop offset="1" style="stop-color:#78A9EF"/>
</linearGradient>
<path id="L_shoe-i2" fill="url(#L_shoe_1_-i2)" d="M165.797,363.944l-12.906,36.053L244.003,400c0,0-4.672-9.024-20.245-15.707  c-15.573-6.684-30.11-20.347-30.11-20.347L165.797,363.944"/>
<linearGradient id="R_shoe_1_-i2" gradientUnits="userSpaceOnUse" x1="5133.3979" y1="7063.6235" x2="3517.6943" y2="7341.167" gradientTransform="matrix(0.0741 0 0 0.0741 -230.5491 -141.1613)">
	<stop offset="0" style="stop-color:#A1C3FC"/>
	<stop offset="0.6955" style="stop-color:#81AEF2"/>
	<stop offset="1" style="stop-color:#78A9EF"/>
</linearGradient>
<path id="R_shoe-i2" fill="url(#R_shoe_1_-i2)" d="M112.368,363.944l-12.906,36.053L190.576,400c0,0-4.672-9.024-20.245-15.707  c-15.573-6.684-28.225-20.352-28.225-20.352L112.368,363.944"/>
<linearGradient id="L_trousers_1_-i2" gradientUnits="userSpaceOnUse" x1="6780.1279" y1="6681.3901" x2="5089.311" y2="5387.6592" gradientTransform="matrix(0.0741 0 0 0.0741 -230.5491 -141.1613)">
	<stop offset="0.1291" style="stop-color:#428DFC"/>
	<stop offset="0.9987" style="stop-color:#1D72D8"/>
</linearGradient>
<path id="L_trousers-i2" fill="url(#L_trousers_1_-i2)" d="M163.812,200.054c-26.941-2.796-69.599-4.115-69.599-4.115l-63.037,11.021  c0,0-12.995,29.007,38.568,31.691c24.57,1.279,77.148,11.774,89.74,6.462c2.328-0.991,5.017,0.095,6.007,2.426  c0.27,0.637,0.393,1.328,0.359,2.019c-0.264,4.959-0.285,7.531-7.288,26.601c-10.632,28.954-3.598,68.27,7.233,87.785h27.851  c1.414-7.968,18.924-115.211,19.486-132.516C214.016,204.184,182.826,202.027,163.812,200.054z"/>
<path id="R_trousers-i2" fill="#428DFC" d="M15.514,184.947c0,0-20.981,47.759,28.705,61.828c23.676,6.705,74.504,6.254,87.959,3.87  c2.49-0.45,4.871,1.207,5.32,3.7c0.122,0.682,0.09,1.382-0.097,2.048c-1.355,4.777-1.946,7.28-12.998,24.32  c-18.951,29.218-22.175,61.09-12.035,83.229l29.737-0.003c0,0,42.838-101.592,49.469-118.353  c9.429-23.829-11.176-35.041-37.715-40.465S79.421,188.2,79.421,188.2L15.514,184.947"/>
<path id="texture-3-i2" opacity="0.86" fill="#FFFFFF" enable-background="new    " d="M44.127,216.853  c0.099,0.042,0.213-0.003,0.256-0.103c0.043-0.099-0.003-0.214-0.103-0.256c-0.099-0.042-0.213,0.003-0.256,0.103l0,0  C43.982,216.696,44.028,216.81,44.127,216.853L44.127,216.853z M45.961,212.449c0.103,0.04,0.219-0.005,0.269-0.104  c0.036-0.102-0.014-0.216-0.116-0.254c-0.091-0.046-0.201-0.009-0.248,0.082c-0.003,0.007-0.006,0.014-0.009,0.02  C45.817,212.292,45.862,212.406,45.961,212.449L45.961,212.449z M64.099,216.802c0.04,0.103,0.156,0.154,0.259,0.113l0,0  c0.095-0.034,0.144-0.139,0.109-0.234c-0.003-0.008-0.006-0.016-0.01-0.023c-0.036-0.099-0.147-0.151-0.246-0.115  C64.109,216.583,64.059,216.699,64.099,216.802L64.099,216.802z M37.268,209.125c0.074,0.075,0.195,0.077,0.27,0.003  c0.075-0.074,0.077-0.195,0.003-0.27c-0.074-0.075-0.195-0.077-0.27-0.003c-0.075,0.066-0.083,0.181-0.016,0.257  C37.259,209.116,37.264,209.12,37.268,209.125L37.268,209.125z M53.982,216.176c0.007,0.109,0.094,0.195,0.204,0.202  c0.112-0.001,0.202-0.092,0.201-0.205s-0.092-0.203-0.204-0.202C54.076,215.98,53.989,216.067,53.982,216.176L53.982,216.176z   M18.142,218.034c0.132,0.156,0.366,0.175,0.522,0.044c0.003-0.003,0.007-0.006,0.01-0.009c0.154-0.133,0.171-0.364,0.038-0.516  c-0.001-0.001-0.002-0.002-0.002-0.003c-0.132-0.156-0.366-0.175-0.522-0.044c-0.003,0.003-0.007,0.006-0.01,0.009  c-0.154,0.133-0.171,0.363-0.038,0.516C18.141,218.032,18.142,218.033,18.142,218.034z M24.963,212.101  c0.137,0.156,0.375,0.171,0.531,0.034c0.156-0.137,0.172-0.376,0.034-0.532l0,0c-0.132-0.154-0.363-0.171-0.516-0.038  c-0.001,0.001-0.002,0.002-0.003,0.002C24.855,211.703,24.835,211.938,24.963,212.101L24.963,212.101z M45.279,240.715  c-0.01,0.207,0.147,0.383,0.352,0.398c0.198,0.021,0.375-0.121,0.397-0.319c0.001-0.007,0.001-0.014,0.002-0.02  c0.01-0.207-0.147-0.383-0.352-0.397C45.474,240.359,45.296,240.51,45.279,240.715C45.279,240.714,45.279,240.715,45.279,240.715  L45.279,240.715z M45.908,231.692c-0.012,0.208,0.146,0.385,0.352,0.398c0.207,0.012,0.384-0.146,0.397-0.352l0,0  c0.016-0.205-0.134-0.383-0.338-0.4c0,0,0,0-0.001,0C46.11,231.331,45.932,231.485,45.908,231.692L45.908,231.692z M46.549,222.655  c-0.016,0.204,0.137,0.381,0.339,0.397c0.004,0,0.009,0.001,0.014,0.001c0.198,0.021,0.375-0.121,0.397-0.319  c0.001-0.007,0.001-0.014,0.002-0.02c0.007-0.209-0.148-0.387-0.353-0.411C46.74,222.291,46.563,222.448,46.549,222.655  L46.549,222.655z M47.178,213.631c-0.012,0.207,0.146,0.385,0.352,0.397c0.206,0.012,0.384-0.146,0.396-0.352  c0.017-0.205-0.134-0.383-0.338-0.4c0,0,0,0-0.001,0c-0.206-0.02-0.389,0.133-0.41,0.338  C47.179,213.621,47.178,213.626,47.178,213.631L47.178,213.631z M14.017,202.438c0.067,0.196,0.28,0.302,0.476,0.235  s0.301-0.281,0.235-0.477c-0.001-0.002-0.001-0.003-0.002-0.005c-0.069-0.194-0.281-0.298-0.477-0.232  c-0.194,0.066-0.298,0.276-0.234,0.472C14.015,202.433,14.015,202.436,14.017,202.438L14.017,202.438z M28.099,231.862  c0.186,0.086,0.407,0.004,0.492-0.182c0.086-0.186,0.004-0.407-0.182-0.493c-0.182-0.084-0.397-0.008-0.487,0.172  C27.835,231.547,27.914,231.771,28.099,231.862z M32.136,223.76c0.186,0.086,0.407,0.004,0.492-0.182  c0.086-0.186,0.004-0.407-0.182-0.493c-0.182-0.084-0.397-0.008-0.487,0.172C31.872,223.445,31.951,223.668,32.136,223.76  L32.136,223.76z M36.175,215.67c0.19,0.088,0.417,0.006,0.506-0.184c0.086-0.184,0.012-0.403-0.168-0.497  c-0.186-0.098-0.417-0.026-0.514,0.16c-0.098,0.186-0.026,0.417,0.16,0.514C36.164,215.665,36.17,215.668,36.175,215.67z   M62.396,234.369c0.069,0.194,0.281,0.298,0.478,0.232c0.192-0.063,0.296-0.269,0.234-0.46c-0.001-0.002-0.001-0.003-0.002-0.004  c-0.051-0.192-0.248-0.306-0.438-0.254c-0.009,0.003-0.019,0.005-0.027,0.009C62.447,233.962,62.341,234.169,62.396,234.369z   M59.534,225.775c0.073,0.193,0.281,0.299,0.479,0.244c0.194-0.069,0.297-0.282,0.232-0.478c-0.066-0.194-0.276-0.299-0.471-0.233  c-0.003,0.001-0.004,0.002-0.007,0.003c-0.192,0.063-0.296,0.268-0.235,0.46C59.534,225.773,59.534,225.774,59.534,225.775z   M56.675,217.195c0.058,0.189,0.258,0.297,0.448,0.238c0.006-0.002,0.011-0.003,0.017-0.006c0.196-0.059,0.308-0.264,0.25-0.462  c-0.002-0.006-0.003-0.012-0.006-0.018c-0.068-0.195-0.281-0.299-0.478-0.232C56.711,216.784,56.607,217.001,56.675,217.195z   M20.273,227.688c0.156,0.097,0.359,0.051,0.458-0.103c0.099-0.154,0.055-0.359-0.099-0.46c-0.154-0.099-0.36-0.055-0.459,0.099  c-0.001,0.002-0.003,0.003-0.003,0.006C20.075,227.385,20.12,227.589,20.273,227.688L20.273,227.688z M24.551,220.836  c0.156,0.096,0.359,0.05,0.458-0.103c0.103-0.153,0.063-0.359-0.09-0.462c-0.153-0.103-0.359-0.063-0.461,0.09  c-0.003,0.006-0.008,0.011-0.011,0.017c-0.099,0.15-0.059,0.351,0.092,0.451C24.542,220.831,24.546,220.833,24.551,220.836  L24.551,220.836z M28.693,213.787c0.013,0.083,0.063,0.155,0.136,0.197c0.156,0.096,0.359,0.05,0.458-0.103  c0.101-0.158,0.056-0.369-0.103-0.47c-0.001-0.001-0.002-0.001-0.003-0.002c-0.094-0.06-0.211-0.069-0.314-0.024l-0.013,0.002  c-0.059,0.023-0.106,0.069-0.13,0.127C28.666,213.594,28.655,213.696,28.693,213.787L28.693,213.787z M33.106,207.133  c0.16,0.096,0.367,0.045,0.463-0.115c0.095-0.158,0.046-0.364-0.11-0.46c-0.156-0.097-0.36-0.051-0.458,0.103  c-0.101,0.159-0.055,0.369,0.103,0.471C33.103,207.132,33.104,207.133,33.106,207.133L33.106,207.133z M53.619,233.085  c0.049,0.181,0.231,0.293,0.414,0.254c0.174-0.038,0.283-0.211,0.245-0.385c-0.001-0.004-0.003-0.009-0.003-0.014  c-0.037-0.18-0.214-0.295-0.393-0.257c-0.002,0.001-0.004,0.001-0.006,0.002C53.698,232.729,53.587,232.904,53.619,233.085  L53.619,233.085z M51.817,225.222c0.043,0.177,0.221,0.285,0.397,0.243c0.174-0.038,0.283-0.211,0.246-0.385  c-0.001-0.004-0.003-0.009-0.003-0.014c-0.037-0.18-0.214-0.295-0.393-0.257c-0.002,0-0.004,0.001-0.006,0.002  C51.88,224.861,51.774,225.043,51.817,225.222L51.817,225.222z M49.999,217.337c0.037,0.18,0.214,0.295,0.393,0.257  c0.002-0.001,0.004-0.001,0.006-0.002c0.171-0.032,0.281-0.197,0.249-0.368c-0.002-0.01-0.004-0.02-0.008-0.03  c-0.037-0.18-0.214-0.295-0.393-0.257c-0.002,0-0.004,0.001-0.006,0.002C50.067,216.985,49.961,217.16,49.999,217.337  L49.999,217.337z M16.899,208.352c0.104,0.148,0.308,0.183,0.456,0.079c0.004-0.003,0.009-0.006,0.012-0.009  c0.145-0.098,0.182-0.295,0.084-0.44c-0.003-0.006-0.008-0.011-0.012-0.016c-0.103-0.153-0.308-0.192-0.461-0.09  c-0.003,0.003-0.007,0.004-0.009,0.007C16.824,207.995,16.792,208.202,16.899,208.352L16.899,208.352z M23.473,203.656  c0.103,0.148,0.307,0.187,0.457,0.085c0.153-0.107,0.189-0.318,0.083-0.472c-0.111-0.147-0.316-0.182-0.471-0.083  c-0.149,0.109-0.181,0.319-0.071,0.468C23.472,203.655,23.472,203.656,23.473,203.656L23.473,203.656z M36.317,229.398  c-0.024,0.182,0.1,0.351,0.281,0.38c0.18,0.03,0.35-0.089,0.381-0.269c0.027-0.182-0.091-0.355-0.27-0.395  C36.524,229.087,36.35,229.212,36.317,229.398z M37.659,221.426c-0.036,0.173,0.076,0.343,0.249,0.378  c0.007,0.002,0.013,0.003,0.02,0.003c0.18,0.03,0.35-0.089,0.381-0.269c0.027-0.182-0.091-0.355-0.27-0.395  C37.855,221.119,37.687,221.245,37.659,221.426z M38.987,213.455c-0.03,0.18,0.089,0.35,0.269,0.382  c0.18,0.03,0.35-0.089,0.381-0.269l0,0c0.03-0.18-0.089-0.35-0.269-0.382C39.189,213.155,39.017,213.276,38.987,213.455z   M66.526,222.941c0.098,0.145,0.294,0.182,0.439,0.084c0.006-0.003,0.011-0.008,0.016-0.012c0.153-0.103,0.192-0.309,0.09-0.462  c-0.003-0.003-0.004-0.007-0.007-0.009c-0.112-0.145-0.319-0.175-0.468-0.071c-0.148,0.104-0.183,0.309-0.079,0.457  C66.521,222.933,66.524,222.937,66.526,222.941L66.526,222.941z M61.838,216.358c0.109,0.15,0.317,0.187,0.471,0.083  c0.149-0.112,0.179-0.325,0.067-0.474c-0.107-0.143-0.304-0.177-0.454-0.08c-0.152,0.099-0.194,0.304-0.095,0.456  C61.83,216.347,61.833,216.353,61.838,216.358L61.838,216.358z M20.8,207.663c0.082,0.075,0.207,0.069,0.281-0.012  c0.074-0.081,0.069-0.208-0.012-0.282c-0.082-0.075-0.207-0.069-0.281,0.012C20.717,207.463,20.722,207.586,20.8,207.663  L20.8,207.663z M24.044,204.184c0.082,0.075,0.207,0.069,0.281-0.012c0.075-0.082,0.069-0.208-0.012-0.282  c-0.082-0.075-0.207-0.069-0.281,0.012l0,0C23.962,203.985,23.967,204.108,24.044,204.184L24.044,204.184z M39.504,214.56  c0.003,0.108,0.094,0.192,0.201,0.188c0.107-0.003,0.192-0.094,0.188-0.202c-0.003-0.107-0.094-0.192-0.201-0.188l0,0  C39.585,214.362,39.501,214.452,39.504,214.56L39.504,214.56L39.504,214.56z M39.332,209.798c0.01,0.109,0.104,0.192,0.215,0.187  c0.108-0.003,0.192-0.093,0.188-0.202l0,0c0.001-0.103-0.083-0.188-0.187-0.188c-0.005,0-0.01,0-0.014,0.001  c-0.11-0.001-0.2,0.088-0.201,0.198C39.332,209.795,39.332,209.796,39.332,209.798L39.332,209.798z M30.265,210.61  c0.102,0.03,0.21-0.02,0.254-0.116c0.04-0.098-0.008-0.211-0.106-0.25c-0.003-0.002-0.007-0.003-0.01-0.004  c-0.096-0.042-0.206,0.003-0.248,0.098c-0.003,0.006-0.004,0.011-0.007,0.017C30.111,210.457,30.163,210.57,30.265,210.61  L30.265,210.61z M31.943,206.145c0.102,0.03,0.21-0.02,0.254-0.116c0.034-0.102-0.016-0.214-0.116-0.254  c-0.094-0.044-0.206-0.003-0.251,0.091c-0.002,0.004-0.003,0.008-0.005,0.012c-0.043,0.102,0.004,0.22,0.105,0.262  C31.935,206.142,31.939,206.144,31.943,206.145L31.943,206.145z M17.403,212.392c0.099,0.065,0.233,0.036,0.297-0.063  c0.001-0.002,0.003-0.003,0.003-0.006c0.069-0.1,0.043-0.237-0.057-0.305c-0.004-0.003-0.009-0.006-0.014-0.009  c-0.099-0.065-0.233-0.036-0.297,0.063c-0.001,0.002-0.003,0.003-0.003,0.006C17.268,212.183,17.299,212.323,17.403,212.392  L17.403,212.392z M20.321,207.811c0.107,0.066,0.248,0.032,0.313-0.075c0.065-0.105,0.033-0.243-0.069-0.311  c-0.099-0.065-0.233-0.036-0.297,0.063c-0.001,0.002-0.003,0.003-0.003,0.006c-0.073,0.097-0.054,0.234,0.043,0.307  C20.31,207.804,20.315,207.807,20.321,207.811L20.321,207.811z M23.251,203.227c0.095,0.054,0.215,0.037,0.291-0.04  c0.011-0.015,0.024-0.017,0.023-0.03c0.068-0.106,0.036-0.247-0.071-0.315c-0.106-0.068-0.247-0.035-0.314,0.071  C23.113,203.019,23.144,203.159,23.251,203.227z M39.822,216.273c0.019,0.113,0.126,0.191,0.241,0.171  c0.009-0.002,0.017-0.003,0.026-0.006c0.119-0.028,0.192-0.148,0.166-0.266c-0.031-0.118-0.147-0.194-0.268-0.179  c-0.122,0.031-0.195,0.156-0.165,0.277C39.822,216.272,39.822,216.272,39.822,216.273L39.822,216.273z M38.643,210.962  c0.03,0.123,0.156,0.195,0.277,0.165c0.001,0,0.001,0,0.002-0.001c0.119-0.028,0.192-0.148,0.165-0.266  c-0.031-0.118-0.147-0.194-0.268-0.179C38.698,210.716,38.621,210.836,38.643,210.962L38.643,210.962z M15.67,199.262  c0.071,0.098,0.205,0.122,0.304,0.053c0.105-0.066,0.137-0.206,0.071-0.311c-0.002-0.003-0.004-0.006-0.006-0.009  c-0.075-0.101-0.216-0.123-0.318-0.048C15.62,199.02,15.598,199.161,15.67,199.262L15.67,199.262z M28.693,213.787  c0.026,0.018,0.056,0.033,0.086,0.042c0.119,0.022,0.235-0.057,0.257-0.177c0.001-0.003,0.001-0.005,0.001-0.008  c0.019-0.118-0.055-0.231-0.171-0.26l-0.013,0.002c-0.119-0.022-0.235,0.057-0.257,0.177c-0.001,0.003-0.001,0.005-0.001,0.008  C28.578,213.657,28.617,213.744,28.693,213.787L28.693,213.787z M29.554,208.207c-0.024,0.118,0.05,0.234,0.168,0.26  c0.001,0,0.002,0,0.003,0.001c0.122,0.021,0.241-0.054,0.273-0.173c0.016-0.126-0.065-0.242-0.186-0.271  C29.691,208.002,29.575,208.085,29.554,208.207L29.554,208.207z M21.561,227.05c-0.034,0.21,0.108,0.408,0.318,0.443  s0.408-0.108,0.442-0.318c0.034-0.21-0.108-0.408-0.318-0.443C21.795,226.699,21.597,226.841,21.561,227.05L21.561,227.05z   M23.001,217.834c-0.027,0.213,0.119,0.408,0.332,0.44c0.209,0.026,0.401-0.123,0.427-0.333c0.026-0.21-0.122-0.402-0.333-0.427  C23.222,217.488,23.034,217.63,23.001,217.834z M24.454,208.616c-0.034,0.21,0.108,0.408,0.318,0.443  c0.209,0.034,0.408-0.108,0.442-0.318s-0.108-0.408-0.318-0.443C24.687,208.263,24.489,208.406,24.454,208.616L24.454,208.616z   M58.306,227.339c0.132,0.171,0.374,0.209,0.552,0.086c0.17-0.133,0.199-0.377,0.067-0.547c-0.127-0.164-0.361-0.198-0.531-0.078  C58.225,226.926,58.186,227.164,58.306,227.339z M52.823,219.797c0.127,0.169,0.365,0.208,0.539,0.087  c0.173-0.126,0.212-0.367,0.088-0.54c-0.125-0.173-0.366-0.213-0.539-0.088C52.74,219.384,52.701,219.624,52.823,219.797z   M13.142,209.981c0.183,0.113,0.423,0.055,0.536-0.129c0.113-0.183,0.055-0.423-0.128-0.537s-0.423-0.055-0.536,0.129  C12.906,209.628,12.963,209.865,13.142,209.981L13.142,209.981z M17.993,202.009c0.175,0.117,0.414,0.071,0.532-0.105  c0.002-0.003,0.004-0.006,0.006-0.009c0.109-0.184,0.053-0.421-0.128-0.537c-0.181-0.113-0.419-0.059-0.532,0.122  c-0.002,0.003-0.003,0.004-0.004,0.007C17.759,201.665,17.815,201.899,17.993,202.009L17.993,202.009z M38.43,231.499  c0.06,0.204,0.264,0.326,0.471,0.287c0.203-0.057,0.324-0.266,0.272-0.471c-0.044-0.205-0.247-0.334-0.451-0.29  c-0.003,0.001-0.005,0.001-0.008,0.002C38.507,231.077,38.378,231.289,38.43,231.499C38.43,231.498,38.43,231.498,38.43,231.499  L38.43,231.499z M36.243,222.42c0.052,0.21,0.262,0.338,0.471,0.287h0.001c0.202-0.051,0.325-0.254,0.275-0.457c0,0,0,0,0-0.001  c-0.047-0.207-0.251-0.336-0.457-0.29s-0.336,0.251-0.289,0.458C36.243,222.418,36.243,222.419,36.243,222.42L36.243,222.42z   M34.059,213.355c0.044,0.205,0.247,0.334,0.45,0.29c0.003-0.001,0.005-0.001,0.008-0.002c0.21-0.045,0.345-0.251,0.3-0.462  c-0.044-0.211-0.251-0.345-0.461-0.301c-0.21,0.045-0.345,0.251-0.3,0.462C34.057,213.346,34.058,213.35,34.059,213.355z   M32.783,234.498c0.048,0.206,0.252,0.334,0.457,0.288c0.205-0.048,0.334-0.252,0.287-0.458c-0.046-0.201-0.243-0.329-0.444-0.291  C32.874,234.082,32.739,234.288,32.783,234.498L32.783,234.498z M30.983,225.379c0.044,0.21,0.25,0.344,0.459,0.301  c0.203-0.047,0.336-0.242,0.303-0.448c-0.048-0.21-0.249-0.347-0.462-0.315C31.077,224.968,30.945,225.17,30.983,225.379  L30.983,225.379z M29.183,216.261c0.044,0.21,0.25,0.344,0.459,0.301c0.207-0.041,0.343-0.24,0.303-0.448  c-0.04-0.208-0.24-0.343-0.447-0.304l0,0C29.29,215.852,29.151,216.051,29.183,216.261z M27.396,207.14  c0.031,0.203,0.221,0.339,0.423,0.308c0.008-0.001,0.016-0.003,0.024-0.004c0.205-0.042,0.341-0.241,0.302-0.448  c-0.039-0.208-0.239-0.343-0.446-0.305c-0.207,0.039-0.343,0.239-0.304,0.447C27.395,207.138,27.396,207.14,27.396,207.14z   M15.297,220.199c-0.039,0.206,0.096,0.405,0.301,0.445c0.001,0,0.002,0,0.003,0.001c0.207,0.045,0.413-0.086,0.459-0.294  c0.039-0.211-0.097-0.414-0.306-0.458C15.543,219.857,15.342,219.992,15.297,220.199z M17.127,211.078  c-0.044,0.207,0.088,0.411,0.294,0.456c0.207,0.045,0.411-0.088,0.455-0.295c0.001-0.003,0.001-0.005,0.002-0.008  c0.035-0.21-0.098-0.411-0.306-0.458c-0.205-0.04-0.404,0.096-0.444,0.302C17.128,211.075,17.128,211.076,17.127,211.078  L17.127,211.078z M18.946,201.971c-0.035,0.213,0.109,0.413,0.322,0.448c0.202,0.033,0.395-0.097,0.442-0.297  c0.041-0.211-0.095-0.415-0.306-0.458C19.191,201.622,18.988,201.76,18.946,201.971z M48.433,223.002  c0.122,0.175,0.363,0.22,0.54,0.101c0.174-0.117,0.219-0.353,0.103-0.528c-0.108-0.177-0.338-0.233-0.516-0.126  c-0.005,0.003-0.009,0.006-0.014,0.009c-0.181,0.113-0.235,0.352-0.12,0.533C48.428,222.994,48.431,222.998,48.433,223.002  L48.433,223.002z M43.288,215.266c0.122,0.175,0.363,0.22,0.54,0.101c0.174-0.117,0.219-0.353,0.103-0.528  c-0.108-0.177-0.338-0.233-0.516-0.126c-0.005,0.003-0.009,0.006-0.014,0.009c-0.18,0.113-0.235,0.352-0.12,0.533  C43.282,215.259,43.285,215.262,43.288,215.266L43.288,215.266z M32.982,218.452c0.065,0.148,0.235,0.215,0.382,0.151  c0.144-0.063,0.211-0.228,0.154-0.374c-0.054-0.143-0.215-0.216-0.358-0.161c-0.009,0.003-0.018,0.008-0.027,0.012  C32.99,218.143,32.924,218.307,32.982,218.452L32.982,218.452z M30.23,212.02c0.065,0.148,0.237,0.216,0.384,0.15  c0.148-0.065,0.215-0.237,0.15-0.385c0,0,0-0.001-0.001-0.001c-0.062-0.147-0.23-0.216-0.376-0.154  c-0.003,0.002-0.006,0.003-0.009,0.004C30.234,211.701,30.168,211.872,30.23,212.02L30.23,212.02z M27.476,205.575  c0.065,0.148,0.237,0.215,0.385,0.149c0.148-0.065,0.214-0.237,0.149-0.386c-0.065-0.148-0.237-0.215-0.385-0.149l0,0  C27.481,205.257,27.414,205.427,27.476,205.575L27.476,205.575z M18.144,217.75c0.006,0.16,0.137,0.285,0.295,0.284  c0.157-0.011,0.279-0.139,0.283-0.296c-0.003-0.16-0.133-0.287-0.293-0.284c-0.001,0-0.002,0-0.003,0  c-0.154-0.003-0.281,0.121-0.283,0.275C18.143,217.737,18.143,217.743,18.144,217.75L18.144,217.75z M18.051,210.734  c0.007,0.161,0.137,0.291,0.298,0.297c0.16-0.003,0.286-0.134,0.283-0.294c0-0.001,0-0.002,0-0.003  c0.003-0.154-0.118-0.282-0.272-0.286c-0.003,0-0.007,0-0.01,0c-0.16-0.005-0.293,0.119-0.298,0.28  C18.051,210.73,18.051,210.732,18.051,210.734L18.051,210.734z M17.974,203.729c-0.003,0.154,0.12,0.282,0.275,0.284  c0.007,0,0.014,0,0.02-0.001c0.153,0.005,0.28-0.115,0.285-0.268c0-0.005,0-0.01,0-0.014c-0.007-0.161-0.137-0.291-0.298-0.297  c-0.16,0.003-0.286,0.134-0.283,0.294C17.974,203.727,17.974,203.728,17.974,203.729L17.974,203.729z M16.386,202.3  c0.013,0.088,0.093,0.148,0.181,0.137c0.088-0.012,0.15-0.093,0.137-0.181c-0.012-0.088-0.093-0.15-0.181-0.137  c-0.004,0.001-0.009,0.002-0.014,0.003C16.428,202.139,16.375,202.216,16.386,202.3L16.386,202.3z M20.857,208.479  c0.08,0.119,0.242,0.152,0.36,0.072l0,0c0.113-0.066,0.154-0.212,0.088-0.326c-0.004-0.008-0.009-0.014-0.014-0.021  c-0.065-0.118-0.213-0.162-0.332-0.098c-0.006,0.003-0.012,0.007-0.018,0.011c-0.121,0.071-0.165,0.226-0.094,0.348  C20.851,208.469,20.855,208.474,20.857,208.479z M17.496,203.105c0.065,0.118,0.213,0.162,0.332,0.098  c0.006-0.003,0.012-0.007,0.018-0.011c0.121-0.071,0.165-0.226,0.094-0.348c-0.003-0.005-0.006-0.01-0.009-0.015  c-0.077-0.123-0.239-0.16-0.363-0.085c-0.118,0.075-0.154,0.231-0.08,0.349C17.492,203.098,17.494,203.101,17.496,203.105  L17.496,203.105z M14.124,197.746c0.079,0.121,0.239,0.158,0.363,0.085c0.122-0.073,0.163-0.232,0.09-0.355  c-0.002-0.003-0.003-0.006-0.005-0.009c-0.077-0.123-0.239-0.16-0.363-0.085C14.087,197.462,14.051,197.621,14.124,197.746  L14.124,197.746z"/>
<path id="L_hand-i2" fill="#FFBEB6" d="M136.959,179.104c0,0,55.838-1.692,65.025-4.99c9.187-3.298,23.401-10.763,27.908-7.638  C234.4,169.599,250,183.139,250,183.139s-3.813,4.166-12.134-1.042c-8.32-5.208-8.493-6.771-13.001-3.471  c-4.508,3.298-17.334,12.671-25.48,9.895c-8.146-2.777-12.481-1.909-19.761,2.951c-7.281,4.86-45.19,23.737-45.19,23.737  L136.959,179.104"/>
<linearGradient id="sweater_1_-i2" gradientUnits="userSpaceOnUse" x1="3939.8174" y1="3494.9009" x2="4164.9072" y2="4876.9497" gradientTransform="matrix(0.0741 0 0 0.0741 -230.5491 -141.1613)">
	<stop offset="0" style="stop-color:#23286B"/>
	<stop offset="1" style="stop-color:#151A4F"/>
</linearGradient>
<path id="sweater-i2" fill="url(#sweater_1_-i2)" d="M130.66,100.635l-17.437-17.461l0,0c-11.594,1.486-22.834,5.011-33.203,10.411  c-5.705,2.995-11.181,6.414-16.377,10.228c-23.843,17.498-23.903,27.777-37.309,38.374c-0.026,0.024-0.056,0.048-0.086,0.069  c-13.382,10.571-30.974,23.088-25.076,47.496c5.95,3.515,11.632,6.638,17.045,9.371c17.773,9.028,32.755,14.206,45.194,16.915  c0,0,0.009,0.009,0.009,0c7.468,1.706,15.105,2.566,22.764,2.563c6.05,0.033,12.073-0.821,17.876-2.538  c2.263-0.678,4.461-1.562,6.564-2.638c5.979-0.847,11.874-2.211,17.62-4.074C97.593,163.977,130.66,100.635,130.66,100.635z"/>
<path id="R_sleeve-i2" fill="#23286B" d="M130.66,100.635c0,0-37.187,23.418-28.691,56.032c2.486,9.544,8.642,14.294,19.891,17.844  c13.477,4.253,16.99,4.149,16.99,4.149l-3.729,61.001c0,0-28.258,0.545-40.609-13.175c-13.891-15.429-25.115-17.337-33.567-23.343  c-12.846-9.129-16.161-24.483-15.332-42.328c1.559-33.581,26.106-66.396,67.612-77.643l0,0"/>
<linearGradient id="neck_1_-i2" gradientUnits="userSpaceOnUse" x1="4618.4375" y1="3334.8464" x2="4837.2231" y2="3035.4563" gradientTransform="matrix(0.0741 0 0 0.0741 -230.5491 -141.1613)">
	<stop offset="0" style="stop-color:#FFBEB6"/>
	<stop offset="1" style="stop-color:#F2A19C"/>
</linearGradient>
<path id="neck-i2" fill="url(#neck_1_-i2)" d="M146.2,75.726c0,0-7.47,8.543-15.54,24.909c0,0-14.323,3.326-17.437-17.461  c0,0,15.058-6.845,15.552-14.166L146.2,75.726z"/>
<path id="face-i2" fill="#FFBEB6" d="M166.405,54.644c0.002,0.137-0.001,0.239,0.003,0.299c0.006,0.02,0.008,0.042,0.003,0.061  c0.006,0.549-0.009,1.107-0.039,1.685c-0.328,6.215,3.236,11.712,2.929,13.383c-0.307,1.671-3.775,2.205-5.363,2.071  s-4.884,7.307-12.05,10.658c-6.725,3.145-15.569,0.995-20.883-3.345c0.028-13.427,2.066-22.534,15.685-26.099  c14.865-3.898,16.869-9.694,16.869-9.694C165.317,47.064,166.29,50.817,166.405,54.644z"/>
<linearGradient id="hair_1_-i2" gradientUnits="userSpaceOnUse" x1="4683.8062" y1="1870.7925" x2="4905.5459" y2="2340.7488" gradientTransform="matrix(0.0741 0 0 0.0741 -230.5491 -141.1613)">
	<stop offset="0" style="stop-color:#E94A47"/>
	<stop offset="0.9918" style="stop-color:#D62929"/>
</linearGradient>
<ellipse id="hair-i2" fill="url(#hair_1_-i2)" cx="123.942" cy="13.192" rx="13.173" ry="13.192"/>
<path id="eyeglasses-i2" fill="#23286B" d="M175.49,61.393c1.256-3.435,0.433-7.216-1.832-8.434l-0.001-0.001  c-2.267-1.214-5.136,0.593-6.393,4.027c-0.144,0.397-0.262,0.802-0.353,1.215c-1.498-0.446-3.013,0.338-4.321,1.277  c-0.029-0.207-0.038-0.419-0.08-0.621c-0.237-1.646-1.19-3.101-2.604-3.974c-2.624-1.405-5.943,0.694-7.401,4.676  c-0.695,1.851-0.864,3.858-0.49,5.799c0.222,1.309,0.862,2.51,1.821,3.427c0.239,0.212,0.502,0.395,0.783,0.546  c1.346,0.687,2.964,0.555,4.182-0.338c1.51-1.063,2.638-2.584,3.219-4.338c0.478-1.312,0.705-2.704,0.669-4.1  c1.167-0.885,2.66-1.835,4.06-1.383c-0.281,2.362,0.343,4.601,1.681,5.78c0.204,0.181,0.428,0.338,0.667,0.468  C171.365,66.635,174.233,64.827,175.49,61.393z M158.42,68.116c-1.006,0.747-2.347,0.866-3.468,0.306  c-1.169-0.731-1.956-1.944-2.144-3.312c-0.329-1.725-0.175-3.506,0.444-5.148c1.274-3.483,4.109-5.351,6.319-4.166  c0.226,0.122,0.438,0.269,0.63,0.439c0.8,0.77,1.331,1.777,1.514,2.872c0.329,1.725,0.175,3.506-0.444,5.148  C160.758,65.816,159.758,67.17,158.42,68.116z M169.43,64.51c-1.86-0.998-2.492-4.189-1.42-7.122  c1.074-2.934,3.456-4.511,5.311-3.518c1.862,0.996,2.492,4.191,1.42,7.122C173.669,63.925,171.286,65.504,169.43,64.51z"/>
<path id="hair-2-i2" fill="#E94A47" d="M139.52,23.365c-8.059-1.645-14.352-0.248-18.999,2.506c-5.533-0.344-10.06-4.544-10.824-10.044  c-0.09-0.543-0.915-0.313-0.825,0.228c0.794,5.448,5.055,9.734,10.493,10.554c-3.052,2.079-5.526,4.9-7.191,8.198  c-0.357,0.506-0.71,1.02-1.057,1.546c-3.166,4.784-6.259,8.406-11.471,11.063c-6.907,3.522-15.935,6.765-15.979,15.958  c0.009,0.237,0.206,0.421,0.443,0.414c0.226-0.008,0.406-0.188,0.414-0.414c0.054-11.231,13.576-12.751,20.585-18.296  c1.824-1.522,3.417-3.302,4.727-5.285c-2.052,4.071-5.22,8.895-10.642,10.791c-10.198,3.567-11.963,15.683-11.963,15.683  c17.746,16.883,49.62,17.709,49.62,17.709c6.71-14.544-1.344-21.541,10.93-27.292c13.922-6.524,15.78-13.03,15.78-13.03  c1.806,3.515,2.782,7.397,2.854,11.35C172.373,35.04,154.585,26.438,139.52,23.365z"/>

        </g>
    </g>
</g>

<!-- ITEM 3 -->
<g>
    <defs>
        
        <clipPath id="clip-path-id-viewbox-item-3">
            <rect x="-343.543" y="748.354" width="103.828" height="48.248"/>
        </clipPath>
    </defs>
    <g transform="translate(679.0 570.0) rotate(0.0 183.0 84.0) scale(3.525060677273953 3.4820096169789423)">
        <g clip-path="url(#clip-path-id-viewbox-item-3)" transform="translate(343.543 -748.354)">

<rect x="-286.495" y="789.769" fill="#89B3F4" width="46.78" height="6.833"/>
<polygon fill="#A1C3FC" points="-343.543,748.354 -285.409,748.354 -272.006,796.602 -330.14,796.602 "/>
<circle fill="#89B3F4" cx="-309.512" cy="773.308" r="4.993"/>

        </g>
    </g>
</g>

<!-- ITEM 4 -->
<g>
    <defs>
        
        <clipPath id="clip-path-id-viewbox-item-4">
            <rect x="0.0" y="0.0" width="214.0" height="372.0"/>
        </clipPath>
    </defs>
    <g transform="translate(1462.0 553.0) rotate(0.0 -157.5 273.5) scale(-1.47196261682243 1.4704301075268817)">
        <g clip-path="url(#clip-path-id-viewbox-item-4)" transform="translate(-0.0 -0.0)">

<g>
	
		<linearGradient id="wheel_3_1_-i4" gradientUnits="userSpaceOnUse" x1="3845.3201" y1="8969.1982" x2="2455.0232" y2="10940.25" gradientTransform="matrix(0.0178 0 0 0.0178 98.2222 188.9022)">
		<stop offset="0.0898" style="stop-color:#EEEEEE"/>
		<stop offset="0.8178" style="stop-color:#D6D7D8"/>
	</linearGradient>
	<circle id="wheel_3-i4" fill="url(#wheel_3_1_-i4)" cx="159.695" cy="358.12" r="13.876"/>
	
		<linearGradient id="chair_seat_1_-i4" gradientUnits="userSpaceOnUse" x1="7166.9385" y1="-1395.4995" x2="1579.5626" y2="-796.85" gradientTransform="matrix(0.0178 0 0 0.0178 98.2222 188.9022)">
		<stop offset="0.14" style="stop-color:#E94A47"/>
		<stop offset="1" style="stop-color:#C63030"/>
	</linearGradient>
	<rect id="chair_seat-i4" x="31.339" y="158.247" fill="url(#chair_seat_1_-i4)" width="182.661" height="33.757"/>
	
		<linearGradient id="chair_bottom_1_1_-i4" gradientUnits="userSpaceOnUse" x1="1267.5669" y1="1223.2161" x2="1458.7025" y2="-751.934" gradientTransform="matrix(0.0178 0 0 0.0178 98.2222 188.9022)">
		<stop offset="0" style="stop-color:#23286B"/>
		<stop offset="1" style="stop-color:#151A4F"/>
	</linearGradient>
	<path id="chair_bottom_1-i4" fill="url(#chair_bottom_1_1_-i4)" d="M89.379,192.004h66.313l0,0l0,0c0,5.871-4.803,10.541-10.541,10.541   h-45.098C94.049,202.545,89.379,197.875,89.379,192.004L89.379,192.004L89.379,192.004z"/>
	
		<linearGradient id="chair_bottom_2_1_-i4" gradientUnits="userSpaceOnUse" x1="-1774.4059" y1="-171.9043" x2="1984.7495" y2="1946.5952" gradientTransform="matrix(0.0178 0 0 0.0178 98.2222 188.9022)">
		<stop offset="0" style="stop-color:#23286B"/>
		<stop offset="1" style="stop-color:#151A4F"/>
	</linearGradient>
	<rect id="chair_bottom_2-i4" x="114.33" y="202.411" fill="url(#chair_bottom_2_1_-i4)" width="16.278" height="29.754"/>
	
		<linearGradient id="chair_bottom_3_1_-i4" gradientUnits="userSpaceOnUse" x1="1394.5601" y1="4361.2573" x2="1237.8496" y2="9752.2109" gradientTransform="matrix(0.0178 0 0 0.0178 98.2222 188.9022)">
		<stop offset="0" style="stop-color:#23286B"/>
		<stop offset="1" style="stop-color:#151A4F"/>
	</linearGradient>
	<path id="chair_bottom_3-i4" fill="url(#chair_bottom_3_1_-i4)" d="M120.735,228.963h3.603c5.871,0,10.674,4.803,10.674,10.674v86.994   l0,0h-24.951l0,0v-86.994C109.927,233.766,114.731,228.963,120.735,228.963z"/>
	
		<linearGradient id="leg_4_1_-i4" gradientUnits="userSpaceOnUse" x1="3770.3982" y1="8052.0967" x2="1153.2808" y2="7284.2041" gradientTransform="matrix(0.0178 0 0 0.0178 98.2222 188.9022)">
		<stop offset="0" style="stop-color:#23286B"/>
		<stop offset="1" style="stop-color:#151A4F"/>
	</linearGradient>
	<path id="leg_4-i4" fill="url(#leg_4_1_-i4)" d="M122.603,326.631h61.376c7.605,0,13.61,6.138,13.61,13.61v4.403h-4.403v-0.934v-1.868   c0-6.004-4.803-10.808-10.808-10.808l0,0h-59.775L122.603,326.631z"/>
	<path id="leg_3-i4" fill="#23286B" d="M122.603,326.631h25.885c7.605,0,13.61,6.138,13.61,13.61v4.403h-4.403v-0.934v-1.868   c0-6.004-4.803-10.808-10.808-10.808l0,0h-24.284V326.631z"/>
	
		<linearGradient id="leg_1_1_-i4" gradientUnits="userSpaceOnUse" x1="-3130.1257" y1="6079.877" x2="-1030.1648" y2="7976.1084" gradientTransform="matrix(0.0178 0 0 0.0178 98.2222 188.9022)">
		<stop offset="0" style="stop-color:#23286B"/>
		<stop offset="1" style="stop-color:#151A4F"/>
	</linearGradient>
	<path id="leg_1-i4" fill="url(#leg_1_1_-i4)" d="M122.87,326.631H61.493c-7.605,0-13.61,6.138-13.61,13.61v4.403h4.403v-0.934v-1.868   c0-6.004,4.803-10.808,10.808-10.808l0,0h59.775L122.87,326.631z"/>
	<path id="leg_2-i4" fill="#23286B" d="M122.87,326.631H96.985c-7.605,0-13.61,6.138-13.61,13.61v4.403h4.403v-0.934v-1.868   c0-6.004,4.803-10.808,10.808-10.808l0,0h24.284V326.631z"/>
	
		<linearGradient id="wheel_2_1_-i4" gradientUnits="userSpaceOnUse" x1="-234.7086" y1="9132.1367" x2="-2663.3267" y2="11085.5889" gradientTransform="matrix(0.0178 0 0 0.0178 98.2222 188.9022)">
		<stop offset="0.0898" style="stop-color:#EEEEEE"/>
		<stop offset="0.8178" style="stop-color:#D6D7D8"/>
	</linearGradient>
	<circle id="wheel_2-i4" fill="url(#wheel_2_1_-i4)" cx="85.51" cy="358.12" r="13.876"/>
	
		<linearGradient id="wheel_4_1_-i4" gradientUnits="userSpaceOnUse" x1="6100.9658" y1="8845.0889" x2="4235.5049" y2="10833.748" gradientTransform="matrix(0.0178 0 0 0.0178 98.2222 188.9022)">
		<stop offset="0.0898" style="stop-color:#EEEEEE"/>
		<stop offset="0.8178" style="stop-color:#D6D7D8"/>
	</linearGradient>
	<circle id="wheel_4-i4" fill="url(#wheel_4_1_-i4)" cx="195.454" cy="358.12" r="13.876"/>
	
		<linearGradient id="wheel_1_1_-i4" gradientUnits="userSpaceOnUse" x1="-2203.6692" y1="8805.1846" x2="-3681.9573" y2="10881.835" gradientTransform="matrix(0.0178 0 0 0.0178 98.2222 188.9022)">
		<stop offset="0.0898" style="stop-color:#EEEEEE"/>
		<stop offset="0.8178" style="stop-color:#D6D7D8"/>
	</linearGradient>
	<circle id="wheel_1-i4" fill="url(#wheel_1_1_-i4)" cx="50.019" cy="358.12" r="13.876"/>
	
		<linearGradient id="chair_back_1_-i4" gradientUnits="userSpaceOnUse" x1="554.8203" y1="-8350.1348" x2="-5185.3027" y2="3563.3252" gradientTransform="matrix(0.0178 0 0 0.0178 98.2222 188.9022)">
		<stop offset="0.14" style="stop-color:#E94A47"/>
		<stop offset="1" style="stop-color:#C63030"/>
	</linearGradient>
	<path id="chair_back-i4" fill="url(#chair_back_1_-i4)" d="M154.225,192.004H31.339L0.384,26.822C-1.884,14.546,6.121,2.671,18.53,0.403   c1.334-0.267,2.802-0.4,4.136-0.4h76.72c10.941,0,20.281,7.739,22.282,18.413L154.225,192.004z"/>
</g>

        </g>
    </g>
</g>

<!-- ITEM 5 -->
<g>
    <defs>
        
        <clipPath id="clip-path-id-viewbox-item-5">
            <rect x="0.0" y="0.0" width="175.0" height="200.0"/>
        </clipPath>
    </defs>
    <g transform="translate(323.0 798.0) rotate(6.868483893090581 145.5 165.5) scale(1.6628571428571428 1.655)">
        <g clip-path="url(#clip-path-id-viewbox-item-5)" transform="translate(-0.0 -0.0)">

<title>Asset 2</title>
<linearGradient id="blue_circle_1_-i5" gradientUnits="userSpaceOnUse" x1="4768.5732" y1="3773.5898" x2="6002.874" y2="3773.5898" gradientTransform="matrix(0.0741 0 0 0.0741 -276.8441 -233.7513)">
	<stop offset="0" style="stop-color:#A1C3FC"/>
	<stop offset="0.6955" style="stop-color:#81AEF2"/>
	<stop offset="1" style="stop-color:#78A9EF"/>
</linearGradient>
<path id="blue_circle-i5" fill="url(#blue_circle_1_-i5)" d="M76.932,52.077C73.518,26.976,91.036,3.851,116.056,0.426  s48.074,14.148,51.488,39.247c3.414,25.101-14.103,48.226-39.123,51.651C103.407,94.719,80.373,77.162,76.932,52.077z"/>
<path id="otlined_square-i5" fill="#FFFFFF" d="M117.871,79.657L47.064,126.87L0,55.839L70.807,8.626L117.871,79.657z M48.401,120.217  l62.838-41.899L69.472,15.281L6.634,57.18L48.401,120.217z"/>
<linearGradient id="box_side_1_-i5" gradientUnits="userSpaceOnUse" x1="3987.488" y1="4998.7485" x2="4346.4072" y2="4969.2485" gradientTransform="matrix(0.0741 0 0 0.0741 -276.8441 -233.7513)">
	<stop offset="0" style="stop-color:#EEEEEE"/>
	<stop offset="1" style="stop-color:#DCE3EA"/>
</linearGradient>
<polygon id="box_side-i5" fill="url(#box_side_1_-i5)" points="28.888,73.096 3.847,70.436 44.279,195.184 68.401,200 "/>
<linearGradient id="box_front_side_1_-i5" gradientUnits="userSpaceOnUse" x1="5125.2012" y1="4911.3691" x2="5142.9126" y2="6115.7388" gradientTransform="matrix(0.0741 0 0 0.0741 -276.8441 -233.7513)">
	<stop offset="0" style="stop-color:#EEEEEE"/>
	<stop offset="1" style="stop-color:#DCE3EA"/>
</linearGradient>
<polygon id="box_front_side-i5" fill="url(#box_front_side_1_-i5)" points="175,52.691 166.046,182.34 68.401,200 28.888,73.096 "/>

        </g>
    </g>
</g>

<!-- ITEM 6 -->
<g>
    <defs>
        
        <clipPath id="clip-path-id-viewbox-item-6">
            <rect x="0.0" y="0.0" width="100.0" height="100.0"/>
        </clipPath>
    </defs>
    <g transform="translate(298.0 183.0) rotate(0.0 150.5 150.5) scale(3.01 3.01)">
        <g clip-path="url(#clip-path-id-viewbox-item-6)" transform="translate(-0.0 -0.0)">


<title>square_blue</title>
<rect width="100" height="100" style="fill:#a1c3fc;"/>

        </g>
    </g>
</g>

<!-- ITEM 7 -->
<g>
    <defs>
        
        <clipPath id="clip-path-id-viewbox-item-7">
            <rect x="0.0" y="0.0" width="300.0" height="259.0"/>
        </clipPath>
    </defs>
    <g transform="translate(344.0 227.0) rotate(0.0 117.5 102.0) scale(0.7833333333333333 0.7876447876447876)">
        <g clip-path="url(#clip-path-id-viewbox-item-7)" transform="translate(-0.0 -0.0)">

<title>Asset 2</title>
<g id="shopping_cart-i7">
	<path id="body-2-i7" fill="#ffffff" d="M219.829,174.58l-207.48-17.733L0,77.925l252.239-33.026L219.829,174.58z M17.274,151.561   l198.213,16.941L244.7,51.621L6.516,82.804L17.274,151.561z"/>
	<path id="handle-i7" fill="#ffffff" d="M248.467,51.103c-1.57-0.002-2.841-1.277-2.839-2.848c0.001-0.535,0.153-1.06,0.439-1.513   c1.017-1.612,25.201-39.581,49.294-46.626c1.506-0.441,3.085,0.423,3.525,1.932c0.441,1.507-0.423,3.086-1.931,3.526   c-22.031,6.442-45.844,43.828-46.082,44.204C250.352,50.603,249.444,51.104,248.467,51.103z"/>
	<path id="bottom-i7" fill="#ffffff" d="M37.268,226.355l-0.004-5.686c1.48-0.001,148.318-0.118,167.299-0.28   c8.521-0.072,14.365-1.728,16.9-4.791c1.378-1.664,1.805-3.821,1.303-6.593c-1.627-8.987-16.915-30.526-22.67-38.066l4.519-3.45   c0.879,1.151,21.543,28.338,23.745,40.503c0.807,4.46-0.041,8.238-2.519,11.231c-3.69,4.456-10.833,6.761-21.229,6.85   C185.61,226.237,38.75,226.354,37.268,226.355z"/>
	<path id="front_wheel-i7" fill="#ffffff" d="M37.73,259c-10.587,0-19.17-8.585-19.17-19.175s8.583-19.175,19.17-19.175   s19.17,8.585,19.17,19.175l0,0C56.888,250.409,48.312,258.987,37.73,259z M37.73,226.334c-7.448,0-13.486,6.04-13.486,13.49   s6.038,13.49,13.486,13.49s13.486-6.04,13.486-13.49l0,0C51.207,232.378,45.175,226.342,37.73,226.334z"/>
	<path id="back_wheel-i7" fill="#ffffff" d="M201.405,259c-10.587,0-19.17-8.585-19.17-19.175s8.583-19.175,19.17-19.175   s19.17,8.585,19.17,19.175l0,0C220.564,250.409,211.987,258.987,201.405,259z M201.405,226.334c-7.448,0-13.486,6.04-13.486,13.49   s6.038,13.49,13.486,13.49s13.486-6.04,13.486-13.49l0,0C214.883,232.378,208.85,226.342,201.405,226.334z"/>
</g>

        </g>
    </g>
</g>

<!-- ITEM 8 -->
<g>
    <defs>
        
        <clipPath id="clip-path-id-viewbox-item-8">
            <rect x="0.0" y="0.0" width="70.0" height="34.0"/>
        </clipPath>
    </defs>
    <g transform="translate(620.0 188.0) rotate(0.0 98.0 48.0) scale(2.8 2.823529411764706)">
        <g clip-path="url(#clip-path-id-viewbox-item-8)" transform="translate(-0.0 -0.0)">

<g>
	<path style="fill:#d9d8d8;" d="M70,3c0,1.657-1.343,3-3,3H3C1.343,6,0,4.657,0,3l0,0c0-1.657,1.343-3,3-3h64   C68.657,0,70,1.343,70,3L70,3z"/>
	<path style="fill:#d9d8d8;" d="M60,17c0,1.657-1.343,3-3,3H3c-1.657,0-3-1.343-3-3l0,0c0-1.657,1.343-3,3-3h54   C58.657,14,60,15.343,60,17L60,17z"/>
	<path style="fill:#d9d8d8;" d="M50,31c0,1.657-1.343,3-3,3H3c-1.657,0-3-1.343-3-3l0,0c0-1.657,1.343-3,3-3h44   C48.657,28,50,29.343,50,31L50,31z"/>
</g>

        </g>
    </g>
</g>

<!-- ITEM 9 -->
<g>
    <defs>
        
        <clipPath id="clip-path-id-viewbox-item-9">
            <rect x="0.0" y="0.0" width="56.0" height="48.0"/>
        </clipPath>
    </defs>
    <g transform="translate(624.0 324.0) rotate(0.0 83.5 71.5) scale(2.982142857142857 2.9791666666666665)">
        <g clip-path="url(#clip-path-id-viewbox-item-9)" transform="translate(-0.0 -0.0)">


<g>
	<circle cx="4" cy="4" r="4" style="fill:#d9d8d8;"/>
	<rect x="16" y="2" width="40" height="4" style="fill:#d9d8d8;"/>
	<circle cx="4" cy="24" r="4" style="fill:#d9d8d8;"/>
	<rect x="16" y="22" width="40" height="4" style="fill:#d9d8d8;"/>
	<circle cx="4" cy="44" r="4" style="fill:#d9d8d8;"/>
	<rect x="16" y="42" width="40" height="4" style="fill:#d9d8d8;"/>
</g>

        </g>
    </g>
</g>

              </svg>