<?xml version="1.0" encoding="UTF-8"?><svg version="1.1" xmlns="http://www.w3.org/2000/svg" xmlns:xlink="http://www.w3.org/1999/xlink" viewBox="0 0 1500 1500" width="1500" height="1500" x="0px" y="0px">
    
    
    <!-- ITEM 0 -->
    <g>
        <defs>
            <clipPath id="clip-path-id-crop-item-0">
                
          <rect transform="scale(0.1446065105653912 0.14505320435308344)" x="-54.0" y="-42.0" width="1408.0" height="1270.0"/>
        
            </clipPath>
            
            <clipPath id="clip-path-id-viewbox-item-0">
                <rect x="0.0" y="0.0" width="253.206" height="239.918"/>
            </clipPath>
        </defs>
        <g clip-path="url(#clip-path-id-crop-item-0)" transform="translate(149.0 272.0) rotate(0.0 875.5 827.0) scale(6.9153179624495476 6.894022124225777)">
            <g clip-path="url(#clip-path-id-viewbox-item-0)" transform="translate(-0.0 -0.0)">
                
<g>
	<ellipse fill="#f8f8f8" cx="126.603" cy="119.959" rx="126.603" ry="119.959"/>
	<ellipse fill="#f4f4f4" cx="126.603" cy="119.959" rx="101.282" ry="95.967"/>
	<ellipse fill="#eff0f1" cx="126.603" cy="119.959" rx="75.962" ry="71.975"/>
	<circle fill="#fbfbfa" cx="126.774" cy="120.446" r="41.895"/>
</g>

            </g>
        </g>
    </g>
    
    <!-- ITEM 1 -->
    <g>
        <defs>
            <clipPath id="clip-path-id-viewbox-item-1">
                <rect x="0.0" y="0.0" width="545.583" height="442.732"/>
            </clipPath>
        </defs>
        <g transform="translate(287.0 488.0) rotate(48.65912714326862 623.5 505.5) scale(2.2856284011781893 2.283548512418348)">
            <g clip-path="url(#clip-path-id-viewbox-item-1)" transform="translate(-0.0 -0.0)">
                
<g>
	<defs>
		<rect id="SVGID_5_-i2" x="-984.77" y="-90.071" width="800" height="600"/>
	</defs>
	<clipPath id="SVGID_1_-i2">
		<use xlink:href="#SVGID_5_-i2" overflow="visible"/>
	</clipPath>
	<ellipse clip-path="url(#SVGID_1_-i2)" fill="#E8E9EC" cx="-585.77" cy="394.929" rx="615.442" ry="445"/>
</g>
<g>
	<path fill="#FCFCFD" d="M208.03,0l1.128,7.767c0.054,0.357,0.215,0.683,0.474,0.942c0.259,0.253,0.586,0.425,0.942,0.474   l7.761,1.123l-7.767,1.128c-0.357,0.054-0.683,0.215-0.942,0.474c-0.253,0.253-0.425,0.586-0.474,0.942l-1.123,7.761l-1.128-7.767   c-0.054-0.357-0.215-0.683-0.474-0.942c-0.259-0.253-0.586-0.425-0.942-0.474l-7.761-1.123l7.767-1.128   c0.357-0.054,0.683-0.215,0.942-0.474c0.253-0.253,0.424-0.586,0.474-0.942L208.03,0z"/>
	<path fill="#FCFCFD" d="M203.03,80l1.455,10.027c0.069,0.46,0.277,0.881,0.611,1.215c0.334,0.327,0.757,0.549,1.215,0.611   l10.022,1.45l-10.027,1.455c-0.46,0.069-0.881,0.277-1.215,0.611c-0.327,0.327-0.549,0.757-0.611,1.215l-1.45,10.022l-1.455-10.027   c-0.069-0.46-0.277-0.881-0.611-1.215c-0.334-0.327-0.757-0.549-1.215-0.611l-10.022-1.45l10.027-1.455   c0.46-0.069,0.881-0.277,1.215-0.611c0.327-0.327,0.549-0.757,0.611-1.215L203.03,80z"/>
	<path fill="#FCFCFD" d="M231.03,306.429l0.861,5.935c0.041,0.273,0.164,0.522,0.362,0.719c0.198,0.193,0.448,0.325,0.719,0.362   l5.932,0.859l-5.935,0.861c-0.273,0.041-0.522,0.164-0.719,0.362c-0.193,0.193-0.325,0.448-0.362,0.719l-0.859,5.932l-0.861-5.935   c-0.041-0.272-0.164-0.522-0.362-0.719c-0.198-0.193-0.448-0.325-0.719-0.362l-5.932-0.859l5.935-0.861   c0.273-0.041,0.522-0.164,0.719-0.362c0.193-0.193,0.325-0.448,0.362-0.719L231.03,306.429z"/>
	<circle fill="#FCFCFD" cx="238.944" cy="55.929" r="3"/>
	<path fill="#FCFCFD" d="M474.375,308.554l0.588,4.051c0.028,0.186,0.112,0.356,0.247,0.491c0.135,0.132,0.306,0.222,0.491,0.247   l4.049,0.586l-4.051,0.588c-0.186,0.028-0.356,0.112-0.491,0.247c-0.132,0.132-0.222,0.306-0.247,0.491l-0.586,4.049l-0.588-4.051   c-0.028-0.186-0.112-0.356-0.247-0.491c-0.135-0.132-0.306-0.222-0.491-0.247L469,313.929l4.051-0.588   c0.186-0.028,0.356-0.112,0.491-0.247c0.132-0.132,0.222-0.306,0.247-0.491L474.375,308.554z"/>
	<path fill="#FCFCFD" d="M295.375,421.126l1.182,8.142c0.056,0.374,0.225,0.716,0.496,0.987c0.271,0.265,0.615,0.446,0.987,0.496   l8.138,1.178l-8.142,1.182c-0.374,0.056-0.716,0.225-0.987,0.496c-0.265,0.265-0.446,0.615-0.496,0.987l-1.178,8.138l-1.182-8.142   c-0.056-0.374-0.225-0.716-0.496-0.987c-0.271-0.265-0.615-0.446-0.987-0.496l-8.138-1.178l8.142-1.182   c0.374-0.056,0.716-0.225,0.987-0.496c0.265-0.265,0.446-0.615,0.496-0.987L295.375,421.126z"/>
	<path fill="#FCFCFD" d="M5.375,322.554l0.588,4.051c0.028,0.186,0.112,0.356,0.247,0.491c0.135,0.132,0.306,0.222,0.491,0.247   l4.049,0.586l-4.051,0.588c-0.186,0.028-0.356,0.112-0.491,0.247c-0.132,0.132-0.222,0.306-0.247,0.491l-0.586,4.049l-0.588-4.051   c-0.028-0.186-0.112-0.356-0.247-0.491c-0.135-0.132-0.306-0.222-0.491-0.247L0,327.929l4.051-0.588   c0.186-0.028,0.356-0.112,0.491-0.247c0.132-0.132,0.222-0.306,0.247-0.491L5.375,322.554z"/>
	<path fill="#FCFCFD" d="M56.588,158.843l0.588,4.051c0.028,0.186,0.112,0.356,0.247,0.491c0.135,0.132,0.306,0.222,0.491,0.247   l4.049,0.586l-4.051,0.588c-0.186,0.028-0.356,0.112-0.491,0.247c-0.132,0.132-0.222,0.306-0.247,0.491l-0.586,4.049L56,165.542   c-0.028-0.186-0.112-0.356-0.247-0.491c-0.135-0.132-0.306-0.222-0.491-0.247l-4.05-0.586l4.051-0.588   c0.186-0.028,0.356-0.112,0.491-0.247c0.132-0.132,0.222-0.306,0.247-0.491L56.588,158.843z"/>
	<path fill="#FCFCFD" d="M74.654,117.633l0.807,5.559c0.038,0.255,0.154,0.489,0.339,0.674c0.185,0.182,0.419,0.304,0.674,0.339   l5.555,0.804l-5.559,0.807c-0.255,0.038-0.489,0.154-0.674,0.339c-0.182,0.182-0.304,0.419-0.339,0.674l-0.804,5.555l-0.807-5.559   c-0.038-0.255-0.154-0.489-0.339-0.674c-0.185-0.182-0.419-0.304-0.674-0.339l-5.555-0.804l5.559-0.807   c0.255-0.038,0.489-0.154,0.674-0.339c0.182-0.182,0.304-0.419,0.339-0.674L74.654,117.633z"/>
	<path fill="#FCFCFD" d="M400.375,255.912l1.464,10.081c0.07,0.463,0.279,0.887,0.615,1.223c0.336,0.329,0.76,0.551,1.223,0.615   l10.074,1.457l-10.081,1.464c-0.463,0.07-0.887,0.279-1.223,0.615c-0.329,0.329-0.551,0.76-0.615,1.223l-1.457,10.074   l-1.464-10.081c-0.07-0.463-0.279-0.887-0.615-1.223c-0.336-0.329-0.76-0.551-1.223-0.615l-10.074-1.457l10.081-1.464   c0.463-0.07,0.887-0.279,1.223-0.615c0.329-0.329,0.551-0.76,0.615-1.223L400.375,255.912z"/>
	<circle fill="#FCFCFD" cx="90.944" cy="39.81" r="3"/>
	<circle fill="#FCFCFD" cx="297.422" cy="37.423" r="2"/>
	<circle fill="#FCFCFD" cx="446.313" cy="341.594" r="2"/>
	<circle fill="#FCFCFD" cx="541.562" cy="190.115" r="4.021"/>
	<circle fill="#FCFCFD" cx="22.873" cy="263.462" r="3"/>
	<circle fill="#FCFCFD" cx="115.116" cy="57.004" r="3"/>
	<circle fill="#FCFCFD" cx="8.23" cy="144.984" r="2"/>
</g>

            </g>
        </g>
    </g>
    
    <!-- ITEM 2 -->
    <g>
        <defs>
            <clipPath id="clip-path-id-viewbox-item-2">
                <rect x="0.0" y="0.0" width="545.583" height="442.732"/>
            </clipPath>
        </defs>
        <g transform="translate(333.0 458.0) rotate(-65.13330465702707 623.5 505.5) scale(2.2856284011781893 2.283548512418348)">
            <g clip-path="url(#clip-path-id-viewbox-item-2)" transform="translate(-0.0 -0.0)">
                
<g>
	<defs>
		<rect id="SVGID_5_-i3" x="-984.77" y="-90.071" width="800" height="600"/>
	</defs>
	<clipPath id="SVGID_1_-i3">
		<use xlink:href="#SVGID_5_-i3" overflow="visible"/>
	</clipPath>
	<ellipse clip-path="url(#SVGID_1_-i3)" fill="#E8E9EC" cx="-585.77" cy="394.929" rx="615.442" ry="445"/>
</g>
<g>
	<path fill="#FCFCFD" d="M208.03,0l1.128,7.767c0.054,0.357,0.215,0.683,0.474,0.942c0.259,0.253,0.586,0.425,0.942,0.474   l7.761,1.123l-7.767,1.128c-0.357,0.054-0.683,0.215-0.942,0.474c-0.253,0.253-0.425,0.586-0.474,0.942l-1.123,7.761l-1.128-7.767   c-0.054-0.357-0.215-0.683-0.474-0.942c-0.259-0.253-0.586-0.425-0.942-0.474l-7.761-1.123l7.767-1.128   c0.357-0.054,0.683-0.215,0.942-0.474c0.253-0.253,0.424-0.586,0.474-0.942L208.03,0z"/>
	<path fill="#FCFCFD" d="M203.03,80l1.455,10.027c0.069,0.46,0.277,0.881,0.611,1.215c0.334,0.327,0.757,0.549,1.215,0.611   l10.022,1.45l-10.027,1.455c-0.46,0.069-0.881,0.277-1.215,0.611c-0.327,0.327-0.549,0.757-0.611,1.215l-1.45,10.022l-1.455-10.027   c-0.069-0.46-0.277-0.881-0.611-1.215c-0.334-0.327-0.757-0.549-1.215-0.611l-10.022-1.45l10.027-1.455   c0.46-0.069,0.881-0.277,1.215-0.611c0.327-0.327,0.549-0.757,0.611-1.215L203.03,80z"/>
	<path fill="#FCFCFD" d="M231.03,306.429l0.861,5.935c0.041,0.273,0.164,0.522,0.362,0.719c0.198,0.193,0.448,0.325,0.719,0.362   l5.932,0.859l-5.935,0.861c-0.273,0.041-0.522,0.164-0.719,0.362c-0.193,0.193-0.325,0.448-0.362,0.719l-0.859,5.932l-0.861-5.935   c-0.041-0.272-0.164-0.522-0.362-0.719c-0.198-0.193-0.448-0.325-0.719-0.362l-5.932-0.859l5.935-0.861   c0.273-0.041,0.522-0.164,0.719-0.362c0.193-0.193,0.325-0.448,0.362-0.719L231.03,306.429z"/>
	<circle fill="#FCFCFD" cx="238.944" cy="55.929" r="3"/>
	<path fill="#FCFCFD" d="M474.375,308.554l0.588,4.051c0.028,0.186,0.112,0.356,0.247,0.491c0.135,0.132,0.306,0.222,0.491,0.247   l4.049,0.586l-4.051,0.588c-0.186,0.028-0.356,0.112-0.491,0.247c-0.132,0.132-0.222,0.306-0.247,0.491l-0.586,4.049l-0.588-4.051   c-0.028-0.186-0.112-0.356-0.247-0.491c-0.135-0.132-0.306-0.222-0.491-0.247L469,313.929l4.051-0.588   c0.186-0.028,0.356-0.112,0.491-0.247c0.132-0.132,0.222-0.306,0.247-0.491L474.375,308.554z"/>
	<path fill="#FCFCFD" d="M295.375,421.126l1.182,8.142c0.056,0.374,0.225,0.716,0.496,0.987c0.271,0.265,0.615,0.446,0.987,0.496   l8.138,1.178l-8.142,1.182c-0.374,0.056-0.716,0.225-0.987,0.496c-0.265,0.265-0.446,0.615-0.496,0.987l-1.178,8.138l-1.182-8.142   c-0.056-0.374-0.225-0.716-0.496-0.987c-0.271-0.265-0.615-0.446-0.987-0.496l-8.138-1.178l8.142-1.182   c0.374-0.056,0.716-0.225,0.987-0.496c0.265-0.265,0.446-0.615,0.496-0.987L295.375,421.126z"/>
	<path fill="#FCFCFD" d="M5.375,322.554l0.588,4.051c0.028,0.186,0.112,0.356,0.247,0.491c0.135,0.132,0.306,0.222,0.491,0.247   l4.049,0.586l-4.051,0.588c-0.186,0.028-0.356,0.112-0.491,0.247c-0.132,0.132-0.222,0.306-0.247,0.491l-0.586,4.049l-0.588-4.051   c-0.028-0.186-0.112-0.356-0.247-0.491c-0.135-0.132-0.306-0.222-0.491-0.247L0,327.929l4.051-0.588   c0.186-0.028,0.356-0.112,0.491-0.247c0.132-0.132,0.222-0.306,0.247-0.491L5.375,322.554z"/>
	<path fill="#FCFCFD" d="M56.588,158.843l0.588,4.051c0.028,0.186,0.112,0.356,0.247,0.491c0.135,0.132,0.306,0.222,0.491,0.247   l4.049,0.586l-4.051,0.588c-0.186,0.028-0.356,0.112-0.491,0.247c-0.132,0.132-0.222,0.306-0.247,0.491l-0.586,4.049L56,165.542   c-0.028-0.186-0.112-0.356-0.247-0.491c-0.135-0.132-0.306-0.222-0.491-0.247l-4.05-0.586l4.051-0.588   c0.186-0.028,0.356-0.112,0.491-0.247c0.132-0.132,0.222-0.306,0.247-0.491L56.588,158.843z"/>
	<path fill="#FCFCFD" d="M74.654,117.633l0.807,5.559c0.038,0.255,0.154,0.489,0.339,0.674c0.185,0.182,0.419,0.304,0.674,0.339   l5.555,0.804l-5.559,0.807c-0.255,0.038-0.489,0.154-0.674,0.339c-0.182,0.182-0.304,0.419-0.339,0.674l-0.804,5.555l-0.807-5.559   c-0.038-0.255-0.154-0.489-0.339-0.674c-0.185-0.182-0.419-0.304-0.674-0.339l-5.555-0.804l5.559-0.807   c0.255-0.038,0.489-0.154,0.674-0.339c0.182-0.182,0.304-0.419,0.339-0.674L74.654,117.633z"/>
	<path fill="#FCFCFD" d="M400.375,255.912l1.464,10.081c0.07,0.463,0.279,0.887,0.615,1.223c0.336,0.329,0.76,0.551,1.223,0.615   l10.074,1.457l-10.081,1.464c-0.463,0.07-0.887,0.279-1.223,0.615c-0.329,0.329-0.551,0.76-0.615,1.223l-1.457,10.074   l-1.464-10.081c-0.07-0.463-0.279-0.887-0.615-1.223c-0.336-0.329-0.76-0.551-1.223-0.615l-10.074-1.457l10.081-1.464   c0.463-0.07,0.887-0.279,1.223-0.615c0.329-0.329,0.551-0.76,0.615-1.223L400.375,255.912z"/>
	<circle fill="#FCFCFD" cx="90.944" cy="39.81" r="3"/>
	<circle fill="#FCFCFD" cx="297.422" cy="37.423" r="2"/>
	<circle fill="#FCFCFD" cx="446.313" cy="341.594" r="2"/>
	<circle fill="#FCFCFD" cx="541.562" cy="190.115" r="4.021"/>
	<circle fill="#FCFCFD" cx="22.873" cy="263.462" r="3"/>
	<circle fill="#FCFCFD" cx="115.116" cy="57.004" r="3"/>
	<circle fill="#FCFCFD" cx="8.23" cy="144.984" r="2"/>
</g>

            </g>
        </g>
    </g>
    
    <!-- ITEM 3 -->
    <g>
        <defs>
            <clipPath id="clip-path-id-viewbox-item-3">
                <rect x="0.0" y="0.0" width="100.2" height="100.2"/>
            </clipPath>
        </defs>
        <g transform="translate(695.0 771.0) rotate(16.012274248281898 333.0 333.0) scale(6.6467065868263475 6.6467065868263475)">
            <g clip-path="url(#clip-path-id-viewbox-item-3)" transform="translate(-0.0 -0.0)">
                

<path d="M45.8,100c-27.6-2.4-48-26.7-45.6-54.3c0.2-2.1,0.5-4.1,0.9-6.2C2.7,31,7.4,23.9,7.4,23.9  c4.8-7.7,11.6-14,19.6-18.3C38.4,0,47.2-0.6,57.9,0.5C76.2,3.4,92,18.1,97.5,33.6C104.5,53.6,89.6,103.6,45.8,100z" style="fill:#428dfc;"/>
<title>earth</title>
<path d="M97.5,33.7c9,26.3-5.1,54.8-31.3,63.8c-5.2,1.8-10.6,2.7-16.1,2.7c-1.5,0-2.9-0.1-4.3-0.2  c-3.6-4.6-3.5-17.1,6-19.4c8.6-2.2,11.1-12.5,8.6-19.8c-4.1-11.8,13.8-17.3,15-3.5c1.2,13.6,23.4,5,14.5-6.9  C83.7,42.1,97.5,33.7,97.5,33.7z" style="fill:#1d72d8;"/>
<path d="M72.9,23.2c4.1,8.2,3.6,22.3-8.5,17.6c-6.2-2.4-4.2-8.8,0-8.9c3.7-0.2,4.5-5.4,0.9-7.9  C61.5,21.2,68.9,15,72.9,23.2z" style="fill:#1d72d8;"/>
<path d="M50.1,0c2.6,0,5.3,0.1,7.8,0.5c-4,18.5-24.8,16.3-31,5.2C34,1.9,42,0,50.1,0z" style="fill:#1d72d8;"/>
<path d="M35.6,32.9c13.3-6.1,17.3,11,7.2,12.7c-4.9,0.8-7.5,4-5.9,16.6c1.8,14.2-10.6,18.6-19.2,13.3  c-5-3.1-7.1-10.9,0-18.8c5.9-6.5-7.2-18.7-16.6-17.1C2.4,33,4.2,29,7.3,24.1C7.4,24.1,23.5,38.5,35.6,32.9z" style="fill:#1d72d8;"/>

            </g>
        </g>
    </g>
    
    <!-- ITEM 4 -->
    <g>
        <defs>
            <clipPath id="clip-path-id-viewbox-item-4">
                <rect x="0.0" y="0.0" width="243.78" height="240.48"/>
            </clipPath>
        </defs>
        <g transform="translate(484.0 500.0) rotate(5.64846020416243 265.5 262.5) scale(2.178193453113463 2.1831337325349303)">
            <g clip-path="url(#clip-path-id-viewbox-item-4)" transform="translate(-0.0 -0.0)">
                <path d="M34.32,33.2A132.92,132.92,0,0,0,55.43,6.7L43.44,0A163.21,163.21,0,0,1,21.92,25.52,164.36,164.36,0,0,1,0,43.11l6.3,11A143.59,143.59,0,0,0,34.32,33.2Z" style="fill:#fcc817;"/><path d="M101.56,32.51A154.4,154.4,0,0,1,73.49,69.68,219.11,219.11,0,0,1,33.27,101.2l79.78,139.28h0a231.78,231.78,0,0,0,130.58-128l.15-.37Z" style="fill:#fcc817;"/><path d="M60.88,56.83a136.59,136.59,0,0,0,25-33.07L72.83,16.44a152.17,152.17,0,0,1-24.6,31.14,164,164,0,0,1-32,23.87l8.09,14.12A201.76,201.76,0,0,0,60.88,56.83Z" style="fill:#fcc817;"/>
            </g>
        </g>
    </g>
    
    <!-- ITEM 5 -->
    <g>
        <defs>
            <clipPath id="clip-path-id-viewbox-item-5">
                <rect x="0.0" y="0.0" width="283.83" height="284.53"/>
            </clipPath>
        </defs>
        <g transform="translate(63.0 2.0) rotate(5.64846020416243 310.5 311.5) scale(2.1879293943557765 2.189575791656416)">
            <g clip-path="url(#clip-path-id-viewbox-item-5)" transform="translate(-0.0 -0.0)">
                <rect x="108.2" y="105.16" width="63.3" height="69.86" transform="translate(337.8 139.41) rotate(134.75)" style="fill:#eee;"/><ellipse cx="164.66" cy="164.68" rx="31.65" ry="6.85" transform="translate(-68.22 165.67) rotate(-45.25)" style="fill:#d6d7d8;"/><ellipse cx="115.05" cy="115.5" rx="31.65" ry="6.85" transform="translate(-47.97 115.88) rotate(-45.25)" style="fill:#eee;"/><rect x="55.5" y="70.38" width="63.3" height="34.93" transform="translate(210.9 87.8) rotate(134.75)" style="fill:#eee;"/><ellipse cx="99.56" cy="100.14" rx="31.65" ry="6.85" transform="translate(-41.65 100.34) rotate(-45.25)" style="fill:#d6d7d8;"/><ellipse cx="74.75" cy="75.55" rx="31.65" ry="6.85" transform="translate(-31.53 75.44) rotate(-45.25)" style="fill:#eee;"/><polygon points="248.02 0 197.78 35.65 233.59 70.69 283.83 35.04 248.02 0" style="fill:#a1c3fc;"/><polygon points="225.35 78.14 190.8 129.14 154.99 94.1 189.54 43.1 225.35 78.14" style="fill:#a1c3fc;"/><path d="M192.87,192.66l-22.28,22.47s-8.79-22.86,6.42-38.2c14.92-15.05,38.15-6.75,38.15-6.75l.09.09Z" style="fill:#a1c3fc;"/><path d="M176.91,153.61A16.49,16.49,0,1,1,153.69,177s.83-4.69,9.68-13.62C172.61,154.09,176.91,153.61,176.91,153.61Z" style="fill:#eee;"/><path d="M111.14,88.41a16.49,16.49,0,1,1-23.22,23.42s.83-4.69,9.69-13.62C106.84,88.89,111.14,88.41,111.14,88.41Z" style="fill:#eee;"/><ellipse cx="192.96" cy="192.75" rx="31.65" ry="6.85" transform="translate(-79.77 194.08) rotate(-45.25)" style="fill:#78a9ef;"/><circle cx="201.3" cy="201.01" r="5.92" style="fill:#eee;"/><rect x="192.4" y="184.87" width="6" height="20.58" transform="translate(-80.77 196.53) rotate(-45.25)" style="fill:#eee;"/><rect x="101.63" y="92.34" width="32.98" height="52.42" transform="translate(285.47 118.13) rotate(134.75)" style="fill:#eee;"/><polygon points="0 248.88 35.42 198.48 70.62 234.13 35.2 284.53 0 248.88" style="fill:#a1c3fc;"/><polygon points="78.03 225.85 128.87 191.07 93.67 155.42 42.83 190.21 78.03 225.85" style="fill:#a1c3fc;"/>
            </g>
        </g>
    </g>
    
    <!-- ITEM 6 -->
    <g>
        <defs>
            <clipPath id="clip-path-id-viewbox-item-6">
                <rect x="0.0" y="0.0" width="13.981" height="13.981"/>
            </clipPath>
        </defs>
        <g transform="translate(478.0 440.0) rotate(0.0 13.0 13.0) scale(1.8596666905085473 1.8596666905085473)">
            <g clip-path="url(#clip-path-id-viewbox-item-6)" transform="translate(-0.0 -0.0)">
                
<g>
	<g>
		<g>
			<circle style="fill:#fcc817;" cx="6.99" cy="6.99" r="6.99"/>
		</g>
	</g>
</g>

            </g>
        </g>
    </g>
    
</svg>