<?xml version="1.0" encoding="UTF-8"?><svg version="1.1" xmlns="http://www.w3.org/2000/svg" xmlns:xlink="http://www.w3.org/1999/xlink" viewBox="0 0 1500 1500" width="1500" height="1500" x="0px" y="0px">
    
    
    <!-- ITEM 0 -->
    <g>
        <defs>
            <clipPath id="clip-path-id-viewbox-item-0">
                <rect x="0.0" y="0.0" width="175.0" height="200.0"/>
            </clipPath>
        </defs>
        <g transform="translate(1167.0 550.0) rotate(8.257435614784868 133.0 152.0) scale(1.52 1.52)">
            <g clip-path="url(#clip-path-id-viewbox-item-0)" transform="translate(-0.0 -0.0)">
                
<title>Asset 2</title>
<linearGradient id="blue_circle_1_-i0" gradientUnits="userSpaceOnUse" x1="4768.5732" y1="3773.5898" x2="6002.874" y2="3773.5898" gradientTransform="matrix(0.0741 0 0 0.0741 -276.8441 -233.7513)">
	<stop offset="0" style="stop-color:#A1C3FC"/>
	<stop offset="0.6955" style="stop-color:#81AEF2"/>
	<stop offset="1" style="stop-color:#78A9EF"/>
</linearGradient>
<path id="blue_circle-i0" fill="url(#blue_circle_1_-i0)" d="M76.932,52.077C73.518,26.976,91.036,3.851,116.056,0.426  s48.074,14.148,51.488,39.247c3.414,25.101-14.103,48.226-39.123,51.651C103.407,94.719,80.373,77.162,76.932,52.077z"/>
<path id="otlined_square-i0" fill="#FFFFFF" d="M117.871,79.657L47.064,126.87L0,55.839L70.807,8.626L117.871,79.657z M48.401,120.217  l62.838-41.899L69.472,15.281L6.634,57.18L48.401,120.217z"/>
<linearGradient id="box_side_1_-i0" gradientUnits="userSpaceOnUse" x1="3987.488" y1="4998.7485" x2="4346.4072" y2="4969.2485" gradientTransform="matrix(0.0741 0 0 0.0741 -276.8441 -233.7513)">
	<stop offset="0" style="stop-color:#EEEEEE"/>
	<stop offset="1" style="stop-color:#DCE3EA"/>
</linearGradient>
<polygon id="box_side-i0" fill="url(#box_side_1_-i0)" points="28.888,73.096 3.847,70.436 44.279,195.184 68.401,200 "/>
<linearGradient id="box_front_side_1_-i0" gradientUnits="userSpaceOnUse" x1="5125.2012" y1="4911.3691" x2="5142.9126" y2="6115.7388" gradientTransform="matrix(0.0741 0 0 0.0741 -276.8441 -233.7513)">
	<stop offset="0" style="stop-color:#EEEEEE"/>
	<stop offset="1" style="stop-color:#DCE3EA"/>
</linearGradient>
<polygon id="box_front_side-i0" fill="url(#box_front_side_1_-i0)" points="175,52.691 166.046,182.34 68.401,200 28.888,73.096 "/>

            </g>
        </g>
    </g>
    
    <!-- ITEM 1 -->
    <g>
        <defs>
            <clipPath id="clip-path-id-crop-item-1">
                
          <rect transform="scale(0.29411764705882354 0.29411764705882354)" x="12.0" y="0.0" width="655.0" height="1360.0"/>
        
            </clipPath>
            
            <clipPath id="clip-path-id-viewbox-item-1">
                <rect x="0.0" y="0.0" width="200.0" height="400.0"/>
            </clipPath>
        </defs>
        <g clip-path="url(#clip-path-id-crop-item-1)" transform="translate(90.0 80.0) rotate(0.0 340.0 680.0) scale(3.4 3.4)">
            <g clip-path="url(#clip-path-id-viewbox-item-1)" transform="translate(-0.0 -0.0)">
                
<path fill="#C1D7FD" d="M170.483,400H29.06c-14.49,0-26.237-11.621-26.237-25.953V25.954c0-14.334,11.746-25.953,26.237-25.953  h141.422c14.49,0,26.237,11.62,26.237,25.953v348.094C196.72,388.38,184.972,400,170.483,400z"/>
<ellipse fill="#A1C3FC" cx="71.914" cy="25.119" rx="4.591" ry="4.541"/>
<path fill="#A1C3FC" d="M170.483,0h-27.148c-1.392,0.857-2.761,1.736-4.101,2.624c-35.569,23.556-66.161,56.908-78.064,97.58  c-4.799,16.394-6.46,33.511-10.109,50.193c-8.351,38.196-26.96,73.455-48.236,106.401v117.248c0,14.334,11.746,25.953,26.237,25.953  h141.422c14.49,0,26.237-11.621,26.237-25.953V25.954C196.72,11.62,184.972,0,170.483,0z"/>
<linearGradient id="SVGID_1_-i1" gradientUnits="userSpaceOnUse" x1="2826.748" y1="-3296.2417" x2="3018.2227" y2="-3296.2417" gradientTransform="matrix(0.1702 0 0 -0.1702 -396.2191 -184.383)">
	<stop offset="0" style="stop-color:#A1C3FC"/>
	<stop offset="1" style="stop-color:#8AB8FD"/>
</linearGradient>
<ellipse fill="url(#SVGID_1_-i1)" cx="101.188" cy="376.637" rx="16.295" ry="16.118"/>
<polygon fill="#A1C3FC" points="84.382,23.78 117.041,19.749 117.742,25.305 85.082,29.335 "/>
<rect x="10.503" y="45.282" fill="#FFFFFF" width="178.538" height="309.834"/>
<ellipse fill="#C1D7FD" cx="99.268" cy="374.738" rx="12.454" ry="12.32"/>
<g>
	<path fill="#428DFC" d="M113.05,24.848H86.213c-0.531,0-0.96-0.425-0.96-0.949c0-0.524,0.429-0.949,0.96-0.949h26.837   c0.531,0,0.96,0.425,0.96,0.949C114.01,24.423,113.58,24.848,113.05,24.848z"/>
</g>
<ellipse fill="#428DFC" cx="72.028" cy="24.567" rx="3.15" ry="3.116"/>
<rect x="0" y="46.176" fill="#89b3f4" width="3.225" height="13.757"/>
<rect x="0" y="76.483" fill="#89b3f4" width="3.225" height="24.725"/>
<rect x="196.775" y="76.483" fill="#89b3f4" width="3.225" height="24.725"/>
<rect x="0" y="108.783" fill="#89b3f4" width="3.225" height="24.725"/>
<polygon fill="#FFFFFF" points="68.426,18.107 72.874,22.86 68.069,27.261 63.621,22.508 "/>
<polygon fill="#A1C3FC" points="65.274,18.622 68.419,21.982 65.022,25.093 61.877,21.733 "/>

            </g>
        </g>
    </g>
    
    <!-- ITEM 2 -->
    <g>
        <defs>
            <clipPath id="clip-path-id-viewbox-item-2">
                <rect x="0.0" y="0.0" width="24.13" height="24.13"/>
            </clipPath>
        </defs>
        <g transform="translate(204.0 580.0) rotate(0.0 227.5 227.5) scale(18.856195607128058 18.856195607128058)">
            <g clip-path="url(#clip-path-id-viewbox-item-2)" transform="translate(-0.0 -0.0)">
                <title>ring</title><g id="Layer_2-i3" data-name="Layer 2"><g id="Layer_1-2-i3" data-name="Layer 1"><path d="M12.065,24.13A12.065,12.065,0,1,1,24.13,12.065,12.067,12.067,0,0,1,12.065,24.13Zm0-21.909a9.845,9.845,0,1,0,9.845,9.844A9.887,9.887,0,0,0,12.065,2.221Z" fill="#f1b505"/></g></g>
            </g>
        </g>
    </g>
    
    <!-- ITEM 3 -->
    <g>
        <defs>
            <clipPath id="clip-path-id-crop-item-3">
                
          <rect transform="scale(1.1695906432748537 1.1695906432748537)" x="0.0" y="0.0" width="170.0" height="130.0"/>
        
            </clipPath>
            
            <clipPath id="clip-path-id-viewbox-item-3">
                <rect x="0.0" y="0.0" width="200.0" height="200.0"/>
            </clipPath>
        </defs>
        <g clip-path="url(#clip-path-id-crop-item-3)" transform="translate(1180.0 561.0) rotate(42.196106338232134 85.5 85.5) scale(0.855 0.855)">
            <g clip-path="url(#clip-path-id-viewbox-item-3)" transform="translate(-0.0 -0.0)">
                
<path id="outlined_square_1-i3" style="fill:#EEEEEE;" d="M141.242,200L0,141.245L58.758,0L200,58.755L141.242,200z M13.097,135.842  l122.743,51.061l51.061-122.745L64.158,13.097L13.097,135.842z"/>

            </g>
        </g>
    </g>
    
    <!-- ITEM 4 -->
    <g>
        <defs>
            <clipPath id="clip-path-id-viewbox-item-4">
                <rect x="0.0" y="0.0" width="457.113" height="117.334"/>
            </clipPath>
        </defs>
        <g transform="translate(40.0 207.0) rotate(0.0 389.0 99.5) scale(1.7019861609711384 1.696013090834711)">
            <g clip-path="url(#clip-path-id-viewbox-item-4)" transform="translate(-0.0 -0.0)">
                
<g>
	<path fill="#C7DBFD" d="M28.7,117.334c15.851,0,28.7-12.849,28.7-28.7H0C0,104.485,12.85,117.334,28.7,117.334z"/>
	<linearGradient id="SVGID_1_-i5" gradientUnits="userSpaceOnUse" x1="23.6951" y1="100.7616" x2="73.2007" y2="-19.2446">
		<stop offset="0" style="stop-color:#BED6FD"/>
		<stop offset="1" style="stop-color:#AECBF5"/>
	</linearGradient>
	<polygon fill="url(#SVGID_1_-i5)" points="84.752,0 36.525,0 0,88.719 57.4,88.719  "/>
	<path fill="#F1F1F1" d="M86.098,117.334c15.851,0,28.7-12.849,28.7-28.7h-57.4C57.398,104.485,70.247,117.334,86.098,117.334z"/>
	<linearGradient id="SVGID_2_-i5" gradientUnits="userSpaceOnUse" x1="77.1978" y1="99.0855" x2="125.1888" y2="-17.2492">
		<stop offset="0" style="stop-color:#EEEEEE"/>
		<stop offset="1" style="stop-color:#D6D7D8"/>
	</linearGradient>
	<polygon fill="url(#SVGID_2_-i5)" points="132.977,0 84.75,0 57.397,88.719 114.798,88.719  "/>
	<path fill="#C7DBFD" d="M142.805,117.334c15.851,0,28.7-12.849,28.7-28.7h-57.4C114.105,104.485,126.954,117.334,142.805,117.334z"/>
	<linearGradient id="SVGID_3_-i5" gradientUnits="userSpaceOnUse" x1="130.0573" y1="97.4296" x2="176.552" y2="-15.2779">
		<stop offset="0" style="stop-color:#BED6FD"/>
		<stop offset="1" style="stop-color:#AECBF5"/>
	</linearGradient>
	<polygon fill="url(#SVGID_3_-i5)" points="180.622,0 132.395,0 114.105,88.719 171.505,88.719  "/>
	<path fill="#F1F1F1" d="M200.203,117.334c15.851,0,28.7-12.849,28.7-28.7h-57.4C171.502,104.485,184.352,117.334,200.203,117.334z"/>
	<linearGradient id="SVGID_4_-i5" gradientUnits="userSpaceOnUse" x1="183.56" y1="95.7535" x2="228.5401" y2="-13.2825">
		<stop offset="0" style="stop-color:#EEEEEE"/>
		<stop offset="1" style="stop-color:#D6D7D8"/>
	</linearGradient>
	<polygon fill="url(#SVGID_4_-i5)" points="228.847,0 180.62,0 171.502,88.719 228.903,88.719  "/>
	<path fill="#C7DBFD" d="M256.91,117.334c15.851,0,28.7-12.849,28.7-28.7h-57.4C228.21,104.485,241.059,117.334,256.91,117.334z"/>
	<linearGradient id="SVGID_5_-i5" gradientUnits="userSpaceOnUse" x1="236.4195" y1="94.0976" x2="279.9033" y2="-11.3111">
		<stop offset="0" style="stop-color:#BED6FD"/>
		<stop offset="1" style="stop-color:#AECBF5"/>
	</linearGradient>
	<polygon fill="url(#SVGID_5_-i5)" points="276.493,0 228.265,0 228.21,88.719 285.61,88.719  "/>
	<path fill="#F1F1F1" d="M314.308,117.334c15.851,0,28.7-12.849,28.7-28.7h-57.4C285.607,104.485,298.457,117.334,314.308,117.334z"/>
	<linearGradient id="SVGID_6_-i5" gradientUnits="userSpaceOnUse" x1="289.9222" y1="92.4215" x2="331.8914" y2="-9.3158">
		<stop offset="0" style="stop-color:#EEEEEE"/>
		<stop offset="1" style="stop-color:#D6D7D8"/>
	</linearGradient>
	<polygon fill="url(#SVGID_6_-i5)" points="324.718,0 276.49,0 285.607,88.719 343.008,88.719  "/>
	<path fill="#C7DBFD" d="M371.015,117.334c15.851,0,28.7-12.849,28.7-28.7h-57.4C342.315,104.485,355.164,117.334,371.015,117.334z"/>
	<linearGradient id="SVGID_7_-i5" gradientUnits="userSpaceOnUse" x1="342.7818" y1="90.7655" x2="383.2545" y2="-7.3444">
		<stop offset="0" style="stop-color:#BED6FD"/>
		<stop offset="1" style="stop-color:#AECBF5"/>
	</linearGradient>
	<polygon fill="url(#SVGID_7_-i5)" points="372.363,0 324.136,0 342.315,88.719 399.715,88.719  "/>
	<path fill="#F1F1F1" d="M428.413,117.334c15.851,0,28.7-12.849,28.7-28.7h-57.4C399.712,104.485,412.562,117.334,428.413,117.334z"/>
	<linearGradient id="SVGID_8_-i5" gradientUnits="userSpaceOnUse" x1="396.2845" y1="89.0894" x2="435.2427" y2="-5.3491">
		<stop offset="0" style="stop-color:#EEEEEE"/>
		<stop offset="1" style="stop-color:#D6D7D8"/>
	</linearGradient>
	<polygon fill="url(#SVGID_8_-i5)" points="420.588,0 372.361,0 399.712,88.719 457.113,88.719  "/>
</g>

            </g>
        </g>
    </g>
    
    <!-- ITEM 5 -->
    <g>
        <defs>
            <clipPath id="clip-path-id-viewbox-item-5">
                <rect x="0.0" y="0.0" width="200.0" height="138.0"/>
            </clipPath>
        </defs>
        <g transform="translate(261.0 653.0) rotate(0.0 197.0 135.5) scale(1.97 1.963768115942029)">
            <g clip-path="url(#clip-path-id-viewbox-item-5)" transform="translate(-0.0 -0.0)">
                
<linearGradient id="tick_1_-i6" gradientUnits="userSpaceOnUse" x1="5085.6152" y1="3523.2837" x2="5085.6152" y2="5536.6489" gradientTransform="matrix(0.0741 0 0 0.0741 -276.8441 -233.7513)">
	<stop offset="0.1291" style="stop-color:#f1b505"/>
	<stop offset="0.9987" style="stop-color:#cc9a00"/>
</linearGradient>
<polygon id="tick-i6" fill="url(#tick_1_-i6)" points="0,37.852 61.538,138 112.426,138 200,0 140.828,0 82.446,95.023 46.548,37.852 "/>

            </g>
        </g>
    </g>
    
    <!-- ITEM 6 -->
    <g>
        <defs>
            <clipPath id="clip-path-id-viewbox-item-6">
                <rect x="0.0" y="0.0" width="234.0" height="500.0"/>
            </clipPath>
        </defs>
        <g transform="translate(902.0 353.0) rotate(0.0 253.0 541.5) scale(2.1623931623931623 2.166)">
            <g clip-path="url(#clip-path-id-viewbox-item-6)" transform="translate(-0.0 -0.0)">
                
<linearGradient id="hand_2_-i6" gradientUnits="userSpaceOnUse" x1="5425.5586" y1="5177.7134" x2="4821.5117" y2="4532.7144" gradientTransform="matrix(0.0729 -0.013 0.013 0.0729 -243.1234 -82.0263)">
	<stop offset="0" style="stop-color:#FFBEB6"/>
	<stop offset="1" style="stop-color:#F2A19C"/>
</linearGradient>
<path id="hand_1_-i6" fill="url(#hand_2_-i6)" d="M219.294,220.816c0,0-14.22,4.473-22.099-4.42s-10.1-7.392-18.436-7.364  c-3.595,0.01-17.095-0.538-27.516-1.124l16.267-19.52c9.994,5.476,23.813,12.441,29.36,12.516  c9.112,0.109,16.652-4.356,20.687-4.563c4.073-0.214,5.171,0.182,5.769,3.074c0,0,2.018,0.231,7.266,0.4  C240.763,200.763,225.522,219.388,219.294,220.816z"/>
<g id="shoes-2-i6">
	
		<linearGradient id="L_shoe-2_1_-i6" gradientUnits="userSpaceOnUse" x1="3246.8113" y1="-5772.2739" x2="4584.8384" y2="-5772.2739" gradientTransform="matrix(0.0741 0 0 -0.0741 -230.5491 52.7163)">
		<stop offset="0" style="stop-color:#A1C3FC"/>
		<stop offset="1" style="stop-color:#84AFEF"/>
	</linearGradient>
	<path id="L_shoe-2-i6" fill="url(#L_shoe-2_1_-i6)" d="M24.084,460.884L10.04,499.997L109.187,500c0,0-5.085-9.789-22.032-17.04   s-32.766-22.076-32.766-22.076L24.084,460.884"/>
	<path id="R_shoe-2-i6" fill="#A1C3FC" d="M109.059,460.755l-14.044,39.113l99.148,0.003c0,0-5.085-9.789-22.032-17.04   c-16.947-7.251-32.766-22.076-32.766-22.076L109.059,460.755"/>
</g>
<g id="trousers-2-i6">
	
		<linearGradient id="L_trousers-2_1_-i6" gradientUnits="userSpaceOnUse" x1="3513.7009" y1="-4175.7676" x2="4400.0195" y2="-3541.0481" gradientTransform="matrix(0.0741 0 0 -0.0741 -230.5491 52.7163)">
		<stop offset="0" style="stop-color:#23286B"/>
		<stop offset="1" style="stop-color:#131951"/>
	</linearGradient>
	<path id="L_trousers-2-i6" fill="url(#L_trousers-2_1_-i6)" d="M96.801,249.841c12.26,15.497,19.785,27.624,23.554,38.735   c-4.54,15.235-9.752,31.06-15.441,45.411c-19.62,49.502-47.518,126.874-47.518,126.874H2.633c0,0-5.556-16.463-0.525-32.5   c2.59-8.216,6.884-6.823,10.622-33.94c2.95-21.503,8.343-29.554,18.161-45.542s23.997-23.008,37.864-71.627   c10.179-35.724,8.523-56.686,6.556-66.161C80.182,225.147,87.454,238.257,96.801,249.841z"/>
	
		<linearGradient id="R_trousers-2_1_-i6" gradientUnits="userSpaceOnUse" x1="4284.6572" y1="-2975.946" x2="3761.5146" y2="-1838.9849" gradientTransform="matrix(0.0741 0 0 -0.0741 -230.5491 52.7163)">
		<stop offset="0" style="stop-color:#23286B"/>
		<stop offset="1" style="stop-color:#142066"/>
	</linearGradient>
	<path id="R_trousers-2-i6" fill="url(#R_trousers-2_1_-i6)" d="M180.658,334.102c-3.425,20.193-41.175,126.759-41.175,126.759   l-54.862-0.147c-2.426-26.298-0.426-26.151,6.934-41.91c7.376-15.775-2.82-28.441,9.572-49.601   c8.769-14.941,12.589-19.653,19.44-44.348c6.835-24.711,2.033-42.416-23.767-75.015c-20.784-26.249-24.997-49.65-25.866-57.75   c5.748,1.827,11.607,3.293,17.538,4.386c3.623,7.168,7.573,11.111,16.096,19.032c5.458,5.09,16.374,8.952,24.308,18.148   c6.736,7.806,18.096,12.142,18.096,12.142l5.672-15.661c7.884,15.137,16.785,32.14,22.899,43.545   C188.903,298.673,184.084,313.908,180.658,334.102z"/>
	<path id="texture-2-i6" opacity="0.39" fill="#FFFFFF" enable-background="new    " d="M89.466,219.912   c-0.164-0.166-0.431-0.167-0.597-0.003c-0.007,0.007-0.011,0.011-0.016,0.018c-0.161,0.164-0.159,0.427,0.007,0.589   c0.003,0.003,0.007,0.007,0.01,0.008c0.164,0.166,0.431,0.167,0.597,0.003c0.007-0.007,0.011-0.011,0.016-0.018   c0.161-0.164,0.159-0.427-0.007-0.589C89.474,219.918,89.471,219.915,89.466,219.912z M96.522,212.315   c-0.176-0.152-0.439-0.137-0.598,0.031c-0.158,0.177-0.151,0.443,0.015,0.612c0.179,0.161,0.452,0.145,0.613-0.031   c0.161-0.169,0.156-0.437-0.015-0.597C96.533,212.325,96.528,212.32,96.522,212.315z M122.967,242.623   c-0.238,0.008-0.423,0.206-0.415,0.443c0,0,0,0,0,0.001c0.021,0.234,0.225,0.409,0.461,0.398c0.225,0.005,0.41-0.174,0.415-0.399   c0-0.01,0-0.019,0-0.029C123.412,242.796,123.207,242.613,122.967,242.623z M122.613,232.27c-0.24,0.015-0.425,0.219-0.415,0.46   c0.01,0.229,0.203,0.408,0.433,0.399c0.003,0,0.008,0,0.011,0c0.238-0.018,0.415-0.224,0.396-0.46   C123.024,232.444,122.837,232.27,122.613,232.27L122.613,232.27z M83.069,202.914c-0.115-0.206-0.365-0.292-0.584-0.2   c-0.211,0.101-0.3,0.355-0.2,0.566c0.093,0.211,0.341,0.308,0.554,0.213c0.01-0.005,0.019-0.01,0.029-0.015   c0.208-0.09,0.303-0.332,0.213-0.538C83.079,202.932,83.074,202.922,83.069,202.914L83.069,202.914z M102.183,234.261   c-0.211-0.087-0.454,0.015-0.539,0.227c-0.005,0.011-0.008,0.023-0.011,0.034c-0.072,0.219,0.042,0.456,0.261,0.537   c0.213,0.087,0.454-0.016,0.541-0.229c0.005-0.01,0.008-0.021,0.011-0.031c0.082-0.208-0.019-0.442-0.228-0.525   C102.204,234.269,102.193,234.264,102.183,234.261L102.183,234.261z M105.817,224.552c-0.228-0.077-0.477,0.037-0.567,0.26   c-0.056,0.226,0.061,0.46,0.275,0.551c0.225,0.08,0.472-0.036,0.552-0.26c0.084-0.216-0.023-0.46-0.24-0.543   C105.832,224.556,105.825,224.555,105.817,224.552z M83.959,195.578c-0.051,0.095-0.058,0.208-0.015,0.306   c0.077,0.195,0.292,0.296,0.489,0.229c0.169-0.053,0.269-0.226,0.23-0.398C84.435,195.67,84.19,195.623,83.959,195.578z    M92.794,230.556c-0.19-0.085-0.415-0.003-0.507,0.184c-0.092,0.187-0.016,0.411,0.169,0.506c0.192,0.089,0.418,0.015,0.521-0.169   C93.073,230.881,92.989,230.649,92.794,230.556L92.794,230.556L92.794,230.556z M96.844,222.256   c-0.19-0.089-0.418-0.007-0.507,0.184c-0.089,0.19-0.007,0.417,0.184,0.506c0.187,0.087,0.409,0.013,0.507-0.169   c0.095-0.188,0.021-0.417-0.168-0.512C96.856,222.261,96.849,222.257,96.844,222.256z M100.91,213.939   c-0.117-0.058-0.256-0.05-0.369,0.015h-0.015c-0.058,0.036-0.1,0.09-0.123,0.153c-0.051,0.1-0.056,0.218-0.015,0.321   c0.036,0.09,0.108,0.162,0.2,0.2c0.162,0.097,0.37,0.042,0.467-0.119c0.01-0.016,0.018-0.033,0.025-0.049   c0.098-0.185,0.029-0.416-0.156-0.514C100.918,213.944,100.913,213.942,100.91,213.939L100.91,213.939z M86.858,209.162   c-0.118-0.159-0.345-0.193-0.504-0.074c-0.011,0.008-0.023,0.018-0.033,0.027c-0.154,0.147-0.168,0.388-0.031,0.551   c0.136,0.152,0.37,0.166,0.523,0.029c0.005-0.005,0.01-0.008,0.015-0.013c0.153-0.123,0.176-0.345,0.053-0.498   C86.873,209.177,86.865,209.168,86.858,209.162L86.858,209.162z M111.385,230.892c-0.213-0.005-0.395,0.156-0.415,0.369   c-0.011,0.206,0.146,0.385,0.353,0.398c0.203,0.025,0.386-0.118,0.413-0.321c0-0.005,0.001-0.011,0.001-0.016   C111.747,231.108,111.594,230.924,111.385,230.892L111.385,230.892z M111.937,221.673c-0.211-0.005-0.386,0.158-0.398,0.369   c-0.011,0.21,0.151,0.388,0.361,0.398c0.003,0,0.005,0,0.008,0c0.205,0.007,0.38-0.147,0.398-0.352   C112.312,221.872,112.151,221.691,111.937,221.673z M90.939,208.028c-0.106-0.067-0.248-0.039-0.322,0.061   c-0.077,0.097-0.061,0.237,0.036,0.314c0.003,0.003,0.007,0.005,0.01,0.007c0.085,0.071,0.211,0.059,0.284-0.026   c0.01-0.011,0.016-0.023,0.023-0.036C91.043,208.25,91.03,208.111,90.939,208.028z M85.479,197.584   c-0.058-0.105-0.19-0.142-0.293-0.084c-0.005,0.001-0.008,0.005-0.013,0.008c-0.101,0.072-0.14,0.206-0.092,0.322   c0.076,0.1,0.21,0.132,0.323,0.077C85.51,197.837,85.545,197.694,85.479,197.584L85.479,197.584z M87.563,213.725   c-0.127-0.054-0.275,0-0.338,0.123c-0.059,0.131-0.005,0.286,0.123,0.352c0.121,0.063,0.269,0.013,0.33-0.106   c0.003-0.005,0.005-0.01,0.008-0.016c0.067-0.121,0.025-0.274-0.097-0.34C87.581,213.733,87.573,213.73,87.563,213.725   L87.563,213.725z M90.372,208.166c-0.127-0.058-0.278-0.011-0.353,0.108c-0.066,0.132-0.018,0.292,0.108,0.369   c0.131,0.049,0.28-0.001,0.353-0.123C90.535,208.392,90.489,208.241,90.372,208.166L90.372,208.166z M79.464,203.204   c-0.092-0.1-0.246-0.115-0.353-0.031c-0.108,0.093-0.121,0.257-0.031,0.369c0.087,0.109,0.244,0.127,0.354,0.042   c0.005-0.003,0.01-0.008,0.013-0.011C79.553,203.474,79.56,203.31,79.464,203.204L79.464,203.204z M84.19,199.131   c-0.089-0.105-0.248-0.119-0.353-0.029c-0.005,0.005-0.011,0.01-0.016,0.015c-0.105,0.077-0.127,0.222-0.053,0.327   c0.007,0.008,0.013,0.016,0.021,0.025c0.085,0.105,0.241,0.121,0.348,0.036c0.001-0.001,0.003-0.003,0.007-0.005   c0.113-0.084,0.138-0.242,0.056-0.355C84.195,199.139,84.193,199.134,84.19,199.131L84.19,199.131z M100.541,213.955h-0.015   c-0.143-0.005-0.264,0.103-0.275,0.245c0,0.097,0.054,0.184,0.138,0.229c0.046,0.015,0.077,0.015,0.106,0.045   c0.143,0.01,0.266-0.098,0.275-0.24c0-0.001,0-0.003,0-0.005C100.778,214.092,100.678,213.973,100.541,213.955L100.541,213.955z    M77.241,200.019c-0.166-0.182-0.447-0.195-0.63-0.031c-0.182,0.166-0.195,0.446-0.031,0.629c0.142,0.177,0.4,0.205,0.577,0.064   c0.013-0.01,0.025-0.021,0.036-0.033C77.376,200.484,77.398,200.207,77.241,200.019L77.241,200.019z M93.776,240.601   c-0.248-0.005-0.455,0.184-0.475,0.428c0,0.245,0.2,0.443,0.444,0.443c0.225,0.027,0.429-0.131,0.457-0.356   c0.001-0.015,0.003-0.027,0.003-0.042C94.206,240.831,94.02,240.628,93.776,240.601L93.776,240.601z M94.314,229.958   c-0.241-0.01-0.446,0.174-0.461,0.414c-0.018,0.245,0.168,0.458,0.413,0.475c0.246,0.016,0.459-0.167,0.475-0.412   c0-0.005,0-0.011,0.001-0.016c0.013-0.24-0.17-0.445-0.412-0.458C94.325,229.958,94.32,229.958,94.314,229.958L94.314,229.958z    M94.85,219.3c-0.238-0.016-0.444,0.164-0.459,0.401c0,0.005,0,0.008,0,0.013c-0.003,0.243,0.187,0.446,0.429,0.46   c0.241,0.013,0.447-0.172,0.461-0.412c0.013-0.24-0.172-0.446-0.413-0.46C94.861,219.3,94.856,219.3,94.85,219.3z M95.418,208.64   c-0.248-0.011-0.461,0.169-0.491,0.414c0.001,0.243,0.187,0.448,0.429,0.475c0.246,0.008,0.452-0.185,0.461-0.43   C95.825,208.864,95.649,208.664,95.418,208.64z M82.578,211.167c-0.21-0.108-0.467-0.026-0.575,0.184   c-0.003,0.005-0.005,0.01-0.008,0.015c-0.116,0.216-0.036,0.487,0.182,0.604c0.216,0.116,0.487,0.036,0.605-0.182   c0.005-0.008,0.008-0.016,0.011-0.025c0.108-0.219,0.018-0.483-0.202-0.591C82.587,211.171,82.584,211.17,82.578,211.167   L82.578,211.167z M87.166,201.535c-0.216-0.111-0.481-0.026-0.594,0.19c-0.001,0.003-0.003,0.007-0.005,0.01   c-0.106,0.206-0.026,0.46,0.182,0.566c0.011,0.005,0.021,0.011,0.033,0.015c0.216,0.113,0.483,0.031,0.598-0.184   C87.48,201.908,87.386,201.644,87.166,201.535L87.166,201.535z M113.901,232.822c-0.228,0.085-0.351,0.334-0.275,0.566   c0.095,0.227,0.346,0.345,0.584,0.275c0.216-0.089,0.33-0.327,0.261-0.551C114.388,232.879,114.137,232.75,113.901,232.822   L113.901,232.822z M110.328,222.791c-0.221,0.063-0.351,0.293-0.288,0.514c0.003,0.013,0.008,0.025,0.011,0.036   c0.082,0.23,0.335,0.353,0.567,0.275c0.219-0.093,0.333-0.338,0.261-0.566c-0.064-0.216-0.292-0.34-0.51-0.275   C110.356,222.779,110.341,222.786,110.328,222.791L110.328,222.791z M78.453,204.63c-0.2-0.121-0.462-0.058-0.584,0.142   c-0.005,0.008-0.01,0.018-0.015,0.026c-0.113,0.224-0.025,0.498,0.2,0.612c0.213,0.098,0.465,0.018,0.584-0.184   c0.115-0.213,0.036-0.48-0.179-0.594C78.457,204.631,78.455,204.63,78.453,204.63L78.453,204.63z M83.652,195.501   c-0.261-0.045-0.507-0.108-0.767-0.153c-0.027,0.011-0.05,0.034-0.061,0.061c-0.108,0.219-0.019,0.487,0.2,0.597   c0.23,0.101,0.499-0.003,0.6-0.232C83.661,195.689,83.671,195.593,83.652,195.501z M107.843,236.926   c-0.232,0.076-0.356,0.322-0.28,0.553c0.001,0.005,0.003,0.01,0.005,0.013c0.069,0.227,0.308,0.358,0.538,0.292   c0.23-0.076,0.359-0.319,0.292-0.551C108.322,237,108.079,236.865,107.843,236.926L107.843,236.926z M104.697,226.772   c-0.238,0.077-0.372,0.326-0.306,0.566c0.08,0.239,0.339,0.369,0.577,0.288c0.228-0.077,0.357-0.316,0.296-0.548   C105.18,226.849,104.937,226.719,104.697,226.772L104.697,226.772z M101.554,216.635c-0.228,0.079-0.361,0.316-0.306,0.551   c0.085,0.227,0.335,0.348,0.567,0.275c0.232-0.069,0.362-0.311,0.293-0.543c-0.001-0.003-0.001-0.007-0.003-0.008   C102.019,216.691,101.781,216.572,101.554,216.635L101.554,216.635z M86.367,222.913c-0.244-0.011-0.454,0.17-0.475,0.414   c-0.029,0.231,0.135,0.442,0.365,0.472c0.011,0.001,0.021,0.001,0.033,0.003c0.238,0.015,0.447-0.149,0.49-0.383   C86.795,223.168,86.617,222.949,86.367,222.913L86.367,222.913z M87.349,212.347c-0.238-0.026-0.449,0.145-0.475,0.383l0,0   c-0.023,0.247,0.159,0.466,0.405,0.49c0.003,0,0.005,0,0.008,0c0.241,0.013,0.447-0.172,0.461-0.414   C87.762,212.571,87.585,212.366,87.349,212.347L87.349,212.347z M88.347,201.765c-0.246-0.025-0.464,0.153-0.49,0.398   c-0.016,0.237,0.162,0.442,0.398,0.46c0.236,0.034,0.455-0.129,0.489-0.364c0.034-0.235-0.129-0.454-0.365-0.49   C88.368,201.767,88.357,201.765,88.347,201.765L88.347,201.765z M79.235,199.545c-0.174-0.049-0.354,0.044-0.415,0.214   c-0.061,0.177,0.034,0.369,0.21,0.427c0.176,0.059,0.369-0.034,0.428-0.21c0.061-0.177-0.034-0.369-0.21-0.427   C79.245,199.547,79.24,199.547,79.235,199.545z M106.432,218.9c-0.085-0.159-0.284-0.218-0.443-0.132   c-0.159,0.085-0.218,0.284-0.132,0.442c0.001,0.005,0.005,0.008,0.008,0.013c0.092,0.161,0.295,0.216,0.455,0.124   c0.001,0,0.003-0.001,0.005-0.001C106.469,219.248,106.518,219.055,106.432,218.9L106.432,218.9z M89.129,219.82   c-0.182,0.033-0.31,0.2-0.292,0.383c0.026,0.179,0.187,0.308,0.369,0.292c0.182-0.033,0.308-0.2,0.292-0.383   C89.466,219.934,89.308,219.809,89.129,219.82L89.129,219.82z M88.193,211.872c-0.177,0.013-0.308,0.169-0.293,0.343   c0,0.008,0.001,0.016,0.003,0.023c0.025,0.182,0.185,0.314,0.369,0.306c0.18-0.033,0.303-0.201,0.275-0.383   c-0.007-0.169-0.15-0.301-0.319-0.295C88.216,211.869,88.204,211.87,88.193,211.872z M87.243,203.895   c-0.18,0.033-0.303,0.201-0.275,0.383c0.01,0.172,0.156,0.304,0.33,0.296c0.013,0,0.026-0.001,0.039-0.005   c0.182-0.019,0.311-0.184,0.292-0.364c0-0.001,0-0.001,0-0.003C87.585,204.022,87.426,203.895,87.243,203.895L87.243,203.895z    M86.644,196.129c-0.169-0.031-0.323-0.061-0.489-0.092c-0.095,0.059-0.148,0.166-0.138,0.275c0.021,0.184,0.187,0.314,0.37,0.293   c0.005,0,0.008-0.001,0.013-0.001c0.172-0.019,0.296-0.174,0.277-0.345c0-0.001,0-0.005-0.001-0.007   C86.673,196.209,86.664,196.167,86.644,196.129L86.644,196.129z M85.096,202.622c-0.087,0.026-0.136,0.119-0.109,0.206   c0,0.003,0.001,0.005,0.003,0.008c0.019,0.097,0.113,0.159,0.208,0.139c0.001,0,0.005-0.001,0.007-0.001   c0.108-0.045,0.169-0.123,0.123-0.229C85.29,202.653,85.192,202.6,85.096,202.622L85.096,202.622z M84.114,198.549   c-0.018-0.101-0.113-0.17-0.214-0.153c-0.093,0.042-0.146,0.143-0.123,0.245c0.023,0.092,0.118,0.147,0.21,0.124   c0.001,0,0.003-0.001,0.005-0.001C84.114,198.733,84.159,198.625,84.114,198.549L84.114,198.549z M76.398,196.65   c-0.105,0.003-0.195,0.08-0.214,0.184c-0.003,0.095,0.061,0.179,0.154,0.2c0.106,0.001,0.2-0.067,0.23-0.169   C76.573,196.759,76.501,196.668,76.398,196.65L76.398,196.65z M91.291,208.962c-0.098-0.131-0.282-0.159-0.415-0.061   c-0.135,0.098-0.166,0.286-0.067,0.42c0.001,0.003,0.003,0.005,0.007,0.008c0.108,0.127,0.296,0.149,0.429,0.045   c0.126-0.092,0.154-0.269,0.063-0.395C91.303,208.975,91.297,208.969,91.291,208.962L91.291,208.962z M86.797,203.266   c-0.087-0.129-0.262-0.164-0.391-0.077c-0.008,0.005-0.015,0.01-0.021,0.016c-0.121,0.087-0.15,0.253-0.064,0.375   c0.01,0.013,0.021,0.026,0.033,0.037c0.076,0.124,0.24,0.164,0.364,0.087c0.013-0.008,0.025-0.016,0.036-0.026   c0.126-0.09,0.154-0.266,0.064-0.391C86.81,203.281,86.803,203.273,86.797,203.266L86.797,203.266z M82.334,197.569   c-0.103-0.132-0.293-0.159-0.429-0.061c-0.123,0.108-0.15,0.29-0.061,0.428c0.108,0.127,0.296,0.149,0.429,0.045   c0.129-0.087,0.164-0.262,0.077-0.391C82.345,197.583,82.34,197.576,82.334,197.569L82.334,197.569z"/>
</g>
<g id="sweater-3-i6">
	
		<linearGradient id="sweater-4_1_-i6" gradientUnits="userSpaceOnUse" x1="4955.2661" y1="-1044.0492" x2="3269.1697" y2="-2065.4333" gradientTransform="matrix(0.0741 0 0 -0.0741 -230.5491 52.7163)">
		<stop offset="0" style="stop-color:#428DFC"/>
		<stop offset="1" style="stop-color:#1E77E0"/>
	</linearGradient>
	<path id="sweater-4-i6" fill="url(#sweater-4_1_-i6)" d="M140.917,86.373c-4.948,12.906-7.522,26.597-7.597,40.415   c-0.048,6.844,0.74,13.668,2.347,20.322v0.015c-0.69,26.217-0.323,49.694-0.323,49.694c-14.59,2.497-29.494,2.544-44.099,0.137   c-17.974-2.789-35.205-9.158-50.666-18.729c0,0-5.339-18.009,14.755-35.269c16.888-14.517,11.412-14.686,24.388-33.492   c16.121-23.339,51.264-41.641,51.264-41.641L140.917,86.373L140.917,86.373z"/>
	<path id="R_sleeve-2-i6" fill="#428DFC" d="M167.802,188.273l-20.83,57.519c0,0-11.356-4.326-18.087-12.129   c-7.937-9.202-18.863-13.072-24.324-18.148c-10.937-10.169-14.338-13.803-19.202-26.072c-3.196-8.063-1.685-21.688,0.433-35.211   c6.258-39.985,26.16-60.709,45.197-86.404c0,0,2.35,17.077,9.928,18.548l0,0c-4.948,12.906-7.522,26.597-7.597,40.415   c-0.048,6.844,0.74,13.668,2.347,20.322v0.015C139.813,164.883,151.562,179.928,167.802,188.273z"/>
</g>
<g id="head-2-i6">
	<path id="neck-2-i6" fill="#FFBEB6" d="M150.694,71.91l-9.769,14.467c0,0-9.343-6.268-9.851-16.168   c2.955-0.115,5.822-1.031,8.294-2.651C142.767,69.843,146.638,71.33,150.694,71.91z"/>
	<path id="face-2-i6" fill="#FFBEB6" d="M176.26,58.355c0,0-6.773,14.302-19.698,14.09c-6.089,0.105-12.074-1.595-17.198-4.885   c7.145-4.318,12.995-13.08,12.995-19.365c0,0,9.946,7.186,11.666-5.469c4.811,0.284,9.612-0.707,13.918-2.867   c0.929,4.921,2.3,9.75,4.096,14.425C184.009,58.817,176.26,58.355,176.26,58.355z"/>
	<path id="mouth-i6" fill="#1C2868" d="M168.261,61.386c-0.172,2.335,1.585,4.368,3.925,4.539c0.847,0.063,1.693-0.131,2.429-0.554   c0.562-0.318,0.17-1.255-0.4-0.933c-1.513,0.948-3.509,0.491-4.458-1.02c-0.357-0.569-0.529-1.237-0.488-1.908   C169.299,60.864,168.291,60.732,168.261,61.386L168.261,61.386z"/>
	<path id="hair-2-i6" fill="#23286B" d="M186.19,17.894c-0.369-0.699-1.429-0.08-1.062,0.62c3.393,6.328,2.036,14.151-3.29,18.972   c-2.556,2.375-5.772,3.919-9.225,4.431c5.776-1.431,12.44-5.201,13.015-14.947c0.958-16.252-15.307-14.407-17.565-7.449   c0.473-4.083,0.438-14.729-11.925-18.571c-15.431-4.793-11.659,9.928-9.258,13.352c0,0-4.114-5.477-12.344-3.082   s-3.429,8.9-3.429,8.9s-18.517-5.819-25.032,11.64c-4.303,11.528,3.057,15.891,9.245,16.934c-5.867,0.399-11.261-1.991-12.68-9.372   c-0.15-0.775-1.334-0.446-1.185,0.326c2.067,10.739,12.011,11.813,20.455,8.792c-1.572,1.435-8.864,9.037,1.313,18.582   c11.317,10.613,29.148-7.874,29.148-18.829c0,0,9.884,7.141,11.641-5.369c7.1,1.511,14.57,0.033,19.722-5.492   C188.659,32.059,189.65,24.227,186.19,17.894z"/>
</g>

            </g>
        </g>
    </g>
    
</svg>